<svg width="52" height="52" viewBox="0 0 52 52" fill="none" xmlns="http://www.w3.org/2000/svg">
<circle cx="25.9935" cy="25.7142" r="25.7142" fill="url(#paint0_linear_543_379)"/>
<path d="M11.9408 20.6492C12.6964 20.6492 13.9847 20.6988 14.6412 20.7731C15.5951 20.8722 15.8552 21.058 16.0286 21.8508C16.1153 22.2224 16.2392 23.1267 16.2392 24.192C16.2392 24.4274 16.2144 24.5017 16.0162 24.5141C15.4464 24.5388 14.7155 24.5388 14.3563 24.5388C14.0962 24.5388 13.0185 24.5388 12.7212 24.5141C12.523 24.5017 12.4982 24.4645 12.4858 24.3159C12.4734 24.1672 12.4734 23.3249 12.4486 23.1267C12.4363 23.0028 12.3991 22.9533 12.2504 22.9285C12.1885 22.9161 12.0399 22.9037 11.9408 22.9037C11.8417 22.9037 11.693 22.9161 11.6311 22.9285C11.5072 22.9533 11.4453 22.9904 11.4329 23.1267C11.3957 23.6222 11.3957 24.3407 11.3957 25.0715C11.3957 25.728 11.3957 26.5208 11.4329 27.0163C11.4453 27.1526 11.5072 27.1898 11.6311 27.2145C11.693 27.2269 11.8417 27.2393 11.9408 27.2393C12.0399 27.2393 12.1885 27.2269 12.2504 27.2145C12.3991 27.1898 12.4363 27.1402 12.4486 27.0163C12.4734 26.8181 12.4858 25.8395 12.4982 25.6909C12.5106 25.5422 12.5354 25.5051 12.7336 25.4927C13.0309 25.4679 14.0962 25.4679 14.3563 25.4679C14.7155 25.4679 15.4464 25.4679 16.0162 25.4927C16.2144 25.5051 16.2516 25.5794 16.2516 25.8148C16.2268 26.8801 16.1153 27.9206 16.0286 28.2922C15.8552 29.085 15.5951 29.2708 14.6412 29.3699C13.9847 29.4443 12.6964 29.4938 11.9408 29.4938C11.1356 29.4938 9.94639 29.4443 9.24031 29.3699C8.28648 29.2708 8.03873 29.0974 7.85292 28.2922C7.71666 27.6976 7.59278 26.5208 7.59278 25.0715C7.59278 23.6222 7.71666 22.4454 7.85292 21.8508C8.03873 21.0084 8.33603 20.8722 9.24031 20.7731C9.89684 20.6988 11.1851 20.6492 11.9408 20.6492ZM20.8876 20.7359C21.5193 20.7359 23.8358 20.7483 24.1826 20.7855C24.4428 20.8102 24.6038 20.9217 24.6162 21.2314C24.6286 21.4792 24.6286 21.826 24.6286 22.0985C24.6286 22.3711 24.6286 22.6807 24.6162 22.9285C24.6038 23.1886 24.5295 23.2753 24.3065 23.2753H21.2964C21.1849 23.2753 21.1477 23.3249 21.1477 23.4983V24.192C21.1477 24.3654 21.1849 24.3902 21.2964 24.3902H24.034C24.2446 24.3902 24.3313 24.4274 24.3437 24.6379C24.3561 24.8857 24.3561 25.1954 24.3561 25.4431C24.3561 25.6909 24.3561 26.0006 24.3437 26.2483C24.3313 26.4589 24.2446 26.4961 24.034 26.4961H21.2964C21.1849 26.4961 21.1477 26.5456 21.1477 26.719V28.9116C21.1477 29.2213 21.0362 29.3328 20.7761 29.3576C20.5283 29.3823 19.909 29.4071 19.2772 29.4071C18.6455 29.4071 18.088 29.3823 17.8031 29.3576C17.543 29.3328 17.4191 29.2213 17.4067 28.9116C17.3695 27.9082 17.3695 26.5208 17.3695 25.0715C17.3695 23.6222 17.3695 22.2348 17.4067 21.2314C17.4191 20.9217 17.543 20.8102 17.8031 20.7855C18.3853 20.7359 20.2063 20.7359 20.8876 20.7359ZM33.9807 21.8508C34.1169 22.4454 34.2408 23.6222 34.2408 25.0715C34.2408 26.5208 34.1169 27.6976 33.9807 28.2922C33.7949 29.1346 33.4976 29.2708 32.5933 29.3699C32.2093 29.4195 31.6023 29.4443 31.0201 29.469V29.8035C31.0201 30.0017 31.0944 30.0636 31.305 30.0884C31.4165 30.1008 31.7262 30.1008 32.0978 30.1008C32.2836 30.1008 32.3455 30.1627 32.3455 30.3485C32.3455 30.4724 32.3455 30.9803 32.3208 31.2157C32.3084 31.4015 32.2464 31.451 32.0483 31.4758C31.7386 31.4882 31.1192 31.5006 30.6485 31.5006C30.2397 31.5006 29.8309 31.4882 29.3973 31.4634C28.9266 31.4386 28.7284 31.2528 28.716 30.7945C28.7036 30.5467 28.6913 29.9522 28.6913 29.469C28.1338 29.4443 27.564 29.4071 27.1924 29.3699C26.2881 29.2708 25.9908 29.1346 25.805 28.2922C25.6687 27.6976 25.5449 26.5208 25.5449 25.0715C25.5449 23.6222 25.6687 22.4454 25.805 21.8508C25.9908 21.0084 26.2881 20.8722 27.1924 20.7731C27.8489 20.6988 29.1372 20.6492 29.8928 20.6492C30.6485 20.6492 31.9368 20.6988 32.5933 20.7731C33.4976 20.8722 33.7949 21.0084 33.9807 21.8508ZM29.385 23.1267C29.3478 23.6222 29.3478 24.3778 29.3478 25.0715C29.3478 25.7652 29.3478 26.5208 29.385 27.0163C29.3973 27.165 29.4593 27.1898 29.5832 27.2145C29.6575 27.2269 29.7937 27.2393 29.8928 27.2393C29.9919 27.2393 30.1282 27.2269 30.2025 27.2145C30.3264 27.1898 30.3883 27.1526 30.4007 27.0163C30.4379 26.5208 30.4379 25.7652 30.4379 25.0715C30.4379 24.3778 30.4379 23.6222 30.4007 23.1267C30.3883 22.978 30.3264 22.9533 30.2025 22.9285C30.1282 22.9161 29.9919 22.9037 29.8928 22.9037C29.7937 22.9037 29.6451 22.9161 29.5832 22.9285C29.4593 22.9533 29.3973 22.9904 29.385 23.1267ZM39.2098 20.6492C39.9655 20.6492 41.3776 20.6988 42.0342 20.7731C43.0747 20.8846 43.3224 21.1199 43.4215 21.8384C43.4587 22.1481 43.4959 22.7922 43.4959 23.4364C43.4959 24.0805 43.4587 24.7247 43.4215 25.0343C43.3224 25.7404 43.0747 26.0253 42.0342 26.0625C41.6625 26.0749 40.7211 26.0873 40.0769 26.0873C39.4204 26.0873 38.4914 26.0749 38.1197 26.0625C37.5871 26.0501 37.4632 25.9386 37.4632 25.2202C37.4632 24.5141 37.5871 24.3778 38.1197 24.3778H39.5319C39.6434 24.3778 39.6805 24.353 39.6805 24.1796V23.1019C39.6805 22.8542 39.631 22.7674 39.2098 22.7674C38.8382 22.7674 38.7391 22.817 38.7267 23.0895L38.7019 23.5355C38.6896 23.7337 38.6772 23.7461 38.4418 23.7708C38.1941 23.7956 37.265 23.8204 36.8934 23.8204C36.5218 23.8204 35.4936 23.7956 35.2335 23.7708C35.0229 23.7461 34.9857 23.7089 34.9857 23.3992C34.9857 23.0771 35.0972 22.272 35.1839 21.8508C35.3697 21.0084 35.667 20.8722 36.5713 20.7731C37.2154 20.6988 38.4666 20.6492 39.2098 20.6492ZM39.2098 26.7562C39.7796 26.7562 40.3742 26.781 40.5724 26.7934C40.7706 26.8057 40.9317 26.8801 40.9441 27.1526C40.9564 27.4994 40.9564 27.772 40.9564 28.0817C40.9564 28.3913 40.9564 28.6639 40.9441 29.0107C40.9317 29.2832 40.7706 29.3576 40.5724 29.3699C40.3742 29.3823 39.7796 29.4071 39.2098 29.4071C38.64 29.4071 38.0454 29.3823 37.8472 29.3699C37.649 29.3576 37.488 29.2832 37.4756 29.0107C37.4632 28.6639 37.4632 28.3913 37.4632 28.0817C37.4632 27.772 37.4632 27.4994 37.4756 27.1526C37.488 26.8801 37.649 26.8057 37.8472 26.7934C38.0454 26.781 38.64 26.7562 39.2098 26.7562Z" fill="white"/>
<defs>
<linearGradient id="paint0_linear_543_379" x1="10.9531" y1="9.70348" x2="38.1229" y2="44.636" gradientUnits="userSpaceOnUse">
<stop stop-color="#9747FF"/>
<stop offset="1" stop-color="#5E44A7"/>
</linearGradient>
</defs>
</svg>
