<svg width="52" height="52" viewBox="0 0 52 52" fill="none" xmlns="http://www.w3.org/2000/svg">
<circle cx="25.7135" cy="25.7142" r="25.7142" fill="url(#paint0_linear_543_376)"/>
<path d="M15.4513 21.2308C15.4637 21.4785 15.4637 21.9369 15.4637 22.1846C15.4637 22.4324 15.4637 22.8907 15.4513 23.1385C15.4389 23.4481 15.2655 23.5844 14.9558 23.5844C14.5718 23.5844 13.6923 23.5596 13.1844 23.5596V25.0709C13.1844 26.545 13.1844 27.9076 13.1472 28.911C13.1348 29.2207 13.011 29.3322 12.7508 29.3569C12.5031 29.3817 11.8713 29.4065 11.252 29.4065C10.6326 29.4065 10.0008 29.3817 9.75307 29.3569C9.49294 29.3322 9.36906 29.2207 9.35668 28.911C9.31951 27.9076 9.31951 26.545 9.31951 25.0709V23.5596C8.81163 23.5596 7.93212 23.5844 7.54811 23.5844C7.23843 23.5844 7.065 23.4481 7.05262 23.1385C7.04023 22.8907 7.04023 22.4324 7.04023 22.1846C7.04023 21.9369 7.04023 21.4785 7.05262 21.2308C7.065 20.9211 7.23843 20.8096 7.48618 20.7849C7.83302 20.7477 9.87695 20.7353 11.252 20.7353C12.6146 20.7353 14.6709 20.7601 15.0177 20.7849C15.2655 20.8096 15.4389 20.9211 15.4513 21.2308ZM23.029 20.7353C23.6484 20.7353 24.2677 20.7601 24.5155 20.7849C24.7756 20.8096 24.8995 20.9211 24.9119 21.2308C24.949 22.2713 24.9614 24.4515 24.9614 25.7398C24.9614 28.8119 24.4412 29.4932 20.6258 29.4932C16.8848 29.4932 16.2902 28.8862 16.2902 25.7398C16.2902 24.4515 16.3026 22.2713 16.3398 21.2308C16.3522 20.9211 16.4761 20.8096 16.7362 20.7849C16.9839 20.7601 17.6033 20.7353 18.2227 20.7353C18.8544 20.7353 19.4614 20.7601 19.7092 20.7849C19.9693 20.8096 20.0808 20.9211 20.0808 21.2308V26.9166C20.0808 27.2015 20.1303 27.2387 20.6258 27.2387C21.1213 27.2387 21.1709 27.2015 21.1709 26.9166V21.2308C21.1709 20.9211 21.2824 20.8096 21.5425 20.7849C21.7903 20.7601 22.3972 20.7353 23.029 20.7353ZM33.6443 26.0867L34.8088 28.5765C34.9326 28.8491 34.945 28.9729 34.945 29.072C34.945 29.1464 34.9326 29.2083 34.8831 29.2578C34.8211 29.3198 34.722 29.3569 34.5362 29.3693C34.1894 29.3941 33.6319 29.4065 33.1488 29.4065C32.6657 29.4065 32.1331 29.4065 31.7491 29.3693C31.2783 29.3198 31.1421 29.2083 30.981 28.7623L30.2626 26.7432H29.829V28.8986C29.829 29.2083 29.7051 29.3198 29.445 29.3446C29.1973 29.3693 28.6274 29.3941 27.9957 29.3941C27.3887 29.3941 26.8436 29.3693 26.5959 29.3446C26.3358 29.3198 26.2119 29.2083 26.1995 28.8986C26.1623 27.8952 26.1623 26.5326 26.1623 25.0585C26.1623 23.6092 26.1623 22.2342 26.1995 21.2308C26.2119 20.9211 26.3358 20.8096 26.5959 20.7849C27.1657 20.7353 28.9867 20.7229 30.3741 20.7229C31.3279 20.7229 32.4056 20.7477 33.1117 20.8096C34.5734 20.9335 34.8335 21.4414 34.8335 23.5596C34.8335 25.4549 34.5982 25.8761 33.6443 26.0867ZM31.0801 24.2905C31.1173 24.1418 31.1297 23.9436 31.1297 23.7207C31.1297 23.4977 31.1173 23.2995 31.0801 23.1508C31.043 22.9527 31.0058 22.9031 30.82 22.9031H29.9405C29.8538 22.9031 29.8166 22.9774 29.8166 23.1508V24.2905C29.8166 24.4763 29.8538 24.5382 29.9405 24.5382H30.82C31.0058 24.5382 31.043 24.4887 31.0801 24.2905ZM44.5224 21.2308C44.5596 22.2342 44.5596 23.6092 44.5596 25.0833C44.5596 26.5326 44.5596 27.92 44.5224 28.9234C44.51 29.2331 44.4233 29.3446 44.2003 29.3693C43.9774 29.3941 43.3704 29.4189 42.8501 29.4189C42.4042 29.4189 42.0945 29.4065 41.8839 29.3817C41.2769 29.3198 41.153 29.2455 40.8681 28.7747L39.2206 26.0991V28.911C39.2206 29.2207 39.1339 29.3322 38.8985 29.3569C38.6756 29.3817 38.0314 29.4065 37.5979 29.4065C37.0652 29.4065 36.4706 29.3817 36.26 29.3569C36.037 29.3322 35.9379 29.2207 35.9256 28.911C35.8884 27.9076 35.8884 26.545 35.8884 25.0709C35.8884 23.6216 35.8884 22.2342 35.9256 21.2308C35.9379 20.9211 36.0618 20.8096 36.322 20.7849C36.5697 20.7601 37.2386 20.7353 37.635 20.7353C37.9571 20.7353 38.3535 20.7477 38.5021 20.7601C39.1091 20.822 39.233 20.9087 39.5179 21.3794L41.2274 24.1542V21.2308C41.2274 20.9211 41.3141 20.8096 41.5494 20.7849C41.7724 20.7601 42.4166 20.7353 42.8501 20.7353C43.3828 20.7353 43.9774 20.7601 44.188 20.7849C44.4109 20.8096 44.51 20.9211 44.5224 21.2308Z" fill="white"/>
<defs>
<linearGradient id="paint0_linear_543_376" x1="10.6731" y1="9.70348" x2="37.8428" y2="44.636" gradientUnits="userSpaceOnUse">
<stop stop-color="#797DE3"/>
<stop offset="1" stop-color="#32358A"/>
</linearGradient>
</defs>
</svg>
