<svg width="38" height="40" viewBox="0 0 38 40" fill="none" xmlns="http://www.w3.org/2000/svg">
<path d="M8.68047 35.3469C6.00078 35.3469 4.66094 34.4719 4.66094 32.7219C4.66094 31.65 4.98906 30.507 5.64531 29.293C6.30156 28.0789 7.24766 26.9359 8.48359 25.8641C9.73047 24.7812 11.2344 23.9008 12.9953 23.2227C14.7672 22.5445 16.7687 22.2055 19 22.2055C21.2203 22.2055 23.2109 22.5445 24.9719 23.2227C26.7438 23.9008 28.2477 24.7812 29.4836 25.8641C30.7305 26.9359 31.682 28.0789 32.3383 29.293C32.9945 30.507 33.3227 31.65 33.3227 32.7219C33.3227 34.4719 31.9828 35.3469 29.3031 35.3469H8.68047ZM7.90937 32.8695H30.0906C30.2984 32.8695 30.4461 32.8367 30.5336 32.7711C30.632 32.7055 30.6813 32.5852 30.6813 32.4102C30.6813 31.732 30.4242 30.9555 29.9102 30.0805C29.407 29.2055 28.6578 28.3578 27.6625 27.5375C26.6672 26.7172 25.4422 26.0391 23.9875 25.5031C22.5438 24.9562 20.8813 24.6828 19 24.6828C17.1187 24.6828 15.4508 24.9562 13.9961 25.5031C12.5414 26.0391 11.3164 26.7172 10.3211 27.5375C9.32578 28.3578 8.57109 29.2055 8.05703 30.0805C7.55391 30.9555 7.30234 31.732 7.30234 32.4102C7.30234 32.5852 7.34609 32.7055 7.43359 32.7711C7.53203 32.8367 7.69062 32.8695 7.90937 32.8695ZM19 20.1547C17.6984 20.1547 16.5117 19.8102 15.4398 19.1211C14.368 18.432 13.5094 17.5078 12.8641 16.3484C12.2297 15.1781 11.9125 13.893 11.9125 12.493C11.9125 11.1039 12.2297 9.84062 12.8641 8.70312C13.5094 7.56562 14.368 6.65781 15.4398 5.97969C16.5117 5.30156 17.6984 4.9625 19 4.9625C20.3125 4.9625 21.5047 5.29609 22.5766 5.96328C23.6484 6.63047 24.5016 7.53281 25.1359 8.67031C25.7703 9.79687 26.0875 11.0602 26.0875 12.4602C26.0875 13.8711 25.7648 15.1617 25.1195 16.332C24.4852 17.4914 23.632 18.4211 22.5602 19.1211C21.4883 19.8102 20.3016 20.1547 19 20.1547ZM19 17.6773C19.8094 17.6773 20.5477 17.4477 21.2148 16.9883C21.893 16.518 22.4344 15.8891 22.8391 15.1016C23.2438 14.3031 23.4461 13.4227 23.4461 12.4602C23.4461 11.5086 23.2438 10.6555 22.8391 9.90078C22.4453 9.13515 21.9094 8.53359 21.2313 8.09609C20.5641 7.65859 19.8203 7.43984 19 7.43984C18.1906 7.43984 17.4469 7.66406 16.7687 8.1125C16.1016 8.55 15.5656 9.15156 15.1609 9.91719C14.7562 10.6828 14.5539 11.5414 14.5539 12.493C14.5539 13.4555 14.7562 14.3305 15.1609 15.118C15.5766 15.9055 16.118 16.5289 16.7852 16.9883C17.4633 17.4477 18.2016 17.6773 19 17.6773Z" fill="#F5F5F5"/>
<path d="M18.7202 21.6191C17.4839 21.6191 16.3237 21.3848 15.2397 20.916C14.1558 20.4531 13.2036 19.8115 12.3833 18.9912C11.563 18.165 10.9185 17.2129 10.4497 16.1348C9.98682 15.0508 9.75537 13.8906 9.75537 12.6543C9.75537 11.418 9.98682 10.2578 10.4497 9.17383C10.9185 8.08984 11.563 7.1377 12.3833 6.31738C13.2036 5.49707 14.1558 4.85547 15.2397 4.39258C16.3237 3.92383 17.4839 3.68945 18.7202 3.68945C19.9565 3.68945 21.1167 3.92383 22.2007 4.39258C23.2847 4.85547 24.2368 5.49707 25.0571 6.31738C25.8774 7.1377 26.519 8.08984 26.9819 9.17383C27.4507 10.2578 27.6851 11.418 27.6851 12.6543C27.6851 13.8906 27.4507 15.0508 26.9819 16.1348C26.519 17.2129 25.8774 18.165 25.0571 18.9912C24.2368 19.8115 23.2847 20.4531 22.2007 20.916C21.1167 21.3848 19.9565 21.6191 18.7202 21.6191ZM14.4312 12.6631C14.4312 12.8857 14.5044 13.0674 14.6509 13.208C14.7974 13.3428 14.9849 13.4102 15.2134 13.4102H17.9644V16.1699C17.9644 16.3984 18.0317 16.5859 18.1665 16.7324C18.3071 16.873 18.4888 16.9434 18.7114 16.9434C18.9399 16.9434 19.1245 16.873 19.2651 16.7324C19.4116 16.5859 19.4849 16.3984 19.4849 16.1699V13.4102H22.2446C22.4673 13.4102 22.6519 13.3428 22.7983 13.208C22.9448 13.0674 23.0181 12.8857 23.0181 12.6631C23.0181 12.4346 22.9448 12.25 22.7983 12.1094C22.6577 11.9629 22.4731 11.8896 22.2446 11.8896H19.4849V9.13867C19.4849 8.91016 19.4116 8.72266 19.2651 8.57617C19.1245 8.42969 18.9399 8.35645 18.7114 8.35645C18.4888 8.35645 18.3071 8.42969 18.1665 8.57617C18.0317 8.72266 17.9644 8.91016 17.9644 9.13867V11.8896H15.2134C14.9849 11.8896 14.7974 11.9629 14.6509 12.1094C14.5044 12.25 14.4312 12.4346 14.4312 12.6631Z" fill="#F5F5F5"/>
</svg>
