<svg width="16" height="16" viewBox="0 0 16 16" fill="none" xmlns="http://www.w3.org/2000/svg">
<g clip-path="url(#clip0_97_4139)">
<path d="M5.42969 3.13574C5.42969 2.66178 5.54362 2.23112 5.77148 1.84375C6.00391 1.45182 6.3138 1.13965 6.70117 0.907227C7.08854 0.674805 7.51921 0.558594 7.99316 0.558594C8.47168 0.558594 8.90462 0.674805 9.29199 0.907227C9.67936 1.13965 9.98698 1.45182 10.2148 1.84375C10.4473 2.23112 10.5635 2.66178 10.5635 3.13574C10.5635 3.53678 10.4792 3.9082 10.3105 4.25C10.1419 4.5918 9.91178 4.88346 9.62012 5.125C9.32845 5.36654 8.99805 5.53288 8.62891 5.62402V9.95117C8.62891 10.457 8.6084 10.9036 8.56738 11.291C8.52637 11.6784 8.47396 12.0042 8.41016 12.2686C8.35091 12.5329 8.28255 12.7334 8.20508 12.8701C8.13216 13.0023 8.06152 13.0684 7.99316 13.0684C7.9248 13.0684 7.85417 13.0023 7.78125 12.8701C7.70833 12.7334 7.63997 12.5329 7.57617 12.2686C7.51237 12.0042 7.45996 11.6784 7.41895 11.291C7.37793 10.9036 7.35742 10.457 7.35742 9.95117V5.62402C6.98828 5.53288 6.65788 5.36654 6.36621 5.125C6.07454 4.88346 5.8444 4.5918 5.67578 4.25C5.51172 3.9082 5.42969 3.53678 5.42969 3.13574ZM7.26172 3.27246C7.50326 3.27246 7.71061 3.18587 7.88379 3.0127C8.05697 2.83496 8.14355 2.6276 8.14355 2.39062C8.14355 2.15365 8.05697 1.94857 7.88379 1.77539C7.71061 1.60221 7.50326 1.51562 7.26172 1.51562C7.0293 1.51562 6.82422 1.60221 6.64648 1.77539C6.47331 1.94857 6.38672 2.15365 6.38672 2.39062C6.38672 2.6276 6.47331 2.83496 6.64648 3.0127C6.82422 3.18587 7.0293 3.27246 7.26172 3.27246ZM8 15.5703C6.97005 15.5703 6.05176 15.4883 5.24512 15.3242C4.44303 15.1647 3.764 14.946 3.20801 14.668C2.65202 14.3945 2.22819 14.0824 1.93652 13.7314C1.64941 13.3851 1.50586 13.0228 1.50586 12.6445C1.50586 12.2845 1.6084 11.9541 1.81348 11.6533C2.01855 11.348 2.29199 11.0768 2.63379 10.8398C2.97559 10.6029 3.35384 10.4023 3.76855 10.2383C4.18783 10.0697 4.61165 9.94206 5.04004 9.85547C5.47298 9.76432 5.8763 9.71875 6.25 9.71875V10.7168C5.92188 10.7214 5.56413 10.7692 5.17676 10.8604C4.78939 10.9469 4.42253 11.0677 4.07617 11.2227C3.72982 11.3776 3.44499 11.5622 3.22168 11.7764C3.00293 11.9906 2.89355 12.2253 2.89355 12.4805C2.89355 12.7767 3.01888 13.0479 3.26953 13.2939C3.52474 13.54 3.88021 13.752 4.33594 13.9297C4.79622 14.1074 5.33626 14.2441 5.95605 14.3398C6.5804 14.4401 7.26172 14.4902 8 14.4902C8.73372 14.4902 9.41048 14.4401 10.0303 14.3398C10.6546 14.2441 11.1947 14.1051 11.6504 13.9229C12.1107 13.7451 12.4684 13.5332 12.7236 13.2871C12.9788 13.0456 13.1064 12.7767 13.1064 12.4805C13.1064 12.2253 12.9948 11.9906 12.7715 11.7764C12.5482 11.5622 12.2633 11.3776 11.917 11.2227C11.5706 11.0677 11.2038 10.9469 10.8164 10.8604C10.4336 10.7692 10.0758 10.7214 9.74316 10.7168V9.71875C10.1214 9.71875 10.5247 9.76432 10.9531 9.85547C11.3861 9.94206 11.8099 10.0697 12.2246 10.2383C12.6439 10.4023 13.0244 10.6029 13.3662 10.8398C13.708 11.0768 13.9792 11.348 14.1797 11.6533C14.3848 11.9541 14.4873 12.2845 14.4873 12.6445C14.4873 13.0228 14.3438 13.3851 14.0566 13.7314C13.7695 14.0824 13.348 14.3945 12.792 14.668C12.236 14.946 11.5547 15.1647 10.748 15.3242C9.94596 15.4883 9.02995 15.5703 8 15.5703Z" fill="#F5F5F5"/>
</g>
<defs>
<clipPath id="clip0_97_4139">
<rect width="16" height="16" fill="white"/>
</clipPath>
</defs>
</svg>
