<svg width="12" height="12" viewBox="0 0 12 12" fill="none" xmlns="http://www.w3.org/2000/svg">
<g clip-path="url(#clip0_769_5759)">
<path d="M5.99997 1V2M2.46497 2.465L3.16997 3.17M9.99997 6H11M9.53497 2.465L8.82997 3.17M7.97347 6.325C8.035 5.95225 7.9897 5.56969 7.84281 5.22162C7.69592 4.87355 7.45345 4.57421 7.14347 4.35824C6.83349 4.14227 6.46868 4.01852 6.09128 4.00131C5.71387 3.9841 5.33931 4.07414 5.01097 4.261" stroke="white" stroke-width="0.8" stroke-linecap="round" stroke-linejoin="round"/>
<path d="M5.90005 11L6.06166 10.2825C6.19876 9.67396 6.67399 9.19871 7.28257 9.06162L8.00005 8.9L7.28257 8.73838C6.67399 8.60129 6.19876 8.12606 6.06166 7.51748L5.90005 6.8L5.73844 7.51748C5.60134 8.12606 5.12611 8.60129 4.51753 8.73838L3.80005 8.9L4.51753 9.06162C5.12608 9.19871 5.60134 9.67396 5.73844 10.2825L5.90005 11Z" fill="white" stroke="white" stroke-width="0.5" stroke-linejoin="round"/>
<path d="M2.5 8.5L2.61544 7.98751C2.71336 7.55284 3.05283 7.21336 3.48751 7.11544L4 7L3.48751 6.88456C3.05283 6.78664 2.71336 6.44719 2.61544 6.01249L2.5 5.5L2.38456 6.01249C2.28664 6.44719 1.94718 6.78664 1.51248 6.88456L1 7L1.51248 7.11544C1.94718 7.21336 2.28664 7.55281 2.38456 7.98751L2.5 8.5Z" stroke="white" stroke-width="0.5" stroke-linejoin="round"/>
</g>
<defs>
<clipPath id="clip0_769_5759">
<rect width="12" height="12" fill="white"/>
</clipPath>
</defs>
</svg>
