<svg width="25" height="25" viewBox="0 0 25 25" fill="none" xmlns="http://www.w3.org/2000/svg">
<path d="M12.5 24.4922C10.8516 24.4922 9.30469 24.1797 7.85938 23.5547C6.41406 22.9375 5.14453 22.082 4.05078 20.9883C2.95703 19.8945 2.09766 18.625 1.47266 17.1797C0.855469 15.7344 0.546875 14.1875 0.546875 12.5391C0.546875 10.8906 0.855469 9.34375 1.47266 7.89844C2.09766 6.45312 2.95703 5.18359 4.05078 4.08984C5.14453 2.98828 6.41406 2.12891 7.85938 1.51172C9.30469 0.894531 10.8516 0.585938 12.5 0.585938C14.1484 0.585938 15.6953 0.894531 17.1406 1.51172C18.5859 2.12891 19.8555 2.98828 20.9492 4.08984C22.043 5.18359 22.8984 6.45312 23.5156 7.89844C24.1406 9.34375 24.4531 10.8906 24.4531 12.5391C24.4531 14.1875 24.1406 15.7344 23.5156 17.1797C22.8984 18.625 22.043 19.8945 20.9492 20.9883C19.8555 22.082 18.5859 22.9375 17.1406 23.5547C15.6953 24.1797 14.1484 24.4922 12.5 24.4922ZM12.5 22.5C13.875 22.5 15.1641 22.2422 16.3672 21.7266C17.5703 21.2109 18.6289 20.4961 19.543 19.582C20.457 18.668 21.1719 17.6094 21.6875 16.4062C22.2031 15.2031 22.4609 13.9141 22.4609 12.5391C22.4609 11.1641 22.2031 9.875 21.6875 8.67188C21.1719 7.46094 20.457 6.40234 19.543 5.49609C18.6289 4.58203 17.5703 3.86719 16.3672 3.35156C15.1641 2.83594 13.875 2.57812 12.5 2.57812C11.125 2.57812 9.83594 2.83594 8.63281 3.35156C7.42969 3.86719 6.37109 4.58203 5.45703 5.49609C4.54297 6.40234 3.82812 7.46094 3.3125 8.67188C2.79688 9.875 2.53906 11.1641 2.53906 12.5391C2.53906 13.9141 2.79688 15.2031 3.3125 16.4062C3.82812 17.6094 4.54297 18.668 5.45703 19.582C6.37109 20.4961 7.42969 21.2109 8.63281 21.7266C9.83594 22.2422 11.125 22.5 12.5 22.5ZM18.4062 12.5273C18.4062 12.6445 18.3828 12.7578 18.3359 12.8672C18.2891 12.9766 18.207 13.0898 18.0898 13.207L14.3633 17.0742C14.2773 17.1602 14.1836 17.2266 14.082 17.2734C13.9883 17.3203 13.8789 17.3438 13.7539 17.3438C13.5117 17.3438 13.3125 17.2656 13.1562 17.1094C13 16.9531 12.9219 16.75 12.9219 16.5C12.9219 16.2344 13.0156 16.0195 13.2031 15.8555L15.1133 14.0742L15.8398 13.3828L14.082 13.4531H7.48438C7.24219 13.4531 7.03125 13.3633 6.85156 13.1836C6.67188 12.9961 6.58203 12.7773 6.58203 12.5273C6.58203 12.2773 6.67188 12.0586 6.85156 11.8711C7.03125 11.6836 7.24219 11.5898 7.48438 11.5898H14.082L15.8281 11.6719L15.1133 10.9805L13.2031 9.19922C13.0156 9.03516 12.9219 8.82422 12.9219 8.56641C12.9219 8.32422 13 8.12109 13.1562 7.95703C13.3125 7.79297 13.5117 7.71094 13.7539 7.71094C13.8789 7.71094 13.9883 7.73438 14.082 7.78125C14.1836 7.82812 14.2773 7.89453 14.3633 7.98047L18.0898 11.8477C18.207 11.9648 18.2891 12.0781 18.3359 12.1875C18.3828 12.2969 18.4062 12.4102 18.4062 12.5273Z" fill="#FBFBFB"/>
</svg>
