<svg width="12" height="12" viewBox="0 0 12 12" fill="none" xmlns="http://www.w3.org/2000/svg">
<path d="M8.5 5.5H9C9.39782 5.5 9.77936 5.65804 10.0607 5.93934C10.342 6.22064 10.5 6.60218 10.5 7C10.5 7.39782 10.342 7.77936 10.0607 8.06066C9.77936 8.34196 9.39782 8.5 9 8.5H8.5M4.5 6V9M6.5 6V9M2.5 4V10C2.5 10.2652 2.60536 10.5196 2.79289 10.7071C2.98043 10.8946 3.23478 11 3.5 11H7.5C7.76522 11 8.01957 10.8946 8.20711 10.7071C8.39464 10.5196 8.5 10.2652 8.5 10V4M7 3.75C6.5 3.75 6.28 4 5.5 4C4.72 4 4.5 3.75 4 3.75C3.5 3.75 3.14 4 2.75 4C2.41848 4 2.10054 3.8683 1.86612 3.63388C1.6317 3.39946 1.5 3.08152 1.5 2.75C1.5 2.41848 1.6317 2.10054 1.86612 1.86612C2.10054 1.6317 2.41848 1.5 2.75 1.5C3.14 1.5 3.535 1.75 4 1.75C4.465 1.75 4.72 1 5.5 1C6.28 1 6.5 1.75 7 1.75C7.5 1.75 7.86 1.5 8.25 1.5C8.58152 1.5 8.89946 1.6317 9.13388 1.86612C9.3683 2.10054 9.5 2.41848 9.5 2.75C9.5 3.08152 9.3683 3.39946 9.13388 3.63388C8.89946 3.8683 8.58152 4 8.25 4C7.86 4 7.5 3.75 7 3.75Z" stroke="white" stroke-width="0.8" stroke-linecap="round" stroke-linejoin="round"/>
</svg>
