<svg width="20" height="21" viewBox="0 0 20 21" fill="none" xmlns="http://www.w3.org/2000/svg">
<path d="M6.85907 1.38693C5.93356 1.38693 5.14398 1.81923 4.53787 2.43129C4.20733 2.30353 3.89388 2.12972 3.51655 2.12972C1.88242 2.12972 0.54541 3.46673 0.54541 5.10085C0.54541 5.86369 0.855894 6.54557 1.33499 7.07368C1.30494 7.15557 1.28911 7.24198 1.28819 7.3292V16.9854C1.28819 18.2073 2.29467 19.2137 3.51655 19.2137H12.43C13.6518 19.2137 14.6583 18.2073 14.6583 16.9854V15.4998H15.4011C16.623 15.4998 17.6294 14.4934 17.6294 13.2715V10.3003C17.6294 9.07846 16.623 8.07199 15.4011 8.07199H14.6583V7.18956C14.6641 7.13574 14.6641 7.08145 14.6583 7.02763C15.1114 6.50545 15.4011 5.84066 15.4011 5.10085C15.4011 3.46673 14.0641 2.12972 12.43 2.12972C11.8758 2.12972 11.3856 2.3273 10.9444 2.59396C10.5032 2.32655 10.0129 2.12972 9.45882 2.12972C9.26718 2.12972 9.11714 2.18765 8.94778 2.22256C8.37138 1.73827 7.67242 1.38693 6.85907 1.38693ZM6.85907 2.8725C7.40428 2.8725 7.88337 3.1191 8.22877 3.49941L8.55336 3.84703L9.0176 3.70813C9.18399 3.65317 9.31769 3.61528 9.45882 3.61528C9.83912 3.61528 10.1867 3.76607 10.4571 4.0097L10.9444 4.45092L11.4317 4.0097C11.7037 3.75853 12.0597 3.61788 12.43 3.61528C13.2596 3.61528 13.9155 4.27116 13.9155 5.10085C13.9155 5.93054 13.2596 6.58642 12.43 6.58642C11.6055 6.58642 10.4103 6.23805 10.4103 6.23805L9.45882 5.95951V6.95781C9.45882 7.99919 9.68165 8.79471 9.877 9.39488C10.0709 9.9958 10.2016 10.3783 10.2016 10.6717C10.2016 11.2957 9.71136 11.7859 9.08742 11.7859C8.46349 11.7859 7.97325 11.2957 7.97325 10.6717C7.97325 10.3783 8.10398 9.97277 8.29859 9.37186C8.49245 8.77095 8.71603 7.99399 8.71603 6.95781V5.63491L7.60186 6.3309C7.60186 6.3309 7.46816 6.39775 7.30029 6.47054C7.15968 6.53055 7.01102 6.56959 6.85907 6.58642C6.39498 6.58611 5.94776 6.41231 5.60525 6.09915L5.07193 5.61189L4.58467 6.12218C4.381 6.33768 4.11724 6.48699 3.82765 6.55071C3.53806 6.61443 3.23599 6.58962 2.96068 6.47951C2.68536 6.3694 2.4495 6.17907 2.28371 5.93322C2.11792 5.68738 2.02987 5.39737 2.03098 5.10085C2.03098 4.27116 2.68686 3.61528 3.51655 3.61528C3.81812 3.61528 4.09072 3.71704 4.32915 3.8708L4.93229 4.24219L5.35048 3.66134C5.51899 3.41724 5.74441 3.21785 6.00725 3.08041C6.2701 2.94297 6.56246 2.87161 6.85907 2.8725ZM5.14101 7.5149C5.64908 7.83132 6.21805 8.07199 6.85907 8.07199C6.93707 8.07199 6.97198 8.03485 7.04477 8.02519C6.98386 8.31265 6.98683 8.68107 6.90513 8.93139C6.72834 9.47659 6.48768 9.99877 6.48768 10.6717C6.48768 12.0994 7.65979 13.2715 9.08742 13.2715C10.5151 13.2715 11.6872 12.0994 11.6872 10.6717C11.6872 9.99877 11.4465 9.47362 11.269 8.93064C11.1739 8.63502 11.1472 8.21757 11.0833 7.86326C11.5594 7.9732 11.7741 8.07199 12.43 8.07199C12.6855 8.07199 12.935 8.01702 13.1727 7.95611V8.58302C13.1293 8.72664 13.1293 8.87988 13.1727 9.02349V14.6174C13.1523 14.7171 13.1523 14.82 13.1727 14.9197V16.9854C13.1727 17.4058 12.8504 17.7282 12.43 17.7282H3.51655C3.09613 17.7282 2.77376 17.4058 2.77376 16.9854V7.95611C3.01145 8.01702 3.26103 8.07199 3.51655 8.07199C4.1286 8.07199 4.66712 7.8343 5.14101 7.5149ZM14.6583 9.55755H15.4011C15.8215 9.55755 16.1439 9.87992 16.1439 10.3003V13.2715C16.1439 13.6919 15.8215 14.0143 15.4011 14.0143H14.6583V9.55755Z" fill="#FAFAFA"/>
</svg>
