<svg width="12" height="12" viewBox="0 0 12 12" fill="none" xmlns="http://www.w3.org/2000/svg">
<path d="M5.09399 4.25C5.26032 3.60582 5.63606 3.03521 6.16211 2.62791C6.68817 2.2206 7.33469 1.99972 7.99999 2C7.60217 2.39783 7.37867 2.93739 7.37867 3.5C7.37867 3.77858 7.43354 4.05442 7.54015 4.31179C7.64676 4.56916 7.80301 4.80302 7.99999 5C8.19698 5.19698 8.43083 5.35324 8.6882 5.45984C8.94557 5.56645 9.22142 5.62132 9.49999 5.62132C10.0626 5.62132 10.6022 5.39782 11 5C11.0001 5.52668 10.8615 6.0441 10.5982 6.50024C10.3349 6.95638 9.95611 7.33516 9.49999 7.5985" stroke="white" stroke-width="0.8" stroke-linecap="round" stroke-linejoin="round"/>
<path d="M5.90005 11L6.06166 10.2825C6.19876 9.67396 6.67399 9.19871 7.28257 9.06162L8.00005 8.9L7.28257 8.73838C6.67399 8.60129 6.19876 8.12606 6.06166 7.51748L5.90005 6.8L5.73844 7.51748C5.60134 8.12606 5.12611 8.60129 4.51753 8.73838L3.80005 8.9L4.51753 9.06162C5.12608 9.19871 5.60134 9.67396 5.73844 10.2825L5.90005 11Z" stroke="white" stroke-width="0.5" stroke-linejoin="round"/>
<path d="M2.5 8L2.61544 7.48751C2.71336 7.05284 3.05283 6.71336 3.48751 6.61544L4 6.5L3.48751 6.38456C3.05283 6.28664 2.71336 5.94719 2.61544 5.51249L2.5 5L2.38456 5.51249C2.28664 5.94719 1.94718 6.28664 1.51248 6.38456L1 6.5L1.51248 6.61544C1.94718 6.71336 2.28664 7.05281 2.38456 7.48751L2.5 8Z" fill="white" stroke="white" stroke-width="0.5" stroke-linejoin="round"/>
</svg>
