<svg width="24" height="25" viewBox="0 0 24 25" fill="none" xmlns="http://www.w3.org/2000/svg">
<path d="M0.9375 18.9844C0.9375 18.5938 1.05078 18.2148 1.27734 17.8477C1.50391 17.4805 1.78516 17.1211 2.12109 16.7695C2.46484 16.418 2.80469 16.0664 3.14062 15.7148C3.39844 15.4492 3.59766 15.1016 3.73828 14.6719C3.88672 14.2422 3.99609 13.7852 4.06641 13.3008C4.13672 12.8164 4.1875 12.3477 4.21875 11.8945C4.24219 10.3555 4.40234 9.00391 4.69922 7.83984C4.99609 6.66797 5.46094 5.69141 6.09375 4.91016C6.73438 4.12891 7.57422 3.55078 8.61328 3.17578C8.80859 2.41016 9.20312 1.76172 9.79688 1.23047C10.3984 0.699219 11.1289 0.433594 11.9883 0.433594C12.8555 0.433594 13.5859 0.699219 14.1797 1.23047C14.7812 1.76172 15.1797 2.41016 15.375 3.17578C16.4141 3.55078 17.25 4.12891 17.8828 4.91016C18.5156 5.69141 18.9805 6.66797 19.2773 7.83984C19.582 9.00391 19.7461 10.3555 19.7695 11.8945C19.8008 12.3477 19.8516 12.8164 19.9219 13.3008C19.9922 13.7852 20.0977 14.2422 20.2383 14.6719C20.3867 15.1016 20.5898 15.4492 20.8477 15.7148C21.1836 16.0664 21.5195 16.418 21.8555 16.7695C22.1992 17.1211 22.4844 17.4805 22.7109 17.8477C22.9375 18.2148 23.0508 18.5938 23.0508 18.9844C23.0508 19.4141 22.8945 19.7578 22.582 20.0156C22.2695 20.2734 21.8359 20.4023 21.2812 20.4023H16.3359C16.3047 21.1602 16.0977 21.8594 15.7148 22.5C15.3398 23.1484 14.832 23.668 14.1914 24.0586C13.5508 24.4492 12.8164 24.6445 11.9883 24.6445C11.168 24.6445 10.4375 24.4453 9.79688 24.0469C9.15625 23.6562 8.64453 23.1406 8.26172 22.5C7.88672 21.8594 7.68359 21.1602 7.65234 20.4023H2.70703C2.15234 20.4023 1.71875 20.2734 1.40625 20.0156C1.09375 19.7578 0.9375 19.4141 0.9375 18.9844ZM3.21094 18.6328H20.7656V18.4922C20.6953 18.3828 20.5781 18.2383 20.4141 18.0586C20.2578 17.8711 20.0742 17.668 19.8633 17.4492C19.6602 17.2305 19.4531 17.0078 19.2422 16.7812C19.0312 16.5469 18.8477 16.2773 18.6914 15.9727C18.5352 15.6602 18.4023 15.3086 18.293 14.918C18.1914 14.5273 18.1055 14.0938 18.0352 13.6172C17.9727 13.1406 17.9297 12.6172 17.9062 12.0469C17.875 10.3438 17.6953 8.99219 17.3672 7.99219C17.0469 6.99219 16.6172 6.25 16.0781 5.76562C15.5469 5.27344 14.9453 4.93359 14.2734 4.74609C14.1328 4.71484 14.0195 4.66016 13.9336 4.58203C13.8555 4.49609 13.8164 4.37891 13.8164 4.23047C13.793 3.62109 13.6172 3.125 13.2891 2.74219C12.9688 2.35156 12.5352 2.15625 11.9883 2.15625C11.4492 2.15625 11.0156 2.35156 10.6875 2.74219C10.3672 3.125 10.1953 3.62109 10.1719 4.23047C10.1641 4.37891 10.1211 4.49609 10.043 4.58203C9.96484 4.66016 9.85156 4.71484 9.70312 4.74609C9.03125 4.93359 8.42578 5.27344 7.88672 5.76562C7.35547 6.25 6.92969 6.99219 6.60938 7.99219C6.28906 8.99219 6.11328 10.3438 6.08203 12.0469C6.05078 12.6172 6.00391 13.1406 5.94141 13.6172C5.87891 14.0938 5.79297 14.5273 5.68359 14.918C5.57422 15.3086 5.44141 15.6602 5.28516 15.9727C5.12891 16.2773 4.94531 16.5469 4.73438 16.7812C4.53125 17.0078 4.32422 17.2305 4.11328 17.4492C3.91016 17.668 3.72656 17.8711 3.5625 18.0586C3.39844 18.2383 3.28125 18.3828 3.21094 18.4922V18.6328ZM9.48047 20.4023C9.51953 21.1992 9.76953 21.8281 10.2305 22.2891C10.6992 22.7578 11.2852 22.9922 11.9883 22.9922C12.6992 22.9922 13.2852 22.7578 13.7461 22.2891C14.207 21.8281 14.4609 21.1992 14.5078 20.4023H9.48047Z" fill="#F5F5F5"/>
</svg>
