<svg width="18" height="28" viewBox="0 0 18 28" fill="none" xmlns="http://www.w3.org/2000/svg">
<path d="M6.29297 26.5547C6.10547 26.8047 5.89453 26.957 5.66016 27.0117C5.43359 27.0664 5.22656 27.043 5.03906 26.9414C4.85156 26.8477 4.71875 26.6914 4.64062 26.4727C4.57031 26.2539 4.59375 25.9922 4.71094 25.6875L8.20312 16.582H1.58203C1.33203 16.582 1.12891 16.5078 0.972656 16.3594C0.816406 16.2031 0.738281 16.0117 0.738281 15.7852C0.738281 15.543 0.839844 15.293 1.04297 15.0352L11.6953 1.34766C11.8828 1.09766 12.0898 0.945313 12.3164 0.890625C12.5508 0.828125 12.7617 0.847656 12.9492 0.949219C13.1367 1.04297 13.2656 1.20313 13.3359 1.42969C13.4141 1.64844 13.3945 1.90625 13.2773 2.20312L9.78516 11.3203H16.4062C16.6562 11.3203 16.8594 11.3945 17.0156 11.543C17.1719 11.6914 17.25 11.8789 17.25 12.1055C17.25 12.3477 17.1484 12.5977 16.9453 12.8555L6.29297 26.5547ZM6.98438 23.4023L6.65625 23.2266L14.3086 13.0664H7.07812L10.9922 4.5L11.3203 4.67578L3.66797 14.8359H10.9102L6.98438 23.4023Z" fill="#FBFBFB"/>
</svg>
