<svg width="24" height="21" viewBox="0 0 24 21" fill="none" xmlns="http://www.w3.org/2000/svg">
<path d="M4.32959 20.7461C3.15413 20.7461 2.27067 20.4541 1.6792 19.8701C1.09521 19.2936 0.803223 18.4251 0.803223 17.2646V3.55225C0.803223 2.39176 1.09521 1.52327 1.6792 0.946777C2.27067 0.362793 3.15413 0.0708008 4.32959 0.0708008H19.6704C20.8459 0.0708008 21.7256 0.362793 22.3096 0.946777C22.8936 1.52327 23.1855 2.39176 23.1855 3.55225V17.2646C23.1855 18.4251 22.8936 19.2936 22.3096 19.8701C21.7256 20.4541 20.8459 20.7461 19.6704 20.7461H4.32959ZM4.16113 18.938H19.8164C20.318 18.938 20.7036 18.8032 20.9731 18.5337C21.2427 18.2716 21.3774 17.8823 21.3774 17.3657V6.77539C21.3774 6.25879 21.2427 5.86947 20.9731 5.60742C20.7036 5.33789 20.318 5.20312 19.8164 5.20312H4.16113C3.66699 5.20312 3.28516 5.33789 3.01562 5.60742C2.74609 5.86947 2.61133 6.25879 2.61133 6.77539V17.3657C2.61133 17.8823 2.74609 18.2716 3.01562 18.5337C3.28516 18.8032 3.66699 18.938 4.16113 18.938ZM9.81006 9.24609C9.6154 9.24609 9.47689 9.20866 9.39453 9.13379C9.31966 9.05892 9.28223 8.92415 9.28223 8.72949V8.06689C9.28223 7.87223 9.31966 7.74121 9.39453 7.67383C9.47689 7.59896 9.6154 7.56152 9.81006 7.56152H10.4727C10.6673 7.56152 10.8021 7.59896 10.877 7.67383C10.9593 7.74121 11.0005 7.87223 11.0005 8.06689V8.72949C11.0005 8.92415 10.9593 9.05892 10.877 9.13379C10.8021 9.20866 10.6673 9.24609 10.4727 9.24609H9.81006ZM13.5386 9.24609C13.3439 9.24609 13.2091 9.20866 13.1343 9.13379C13.0594 9.05892 13.022 8.92415 13.022 8.72949V8.06689C13.022 7.87223 13.0594 7.74121 13.1343 7.67383C13.2091 7.59896 13.3439 7.56152 13.5386 7.56152H14.2012C14.4033 7.56152 14.5418 7.59896 14.6167 7.67383C14.6916 7.74121 14.729 7.87223 14.729 8.06689V8.72949C14.729 8.92415 14.6916 9.05892 14.6167 9.13379C14.5418 9.20866 14.4033 9.24609 14.2012 9.24609H13.5386ZM17.2783 9.24609C17.0762 9.24609 16.9377 9.20866 16.8628 9.13379C16.7879 9.05892 16.7505 8.92415 16.7505 8.72949V8.06689C16.7505 7.87223 16.7879 7.74121 16.8628 7.67383C16.9377 7.59896 17.0762 7.56152 17.2783 7.56152H17.9297C18.1318 7.56152 18.2703 7.59896 18.3452 7.67383C18.4201 7.74121 18.4575 7.87223 18.4575 8.06689V8.72949C18.4575 8.92415 18.4201 9.05892 18.3452 9.13379C18.2703 9.20866 18.1318 9.24609 17.9297 9.24609H17.2783ZM6.08154 12.9185C5.87939 12.9185 5.74089 12.881 5.66602 12.8062C5.59115 12.7313 5.55371 12.5965 5.55371 12.4019V11.7505C5.55371 11.5483 5.59115 11.4136 5.66602 11.3462C5.74089 11.2713 5.87939 11.2339 6.08154 11.2339H6.74414C6.9388 11.2339 7.07357 11.2713 7.14844 11.3462C7.22331 11.4136 7.26074 11.5483 7.26074 11.7505V12.4019C7.26074 12.5965 7.22331 12.7313 7.14844 12.8062C7.07357 12.881 6.9388 12.9185 6.74414 12.9185H6.08154ZM9.81006 12.9185C9.6154 12.9185 9.47689 12.881 9.39453 12.8062C9.31966 12.7313 9.28223 12.5965 9.28223 12.4019V11.7505C9.28223 11.5483 9.31966 11.4136 9.39453 11.3462C9.47689 11.2713 9.6154 11.2339 9.81006 11.2339H10.4727C10.6673 11.2339 10.8021 11.2713 10.877 11.3462C10.9593 11.4136 11.0005 11.5483 11.0005 11.7505V12.4019C11.0005 12.5965 10.9593 12.7313 10.877 12.8062C10.8021 12.881 10.6673 12.9185 10.4727 12.9185H9.81006ZM13.5386 12.9185C13.3439 12.9185 13.2091 12.881 13.1343 12.8062C13.0594 12.7313 13.022 12.5965 13.022 12.4019V11.7505C13.022 11.5483 13.0594 11.4136 13.1343 11.3462C13.2091 11.2713 13.3439 11.2339 13.5386 11.2339H14.2012C14.4033 11.2339 14.5418 11.2713 14.6167 11.3462C14.6916 11.4136 14.729 11.5483 14.729 11.7505V12.4019C14.729 12.5965 14.6916 12.7313 14.6167 12.8062C14.5418 12.881 14.4033 12.9185 14.2012 12.9185H13.5386ZM17.2783 12.9185C17.0762 12.9185 16.9377 12.881 16.8628 12.8062C16.7879 12.7313 16.7505 12.5965 16.7505 12.4019V11.7505C16.7505 11.5483 16.7879 11.4136 16.8628 11.3462C16.9377 11.2713 17.0762 11.2339 17.2783 11.2339H17.9297C18.1318 11.2339 18.2703 11.2713 18.3452 11.3462C18.4201 11.4136 18.4575 11.5483 18.4575 11.7505V12.4019C18.4575 12.5965 18.4201 12.7313 18.3452 12.8062C18.2703 12.881 18.1318 12.9185 17.9297 12.9185H17.2783ZM6.08154 16.5908C5.87939 16.5908 5.74089 16.5571 5.66602 16.4897C5.59115 16.4149 5.55371 16.2764 5.55371 16.0742V15.4229C5.55371 15.2207 5.59115 15.0859 5.66602 15.0186C5.74089 14.9437 5.87939 14.9062 6.08154 14.9062H6.74414C6.9388 14.9062 7.07357 14.9437 7.14844 15.0186C7.22331 15.0859 7.26074 15.2207 7.26074 15.4229V16.0742C7.26074 16.2764 7.22331 16.4149 7.14844 16.4897C7.07357 16.5571 6.9388 16.5908 6.74414 16.5908H6.08154ZM9.81006 16.5908C9.6154 16.5908 9.47689 16.5571 9.39453 16.4897C9.31966 16.4149 9.28223 16.2764 9.28223 16.0742V15.4229C9.28223 15.2207 9.31966 15.0859 9.39453 15.0186C9.47689 14.9437 9.6154 14.9062 9.81006 14.9062H10.4727C10.6673 14.9062 10.8021 14.9437 10.877 15.0186C10.9593 15.0859 11.0005 15.2207 11.0005 15.4229V16.0742C11.0005 16.2764 10.9593 16.4149 10.877 16.4897C10.8021 16.5571 10.6673 16.5908 10.4727 16.5908H9.81006ZM13.5386 16.5908C13.3439 16.5908 13.2091 16.5571 13.1343 16.4897C13.0594 16.4149 13.022 16.2764 13.022 16.0742V15.4229C13.022 15.2207 13.0594 15.0859 13.1343 15.0186C13.2091 14.9437 13.3439 14.9062 13.5386 14.9062H14.2012C14.4033 14.9062 14.5418 14.9437 14.6167 15.0186C14.6916 15.0859 14.729 15.2207 14.729 15.4229V16.0742C14.729 16.2764 14.6916 16.4149 14.6167 16.4897C14.5418 16.5571 14.4033 16.5908 14.2012 16.5908H13.5386Z" fill="#F5F5F5"/>
</svg>
