<svg width="13" height="14" viewBox="0 0 13 14" fill="none" xmlns="http://www.w3.org/2000/svg">
<path d="M4.96191 13.1792C4.67383 13.1792 4.41992 13.0376 4.2002 12.7544L0.398926 7.91309C0.325684 7.8252 0.271973 7.7373 0.237793 7.64941C0.203613 7.55664 0.186523 7.46631 0.186523 7.37842C0.186523 7.17822 0.252441 7.01465 0.384277 6.8877C0.516113 6.75586 0.68457 6.68994 0.889648 6.68994C1.13379 6.68994 1.34375 6.80957 1.51953 7.04883L4.93262 11.5166L11.5098 1.03564C11.5977 0.898926 11.688 0.803711 11.7808 0.75C11.8735 0.691406 11.9932 0.662109 12.1396 0.662109C12.3398 0.662109 12.501 0.723145 12.623 0.845215C12.7451 0.967285 12.8062 1.12842 12.8062 1.32861C12.8062 1.4165 12.7915 1.50439 12.7622 1.59229C12.7329 1.67529 12.6865 1.76807 12.623 1.87061L5.70166 12.769C5.521 13.0425 5.27441 13.1792 4.96191 13.1792Z" fill="#FBFBFB"/>
</svg>
