<svg width="12" height="12" viewBox="0 0 12 12" fill="none" xmlns="http://www.w3.org/2000/svg">
<path d="M10.1476 6.44953L9.94765 6.44927V6.44953H10.1476ZM9.64296 7.95573C9.59994 8.05747 9.64754 8.17481 9.74928 8.21783C9.85102 8.26084 9.96836 8.21324 10.0114 8.1115L9.64296 7.95573ZM7.6263 10.4508C7.72865 10.4093 7.77796 10.2926 7.73642 10.1903C7.69489 10.0879 7.57824 10.0386 7.47589 10.0802L7.6263 10.4508ZM5.94769 10.577L5.94795 10.377H5.94769V10.577ZM1.94774 6.44953C1.94774 6.33908 1.8582 6.24953 1.74774 6.24953C1.63728 6.24953 1.54774 6.33908 1.54774 6.44953H1.94774ZM4.21268 2.4716C4.11091 2.51454 4.06321 2.63185 4.10615 2.73362C4.14908 2.83539 4.26639 2.88308 4.36816 2.84015L4.21268 2.4716ZM5.94769 2.32209L5.94745 2.52209L5.94795 2.52209L5.94769 2.32209ZM7.5511 2.63357L7.6263 2.44825L7.6263 2.44825L7.5511 2.63357ZM8.91097 3.52462L8.77104 3.66752L8.77128 3.66776L8.91097 3.52462ZM9.82717 4.86545L9.64296 4.94334L9.64296 4.94334L9.82717 4.86545ZM7.62746 2.66566L7.70647 2.48193C7.63053 2.44928 7.54234 2.4667 7.48453 2.52577C7.42672 2.58484 7.41119 2.67339 7.44547 2.7486L7.62746 2.66566ZM9.69592 7.82316C9.65663 7.92639 9.70846 8.04193 9.8117 8.08122C9.91493 8.12051 10.0305 8.06868 10.0698 7.96544L9.69592 7.82316ZM3.47191 6.93194C3.46194 6.82193 3.36467 6.74084 3.25467 6.75082C3.14466 6.76079 3.06357 6.85805 3.07354 6.96806L3.47191 6.93194ZM3.94607 10.2658C4.00084 10.3617 4.123 10.3951 4.21892 10.3403C4.31484 10.2855 4.3482 10.1634 4.29342 10.0674L3.94607 10.2658ZM2.16232 7.87261C2.06253 7.82524 1.94324 7.86774 1.89588 7.96752C1.84851 8.06731 1.89101 8.1866 1.99079 8.23397L2.16232 7.87261ZM7.64234 9.33189C7.75253 9.32416 7.83558 9.22857 7.82785 9.11838C7.82011 9.00819 7.72452 8.92514 7.61433 8.93288L7.64234 9.33189ZM3.07316 4.6475L3.24482 4.54486C3.19785 4.46631 3.10357 4.42966 3.01588 4.45587C2.9282 4.48208 2.86949 4.56446 2.87334 4.6559L3.07316 4.6475ZM4.24386 5.27472L4.34387 5.44792C4.42357 5.4019 4.46157 5.30743 4.43595 5.21904C4.41033 5.13065 4.3277 5.07115 4.23575 5.07488L4.24386 5.27472ZM3.60562 6.42521L3.43396 6.52784C3.48093 6.60639 3.57521 6.64304 3.6629 6.61683C3.75058 6.59062 3.80929 6.50824 3.80544 6.41681L3.60562 6.42521ZM2.43492 5.79799L2.33491 5.62479C2.25521 5.67081 2.21721 5.76527 2.24283 5.85366C2.26845 5.94206 2.35108 6.00155 2.44303 5.99782L2.43492 5.79799ZM3.80764 5.52661L3.90766 5.69981L3.90766 5.69981L3.80764 5.52661ZM3.64962 5.63466L3.79946 5.76712L3.64962 5.63466ZM3.58474 5.92842L3.78456 5.92002L3.78456 5.92002L3.58474 5.92842ZM3.59154 5.73935L3.78332 5.7961L3.59154 5.73935ZM3.32948 5.07618L3.15782 5.17882L3.15782 5.17882L3.32948 5.07618ZM3.43942 5.23148L3.56929 5.07937L3.56929 5.07937L3.43942 5.23148ZM3.73834 5.29524L3.74646 5.49508L3.74646 5.49508L3.73834 5.29524ZM3.54596 5.28855L3.49101 5.48086L3.49101 5.48086L3.54596 5.28855ZM2.87114 5.54609L2.97115 5.71929L2.97115 5.71929L2.87114 5.54609ZM3.02916 5.43805L2.87932 5.30558L3.02916 5.43805ZM3.09404 5.14428L2.89422 5.15268L2.89422 5.15268L3.09404 5.14428ZM3.08724 5.33335L3.27902 5.39009L3.08724 5.33335ZM3.3493 5.99652L3.52096 5.89389L3.52096 5.89389L3.3493 5.99652ZM3.23936 5.84123L3.36922 5.68912L3.36922 5.68912L3.23936 5.84123ZM2.94044 5.77746L2.93232 5.57763L2.93232 5.57763L2.94044 5.77746ZM3.13282 5.78415L3.18777 5.59185L3.13282 5.78415ZM3.09786 2L3.29739 2.01368C3.30366 1.92237 3.24714 1.83846 3.16016 1.80995C3.07319 1.78144 2.97797 1.81561 2.92895 1.8929L3.09786 2ZM4.17179 4.06164L4.15857 4.26121C4.25039 4.26729 4.33451 4.20993 4.36239 4.12223C4.39027 4.03454 4.35471 3.93914 4.27623 3.89108L4.17179 4.06164ZM2.07393 5.11703L1.8744 5.10335C1.86813 5.19466 1.92465 5.27857 2.01163 5.30708C2.0986 5.33559 2.19382 5.30142 2.24283 5.22413L2.07393 5.11703ZM1 3.05538L1.01322 2.85582C0.921396 2.84974 0.837277 2.9071 0.809399 2.99479C0.781521 3.08249 0.817079 3.17789 0.895555 3.22595L1 3.05538ZM3.27954 4.00255L3.26633 4.20212L3.26633 4.20212L3.27954 4.00255ZM2.93929 4.00568L2.88929 3.81204L2.93929 4.00568ZM2.54686 4.37115L2.71577 4.47825L2.71577 4.47825L2.54686 4.37115ZM2.74839 4.10172L2.62251 3.9463L2.62251 3.9463L2.74839 4.10172ZM3.03774 2.87684L3.23727 2.89053L3.03774 2.87684ZM3.04092 3.21122L2.84771 3.26288L3.04092 3.21122ZM3.41281 3.59687L3.51725 3.42631L3.51725 3.42631L3.41281 3.59687ZM3.13865 3.39882L3.29189 3.27031L3.29189 3.27031L3.13865 3.39882ZM1.89225 3.11447L1.87903 3.31404L1.89225 3.11447ZM2.23249 3.11134L2.2825 3.30499L2.2825 3.30499L2.23249 3.11134ZM2.62493 2.74588L2.45602 2.63878L2.45602 2.63878L2.62493 2.74588ZM2.4234 3.01531L2.54928 3.17072L2.54928 3.17072L2.4234 3.01531ZM2.13405 4.24018L2.33358 4.25387L2.33358 4.25387L2.13405 4.24018ZM2.13087 3.90581L2.32408 3.85415L2.32408 3.85415L2.13087 3.90581ZM1.75898 3.52015L1.65454 3.69072L1.65454 3.69072L1.75898 3.52015ZM2.03314 3.7182L1.8799 3.84672L2.03314 3.7182ZM9.1282 7.94481L9.30801 7.85724C9.26795 7.77499 9.17719 7.7304 9.0876 7.74897C8.99802 7.76755 8.93245 7.84454 8.9284 7.93594L9.1282 7.94481ZM11 9.16052L11.0851 9.3415C11.1684 9.30232 11.2142 9.21135 11.1961 9.1211C11.1779 9.03085 11.1005 8.96464 11.0086 8.9607L11 9.16052ZM9.76293 11L9.58312 11.0876C9.62318 11.1698 9.71395 11.2144 9.80354 11.1958C9.89312 11.1773 9.95868 11.1003 9.96274 11.0089L9.76293 11ZM7.89114 9.78429L7.80601 9.60331C7.72272 9.64249 7.67692 9.73346 7.69506 9.82371C7.7132 9.91396 7.7906 9.98017 7.88257 9.98411L7.89114 9.78429ZM10.2321 9.5217L10.3172 9.70268L10.3172 9.70268L10.2321 9.5217ZM9.95144 9.68071L10.0895 9.82541L10.0895 9.82541L9.95144 9.68071ZM9.80002 10.1641L9.60022 10.1553L9.60022 10.1553L9.80002 10.1641ZM9.83887 9.8481L10.0251 9.92112L10.0251 9.92112L9.83887 9.8481ZM9.49573 8.69948L9.31592 8.78705L9.31592 8.78705L9.49573 8.69948ZM9.65753 8.97526L9.79981 8.8347L9.79981 8.8347L9.65753 8.97526ZM10.1495 9.12407L10.1409 9.32389L10.1409 9.32389L10.1495 9.12407ZM9.82787 9.08589L9.8987 8.89886L9.8987 8.89886L9.82787 9.08589ZM8.65907 9.42311L8.74419 9.60409L8.74419 9.60409L8.65907 9.42311ZM8.93969 9.2641L9.07776 9.4088L9.07776 9.4088L8.93969 9.2641ZM9.09111 8.78067L9.29092 8.78953L9.29092 8.78953L9.09111 8.78067ZM9.05226 9.09671L8.86607 9.02369L9.05226 9.09671ZM9.3954 10.2453L9.21559 10.3329L9.21559 10.3329L9.3954 10.2453ZM9.2336 9.96955L9.09133 10.1101L9.09133 10.1101L9.2336 9.96955ZM8.74168 9.82074L8.73311 10.0206L8.73311 10.0206L8.74168 9.82074ZM9.06327 9.85892L9.1341 9.67188L9.06327 9.85892ZM9.94765 6.4498C9.94832 6.96653 9.84479 7.47835 9.64296 7.95573L10.0114 8.1115C10.2341 7.58481 10.3484 7.01984 10.3476 6.44927L9.94765 6.4498ZM7.47589 10.0802C6.99147 10.2768 6.47225 10.3776 5.94795 10.377L5.94744 10.777C6.52334 10.7777 7.09382 10.6669 7.6263 10.4508L7.47589 10.0802ZM5.94769 10.377C3.73522 10.377 1.94774 8.61539 1.94774 6.44953H1.54774C1.54774 8.84285 3.5209 10.777 5.94769 10.777V10.377ZM4.36816 2.84015C4.86698 2.6297 5.40439 2.52144 5.94745 2.52209L5.94794 2.12209C5.35145 2.12137 4.76099 2.24027 4.21268 2.4716L4.36816 2.84015ZM5.94795 2.52209C6.47225 2.52143 6.99147 2.62231 7.47589 2.8189L7.6263 2.44825C7.09382 2.23216 6.52334 2.12136 5.94744 2.12209L5.94795 2.52209ZM7.47589 2.8189C7.96031 3.01548 8.40034 3.30386 8.77091 3.66739L9.05103 3.38185C8.64296 2.98153 8.15879 2.66434 7.6263 2.44825L7.47589 2.8189ZM8.77128 3.66776C9.14491 4.03238 9.44111 4.46595 9.64296 4.94334L10.0114 4.78757C9.78869 4.26088 9.4621 3.78301 9.05066 3.38149L8.77128 3.66776ZM9.64296 4.94334C9.84479 5.42072 9.94832 5.93254 9.94765 6.44927L10.3476 6.4498C10.3484 5.87923 10.2341 5.31426 10.0114 4.78757L9.64296 4.94334ZM7.54846 2.8494C8.0043 3.0454 8.41899 3.32279 8.77104 3.66752L9.0509 3.38172C8.6633 3.00219 8.20722 2.69724 7.70647 2.48193L7.54846 2.8494ZM9.94765 6.44953C9.94765 6.93287 9.85858 7.39578 9.69592 7.82316L10.0698 7.96544C10.2494 7.49346 10.3476 6.98238 10.3476 6.44953H9.94765ZM7.44547 2.7486C7.82483 3.58104 8.13451 4.51192 8.29742 5.35808C8.46221 6.21401 8.46946 6.94667 8.28243 7.40617L8.65292 7.55697C8.88588 6.98461 8.85802 6.15412 8.69021 5.28246C8.52051 4.40103 8.20008 3.43989 7.80946 2.58272L7.44547 2.7486ZM3.07354 6.96806C3.16356 7.96086 3.24184 9.03258 3.94607 10.2658L4.29342 10.0674C3.63701 8.91795 3.56213 7.92702 3.47191 6.93194L3.07354 6.96806ZM5.02784 2.28221C4.7482 3.65625 3.96712 6.65707 5.03063 10.6287L5.41702 10.5252C4.38059 6.65473 5.13945 3.73956 5.4198 2.36198L5.02784 2.28221ZM6.17227 2.36198C6.45263 3.73956 7.21149 6.65473 6.17506 10.5252L6.56144 10.6287C7.62495 6.65707 6.84387 3.65625 6.56423 2.28221L6.17227 2.36198ZM4.94148 4.37497C6.76784 3.97611 8.39502 4.57203 9.70468 5.0327L9.83741 4.65536C8.54246 4.19986 6.80967 3.55755 4.85614 3.98418L4.94148 4.37497ZM1.99079 8.23397C2.83397 8.6342 3.50667 8.96587 4.3392 9.16661C5.1744 9.36799 6.16044 9.43592 7.64234 9.33189L7.61433 8.93288C6.15626 9.03522 5.21457 8.96621 4.43296 8.77775C3.64867 8.58864 3.01547 8.27758 2.16232 7.87261L1.99079 8.23397ZM1.73772 7.17321C3.12666 7.48748 6.03798 8.34083 10.1062 7.4114L10.0171 7.02144C6.04805 7.92823 3.21969 7.09842 1.826 6.78308L1.73772 7.17321ZM4.72073 5.82154C6.09055 5.59254 8.43182 5.82208 10.0392 6.2843L10.1498 5.89988C8.5036 5.42651 6.09993 5.18542 4.65477 5.42701L4.72073 5.82154ZM3.77728 6.32257L3.52096 5.89389L3.17765 6.09916L3.43396 6.52784L3.77728 6.32257ZM2.93232 5.57763L2.42681 5.59815L2.44303 5.99782L2.94855 5.9773L2.93232 5.57763ZM2.53493 5.97118L2.97115 5.71929L2.77112 5.3729L2.33491 5.62479L2.53493 5.97118ZM3.29387 5.13589L3.27298 4.6391L2.87334 4.6559L2.89422 5.15268L3.29387 5.13589ZM2.9015 4.75013L3.15782 5.17882L3.50113 4.97355L3.24482 4.54486L2.9015 4.75013ZM3.74646 5.49508L4.25197 5.47455L4.23575 5.07488L3.73023 5.0954L3.74646 5.49508ZM4.14385 5.10152L3.70763 5.35341L3.90766 5.69981L4.34387 5.44792L4.14385 5.10152ZM3.38491 5.93682L3.4058 6.43361L3.80544 6.41681L3.78456 5.92002L3.38491 5.93682ZM3.70763 5.35341C3.63474 5.3955 3.55688 5.4376 3.49978 5.50219L3.79946 5.76712C3.80305 5.76307 3.81031 5.75602 3.90766 5.69981L3.70763 5.35341ZM3.78456 5.92002C3.78242 5.86914 3.78129 5.83997 3.78173 5.81792C3.78212 5.79825 3.78376 5.79462 3.78332 5.7961L3.39976 5.68261C3.37516 5.76576 3.38144 5.85414 3.38491 5.93682L3.78456 5.92002ZM3.49978 5.50219C3.45373 5.55428 3.41952 5.61581 3.39976 5.68261L3.78332 5.7961C3.78641 5.78566 3.79184 5.77575 3.79946 5.76712L3.49978 5.50219ZM3.15782 5.17882C3.20066 5.25047 3.24376 5.3274 3.30956 5.38358L3.56929 5.07937C3.56524 5.07592 3.55832 5.06919 3.50113 4.97355L3.15782 5.17882ZM3.73023 5.0954C3.61777 5.09997 3.60704 5.098 3.60091 5.09625L3.49101 5.48086C3.57373 5.50449 3.66163 5.49852 3.74646 5.49508L3.73023 5.0954ZM3.30956 5.38358C3.36239 5.42868 3.42432 5.4618 3.49101 5.48086L3.60091 5.09625C3.589 5.09285 3.57824 5.08702 3.56929 5.07937L3.30956 5.38358ZM2.97115 5.71929C3.04404 5.6772 3.1219 5.6351 3.179 5.57051L2.87932 5.30558C2.87573 5.30963 2.86847 5.31668 2.77112 5.3729L2.97115 5.71929ZM2.89422 5.15268C2.89636 5.20356 2.8975 5.23273 2.89705 5.25479C2.89666 5.27445 2.89502 5.27808 2.89546 5.27661L3.27902 5.39009C3.30362 5.30694 3.29734 5.21856 3.29387 5.13589L2.89422 5.15268ZM3.179 5.57051C3.22505 5.51842 3.25926 5.45689 3.27902 5.39009L2.89546 5.27661C2.89237 5.28704 2.88694 5.29696 2.87932 5.30558L3.179 5.57051ZM3.52096 5.89389C3.47812 5.82223 3.43502 5.7453 3.36922 5.68912L3.10949 5.99333C3.11354 5.99679 3.12046 6.00351 3.17765 6.09916L3.52096 5.89389ZM2.94855 5.9773C3.06101 5.97273 3.07175 5.9747 3.07787 5.97645L3.18777 5.59185C3.10506 5.56821 3.01715 5.57418 2.93232 5.57763L2.94855 5.9773ZM3.36922 5.68912C3.31639 5.64402 3.25446 5.6109 3.18777 5.59185L3.07787 5.97645C3.08978 5.97986 3.10054 5.98569 3.10949 5.99333L3.36922 5.68912ZM2.27346 5.13071L2.33358 4.25387L1.93452 4.2265L1.8744 5.10335L2.27346 5.13071ZM1.86343 3.34959L1.10444 2.88482L0.895555 3.22595L1.65454 3.69072L1.86343 3.34959ZM0.986784 3.25495L1.87903 3.31404L1.90546 2.91491L1.01322 2.85582L0.986784 3.25495ZM2.79384 2.85298L3.26677 2.1071L2.92895 1.8929L2.45602 2.63878L2.79384 2.85298ZM2.89833 1.98632L2.83821 2.86316L3.23727 2.89053L3.29739 2.01368L2.89833 1.98632ZM3.30836 3.76744L4.06734 4.2322L4.27623 3.89108L3.51725 3.42631L3.30836 3.76744ZM4.18501 3.86208L3.29276 3.80299L3.26633 4.20212L4.15857 4.26121L4.18501 3.86208ZM2.37795 4.26405L1.90502 5.00993L2.24283 5.22413L2.71577 4.47825L2.37795 4.26405ZM3.29276 3.80299C3.13244 3.79238 3.00693 3.78166 2.88929 3.81204L2.9893 4.19933C3.02983 4.18886 3.07843 4.18967 3.26633 4.20212L3.29276 3.80299ZM2.71577 4.47825C2.81553 4.32091 2.84269 4.28272 2.87427 4.25714L2.62251 3.9463C2.52789 4.02294 2.46276 4.1303 2.37795 4.26405L2.71577 4.47825ZM2.88929 3.81204C2.79177 3.83722 2.70072 3.88296 2.62251 3.9463L2.87427 4.25714C2.90769 4.23007 2.94691 4.21028 2.9893 4.19933L2.88929 3.81204ZM2.83821 2.86316C2.82745 3.02001 2.81628 3.14536 2.84771 3.26288L3.23413 3.15955C3.22399 3.12163 3.22456 3.07588 3.23727 2.89053L2.83821 2.86316ZM3.51725 3.42631C3.3571 3.32824 3.31792 3.30134 3.29189 3.27031L2.9854 3.52734C3.06339 3.62033 3.17231 3.68413 3.30836 3.76744L3.51725 3.42631ZM2.84771 3.26288C2.87369 3.36003 2.92074 3.45024 2.9854 3.52734L3.29189 3.27031C3.26455 3.23771 3.24492 3.19989 3.23413 3.15955L2.84771 3.26288ZM1.87903 3.31404C2.03935 3.32465 2.16486 3.33537 2.2825 3.30499L2.18249 2.9177C2.14195 2.92816 2.09336 2.92735 1.90546 2.91491L1.87903 3.31404ZM2.45602 2.63878C2.35626 2.79612 2.3291 2.83431 2.29752 2.85989L2.54928 3.17072C2.6439 3.09409 2.70903 2.98673 2.79384 2.85298L2.45602 2.63878ZM2.2825 3.30499C2.38002 3.27981 2.47107 3.23407 2.54928 3.17072L2.29752 2.85989C2.2641 2.88696 2.22488 2.90675 2.18249 2.9177L2.2825 3.30499ZM2.33358 4.25387C2.34434 4.09702 2.35551 3.97167 2.32408 3.85415L1.93766 3.95748C1.9478 3.9954 1.94723 4.04115 1.93452 4.2265L2.33358 4.25387ZM1.65454 3.69072C1.81469 3.78879 1.85387 3.81569 1.8799 3.84672L2.18639 3.58969C2.1084 3.4967 1.99948 3.4329 1.86343 3.34959L1.65454 3.69072ZM2.32408 3.85415C2.2981 3.757 2.25105 3.66679 2.18639 3.58969L1.8799 3.84672C1.90724 3.87932 1.92687 3.91713 1.93766 3.95748L2.32408 3.85415ZM9.94274 10.9124L9.57521 10.1578L9.21559 10.3329L9.58312 11.0876L9.94274 10.9124ZM8.75024 9.62092L7.8997 9.58447L7.88257 9.98411L8.73311 10.0206L8.75024 9.62092ZM7.97626 9.96527L8.74419 9.60409L8.57395 9.24213L7.80601 9.60331L7.97626 9.96527ZM9.29092 8.78953L9.32801 7.95368L8.9284 7.93594L8.89131 8.7718L9.29092 8.78953ZM8.94839 8.03238L9.31592 8.78705L9.67554 8.61191L9.30801 7.85724L8.94839 8.03238ZM10.1409 9.32389L10.9914 9.36034L11.0086 8.9607L10.158 8.92425L10.1409 9.32389ZM10.9149 8.97954L10.1469 9.34072L10.3172 9.70268L11.0851 9.3415L10.9149 8.97954ZM9.60022 10.1553L9.56313 10.9911L9.96274 11.0089L9.99983 10.173L9.60022 10.1553ZM10.1469 9.34072C10.0098 9.40521 9.89838 9.45491 9.81338 9.53601L10.0895 9.82541C10.1162 9.79993 10.1546 9.77915 10.3172 9.70268L10.1469 9.34072ZM9.99983 10.173C10.0077 9.99568 10.0121 9.9542 10.0251 9.92112L9.65268 9.77509C9.60966 9.88478 9.60682 10.0064 9.60022 10.1553L9.99983 10.173ZM9.81338 9.53601C9.74305 9.60311 9.68814 9.68464 9.65268 9.77509L10.0251 9.92112C10.0391 9.88528 10.061 9.85259 10.0895 9.82541L9.81338 9.53601ZM9.31592 8.78705C9.3815 8.92171 9.43242 9.03197 9.51526 9.11582L9.79981 8.8347C9.7742 8.80878 9.7534 8.77178 9.67554 8.61191L9.31592 8.78705ZM10.158 8.92425C9.9782 8.91655 9.93405 8.91225 9.8987 8.89886L9.75703 9.27293C9.86696 9.31456 9.98878 9.31737 10.1409 9.32389L10.158 8.92425ZM9.51526 9.11582C9.58356 9.18496 9.66609 9.23849 9.75703 9.27293L9.8987 8.89886C9.86114 8.88463 9.82744 8.86267 9.79981 8.8347L9.51526 9.11582ZM8.74419 9.60409C8.8813 9.5396 8.99276 9.4899 9.07776 9.4088L8.80163 9.1194C8.77492 9.14488 8.73653 9.16566 8.57395 9.24213L8.74419 9.60409ZM8.89131 8.7718C8.88344 8.94913 8.87904 8.99061 8.86607 9.02369L9.23846 9.16972C9.28147 9.06003 9.28431 8.93841 9.29092 8.78953L8.89131 8.7718ZM9.07776 9.4088C9.14809 9.3417 9.20299 9.26017 9.23846 9.16972L8.86607 9.02369C8.85201 9.05953 8.83011 9.09222 8.80163 9.1194L9.07776 9.4088ZM9.57521 10.1578C9.50964 10.0231 9.45872 9.91284 9.37588 9.82899L9.09133 10.1101C9.11694 10.136 9.13773 10.173 9.21559 10.3329L9.57521 10.1578ZM8.73311 10.0206C8.91293 10.0283 8.95708 10.0326 8.99244 10.046L9.1341 9.67188C9.02418 9.63025 8.90236 9.62744 8.75024 9.62092L8.73311 10.0206ZM9.37588 9.82899C9.30757 9.75985 9.22504 9.70632 9.1341 9.67188L8.99244 10.046C9.03 10.0602 9.0637 10.0821 9.09133 10.1101L9.37588 9.82899Z" fill="white"/>
</svg>
