<svg width="12" height="12" viewBox="0 0 12 12" fill="none" xmlns="http://www.w3.org/2000/svg">
<path d="M5.82259 4.03674C5.95306 3.85847 5.91431 3.60818 5.73604 3.47771C5.55777 3.34724 5.30748 3.38599 5.17701 3.56426L5.82259 4.03674ZM2.5028 7.8955L2.82556 8.13178L2.82559 8.13174L2.5028 7.8955ZM2.5528 8.5445L2.83582 8.26183L2.83556 8.26158L2.5528 8.5445ZM2.9613 8.9535L2.67828 9.23617L2.67861 9.2365L2.9613 8.9535ZM3.6183 8.997L3.37561 8.67904L3.37539 8.6792L3.6183 8.997ZM7.78749 6.31796C7.9631 6.18393 7.9968 5.93291 7.86276 5.75731C7.72873 5.5817 7.47771 5.548 7.30211 5.68204L7.78749 6.31796ZM8.02624 10.9187C8.20943 11.0422 8.45802 10.9938 8.58149 10.8106C8.70496 10.6274 8.65655 10.3788 8.47336 10.2553L8.02624 10.9187ZM3.01524 9.04924C3.1805 8.90264 3.19563 8.64982 3.04904 8.48456C2.90244 8.3193 2.64962 8.30417 2.48436 8.45076L3.01524 9.04924ZM10.1 3.5C10.1 4.66858 9.23396 5.6 8 5.6V6.4C9.69315 6.4 10.9 5.09284 10.9 3.5H10.1ZM8 5.6C6.76604 5.6 5.9 4.66858 5.9 3.5H5.1C5.1 5.09284 6.30685 6.4 8 6.4V5.6ZM5.9 3.5C5.9 2.33142 6.76604 1.4 8 1.4V0.6C6.30685 0.6 5.1 1.90716 5.1 3.5H5.9ZM8 1.4C9.23396 1.4 10.1 2.33142 10.1 3.5H10.9C10.9 1.90716 9.69315 0.6 8 0.6V1.4ZM5.17701 3.56426L2.18001 7.65926L2.82559 8.13174L5.82259 4.03674L5.17701 3.56426ZM2.18004 7.65923C2.05311 7.83262 1.9924 8.04572 2.00891 8.25998L2.80655 8.19853C2.80471 8.17472 2.81146 8.15104 2.82556 8.13178L2.18004 7.65923ZM2.00891 8.25998C2.02542 8.47424 2.11804 8.67552 2.27004 8.82743L2.83556 8.26158C2.81867 8.2447 2.80838 8.22233 2.80655 8.19853L2.00891 8.25998ZM2.26978 8.82717L2.67828 9.23617L3.24432 8.67083L2.83582 8.26183L2.26978 8.82717ZM2.67861 9.2365C2.83283 9.39054 3.03771 9.48339 3.2552 9.49779L3.30806 8.69954C3.28389 8.69794 3.26112 8.68762 3.24399 8.6705L2.67861 9.2365ZM3.2552 9.49779C3.4727 9.51219 3.68803 9.44717 3.86121 9.3148L3.37539 8.6792C3.35615 8.69391 3.33222 8.70114 3.30806 8.69954L3.2552 9.49779ZM3.86099 9.31496L7.78749 6.31796L7.30211 5.68204L3.37561 8.67904L3.86099 9.31496ZM8.47336 10.2553C7.9326 9.89083 7.2913 9.6 6.4998 9.6V10.4C7.0803 10.4 7.567 10.6092 8.02624 10.9187L8.47336 10.2553ZM6.4998 9.6C6.1668 9.6 5.85855 9.69516 5.58364 9.81423C5.31247 9.93169 5.04459 10.0862 4.80872 10.2168C4.29806 10.4994 3.92673 10.6675 3.56753 10.6058L3.43207 11.3942C4.10887 11.5105 4.72304 11.1786 5.19613 10.9167C5.45213 10.775 5.6757 10.6462 5.90161 10.5483C6.1238 10.4521 6.31831 10.4 6.4998 10.4V9.6ZM3.56753 10.6058C3.24432 10.5502 2.99009 10.2795 2.88108 9.90776C2.76768 9.52104 2.85607 9.19043 3.01524 9.04924L2.48436 8.45076C2.00603 8.87507 1.95142 9.58046 2.1134 10.1329C2.27976 10.7002 2.71928 11.2718 3.43207 11.3942L3.56753 10.6058ZM10.1 3.5C10.1 4.6598 9.1598 5.6 8 5.6V6.4C9.60163 6.4 10.9 5.10163 10.9 3.5H10.1ZM8 5.6C6.8402 5.6 5.9 4.6598 5.9 3.5H5.1C5.1 5.10163 6.39837 6.4 8 6.4V5.6ZM5.9 3.5C5.9 2.3402 6.8402 1.4 8 1.4V0.6C6.39837 0.6 5.1 1.89837 5.1 3.5H5.9ZM8 1.4C9.1598 1.4 10.1 2.3402 10.1 3.5H10.9C10.9 1.89837 9.60163 0.6 8 0.6V1.4Z" fill="white"/>
</svg>
