<svg width="21" height="18" viewBox="0 0 21 18" fill="none" xmlns="http://www.w3.org/2000/svg">
<path d="M17.4267 11.8783C17.8058 10.966 18.0003 9.98769 17.999 8.99982C18.0003 8.01196 17.8058 7.03363 17.4267 6.12138C17.0477 5.20913 16.4916 4.38103 15.7907 3.68495C15.0954 2.99094 14.2703 2.44075 13.3623 2.06582C12.4543 1.69088 11.4814 1.49855 10.499 1.49982C9.48156 1.49857 8.47453 1.70496 7.53958 2.10634M13.3623 15.9338C12.4543 16.3088 11.4814 16.5011 10.499 16.4998C6.35678 16.4998 2.99903 13.1421 2.99903 8.99982" stroke="#FAFAFA" stroke-width="1.0125" stroke-linecap="round" stroke-linejoin="round"/>
<path d="M10.4985 1.50013C9.48104 1.49888 8.47402 1.70526 7.53906 2.10665M13.4985 2.12413C14.3526 2.49783 15.1297 3.02722 15.7901 3.68525C16.4911 4.38134 17.0472 5.20943 17.4262 6.12168C17.8053 7.03394 17.9998 8.01226 17.9985 9.00013C17.9985 9.92338 17.8316 10.808 17.526 11.6251M10.4985 16.5001C11.4808 16.5014 12.4538 16.3091 13.3618 15.9341" stroke="#FAFAFA" stroke-width="1.0125" stroke-linecap="round" stroke-linejoin="round"/>
<path d="M13.499 2.25014C14.874 5.32033 15.749 9.00014 14.999 10.8751" stroke="#FAFAFA" stroke-width="0.84375"/>
<path d="M5.62415 9.37431C5.62415 12.3743 5.99915 13.4993 7.26514 15.8546" stroke="#FAFAFA" stroke-width="0.84375" stroke-linecap="round"/>
<path d="M9.20645 1.49982C8.70645 3.99982 7.33148 9.37482 9.20645 16.4998" stroke="#FAFAFA" stroke-width="0.84375"/>
<path d="M11.2501 1.49982C11.7501 3.99982 13.1251 9.37482 11.2501 16.4998" stroke="#FAFAFA" stroke-width="0.84375"/>
<path d="M8.62624 4.875C12.0012 4.125 15.0012 5.25 17.3268 6.08239" stroke="#FAFAFA" stroke-width="0.84375"/>
<path d="M3.5459 11.9204C6.57508 13.3836 8.25015 14.2498 13.5002 13.8748" stroke="#FAFAFA" stroke-width="0.84375" stroke-linecap="round"/>
<path d="M2.85184 9.95984C5.33635 10.5319 10.6694 12.0616 17.8456 10.3933" stroke="#FAFAFA" stroke-width="0.84375"/>
<path d="M8.24929 7.50017C10.7627 7.07262 14.9993 7.50021 17.9043 8.35024" stroke="#FAFAFA" stroke-width="0.84375"/>
<path d="M5.36612 5.72522L5.40341 6.62794C5.41069 6.80409 5.41433 6.89216 5.39126 6.97149C5.37086 7.04166 5.33547 7.10657 5.28755 7.16173C5.23336 7.2241 5.15736 7.26876 5.00536 7.35807L4.22639 7.81578L5.12911 7.77849C5.30526 7.77121 5.39334 7.76758 5.47266 7.79064C5.54283 7.81105 5.60774 7.84643 5.6629 7.89436C5.72527 7.94854 5.76993 8.02454 5.85924 8.17654L6.31695 8.95551L6.27966 8.05279C6.27239 7.87664 6.26875 7.78857 6.29181 7.70924C6.31222 7.63907 6.3476 7.57416 6.39553 7.519C6.44971 7.45663 6.52571 7.41198 6.67771 7.32266L7.45668 6.86495L6.55396 6.90224C6.37781 6.90952 6.28974 6.91316 6.21041 6.89009C6.14024 6.86969 6.07533 6.8343 6.02017 6.78637C5.9578 6.73219 5.91315 6.65619 5.82383 6.50419L5.36612 5.72522Z" stroke="#FAFAFA" stroke-width="0.378824" stroke-linecap="round" stroke-linejoin="round"/>
<path d="M5.41011 0.914483L4.56558 2.26982C4.40078 2.5343 4.31838 2.66653 4.2057 2.7594C4.10603 2.84155 3.98971 2.90109 3.86479 2.93392C3.72357 2.97103 3.56811 2.96055 3.2572 2.9396L1.66389 2.83223L3.01923 3.67676C3.2837 3.84156 3.41593 3.92396 3.5088 4.03664C3.59095 4.13632 3.65049 4.25263 3.68332 4.37755C3.72043 4.51878 3.70995 4.67423 3.689 4.98514L3.58163 6.57846L4.42617 5.22312C4.59096 4.95864 4.67336 4.82641 4.78605 4.73354C4.88572 4.65139 5.00203 4.59185 5.12695 4.55902C5.26818 4.52191 5.42363 4.53239 5.73454 4.55334L7.32786 4.66071L5.97252 3.81617C5.70805 3.65138 5.57581 3.56898 5.48294 3.4563C5.40079 3.35662 5.34125 3.24031 5.30843 3.11539C5.27131 2.97416 5.28179 2.81871 5.30274 2.5078L5.41011 0.914483Z" stroke="#FAFAFA" stroke-width="0.669578" stroke-linecap="round" stroke-linejoin="round"/>
<path d="M16.1786 11.7168L16.1124 13.2356C16.0995 13.532 16.093 13.6802 16.043 13.8099C15.9988 13.9246 15.9302 14.0284 15.842 14.1141C15.7423 14.2109 15.6085 14.2749 15.3409 14.403L13.9696 15.0593L15.4884 15.1256C15.7848 15.1385 15.933 15.1449 16.0627 15.1949C16.1774 15.2391 16.2812 15.3077 16.3668 15.396C16.4637 15.4957 16.5277 15.6295 16.6558 15.8971L17.3121 17.2684L17.3783 15.7496C17.3912 15.4532 17.3977 15.305 17.4477 15.1753C17.4919 15.0605 17.5605 14.9568 17.6487 14.8711C17.7485 14.7743 17.8823 14.7102 18.1498 14.5822L19.5212 13.9259L18.0023 13.8596C17.706 13.8467 17.5578 13.8402 17.428 13.7903C17.3133 13.746 17.2095 13.6775 17.1239 13.5892C17.027 13.4895 16.963 13.3557 16.8349 13.0881L16.1786 11.7168Z" stroke="#FAFAFA" stroke-width="0.63744" stroke-linecap="round" stroke-linejoin="round"/>
</svg>
