<svg width="25" height="36" viewBox="0 0 25 36" fill="none" xmlns="http://www.w3.org/2000/svg">
<path d="M-0.00156374 34.2492V4.09453C-0.00156374 3.08828 0.310155 2.2789 0.933593 1.6664C1.56797 1.0539 2.39922 0.747654 3.42734 0.747654H21.5727C22.6008 0.747654 23.4266 1.0539 24.05 1.6664C24.6844 2.2789 25.0016 3.08828 25.0016 4.09453V34.2492C25.0016 34.6102 24.8703 34.9164 24.6078 35.168C24.3563 35.4305 24.05 35.5617 23.6891 35.5617C23.3172 35.5617 23 35.4305 22.7375 35.168C22.4859 34.9164 22.3602 34.6102 22.3602 34.2492V4.25859C22.3602 3.6789 22.0813 3.38906 21.5234 3.38906H3.47656C2.91875 3.38906 2.63984 3.6789 2.63984 4.25859V34.2492C2.63984 34.6102 2.50859 34.9164 2.24609 35.168C1.99453 35.4305 1.68281 35.5617 1.31094 35.5617C0.949999 35.5617 0.63828 35.4305 0.37578 35.168C0.124218 34.9164 -0.00156374 34.6102 -0.00156374 34.2492ZM4.55937 34.6266V5.65312C4.55937 5.48906 4.61406 5.37422 4.72344 5.30859C4.84375 5.23203 4.98047 5.22656 5.13359 5.29219L10.3016 7.58906C10.4984 7.67656 10.6406 7.76953 10.7281 7.86797C10.8156 7.95547 10.8594 8.10312 10.8594 8.31094V31.9523C10.8594 32.1602 10.8156 32.3133 10.7281 32.4117C10.6406 32.5102 10.493 32.6031 10.2852 32.6906L5.13359 34.9711C4.98047 35.0367 4.84375 35.0313 4.72344 34.9547C4.61406 34.8891 4.55937 34.7797 4.55937 34.6266Z" fill="#F5F5F5"/>
</svg>
