<svg width="10" height="17" viewBox="0 0 10 17" fill="none" xmlns="http://www.w3.org/2000/svg">
<path d="M2.60462 16.5346C2.31216 16.5346 2.08237 16.4557 1.91525 16.2979C1.74813 16.1401 1.66689 15.9196 1.67154 15.6364L1.80384 7.81658C1.80384 7.69588 1.77831 7.59143 1.72724 7.50323C1.67618 7.41038 1.59494 7.34075 1.48353 7.29433C1.17714 7.1597 0.926461 7.01347 0.731488 6.85564C0.541157 6.69316 0.404212 6.48658 0.320652 6.2359C0.237092 5.98522 0.204597 5.65563 0.223166 5.24711L0.411175 0.971637C0.42046 0.818444 0.466882 0.700068 0.550442 0.616508C0.634001 0.532948 0.747736 0.491168 0.891644 0.491168C1.03091 0.491168 1.13768 0.535269 1.21196 0.623471C1.29087 0.707031 1.33033 0.827728 1.33033 0.985563L1.28159 5.14266C1.28159 5.40727 1.41157 5.53957 1.67154 5.53957C1.78759 5.53957 1.88276 5.50708 1.95703 5.44209C2.03595 5.37245 2.07541 5.27961 2.07541 5.16355L2.14504 0.860224C2.14504 0.711673 2.18682 0.595618 2.27038 0.512058C2.35394 0.428498 2.46535 0.386718 2.60462 0.386718C2.74853 0.386718 2.85994 0.428498 2.93886 0.512058C3.02242 0.595618 3.06652 0.711673 3.07116 0.860224L3.14079 5.16355C3.14079 5.27961 3.17793 5.37245 3.25221 5.44209C3.32648 5.50708 3.42397 5.53957 3.54467 5.53957C3.65608 5.53957 3.7466 5.50476 3.81624 5.43512C3.89051 5.36549 3.92765 5.268 3.92765 5.14266L3.87891 0.985563C3.87891 0.827728 3.91837 0.707031 3.99728 0.623471C4.0762 0.535269 4.18297 0.491168 4.3176 0.491168C4.62398 0.491168 4.78414 0.651324 4.79806 0.971637L4.99304 5.24711C5.00696 5.65563 4.97215 5.98522 4.88859 6.2359C4.80503 6.48658 4.66576 6.69316 4.47079 6.85564C4.28046 7.01347 4.0321 7.1597 3.72571 7.29433C3.61894 7.34075 3.5377 7.41038 3.482 7.50323C3.43093 7.59143 3.4054 7.69588 3.4054 7.81658L3.54467 15.6364C3.54467 15.9196 3.46111 16.1401 3.29399 16.2979C3.12687 16.4557 2.89708 16.5346 2.60462 16.5346ZM8.0569 10.4626C8.06154 10.3373 8.03368 10.2259 7.97334 10.1284C7.91763 10.0263 7.82943 9.9311 7.70873 9.8429L7.29093 9.56437C7.11917 9.44831 6.98919 9.30208 6.90099 9.12568C6.81278 8.94928 6.76868 8.74038 6.76868 8.49898V8.15778C6.76868 7.46145 6.81278 6.76512 6.90099 6.06878C6.98919 5.37245 7.11453 4.70165 7.277 4.05639C7.44412 3.40648 7.64142 2.80995 7.86889 2.26681C8.09635 1.71903 8.34935 1.24785 8.62789 0.85326C8.74394 0.690783 8.85071 0.572407 8.9482 0.498131C9.04569 0.423856 9.15942 0.386718 9.2894 0.386718C9.41938 0.386718 9.53544 0.430819 9.63757 0.519021C9.7397 0.602581 9.79076 0.732563 9.79076 0.908967V15.6782C9.79076 15.9567 9.70488 16.1679 9.53312 16.3118C9.36136 16.4604 9.12925 16.5346 8.83679 16.5346C8.54897 16.5346 8.31918 16.4534 8.14742 16.2909C7.97566 16.1331 7.89442 15.9033 7.9037 15.6016L8.0569 10.4626Z" fill="white"/>
</svg>
