<svg width="24" height="22" viewBox="0 0 24 22" fill="none" xmlns="http://www.w3.org/2000/svg">
<path d="M0.848145 7.71338C0.848145 6.71761 1.00537 5.80794 1.31982 4.98438C1.64176 4.15332 2.09098 3.43457 2.66748 2.82812C3.24398 2.22168 3.91781 1.75374 4.68896 1.42432C5.46761 1.09489 6.3099 0.930176 7.21582 0.930176C8.25651 0.930176 9.18864 1.15853 10.0122 1.61523C10.8358 2.07194 11.4984 2.67839 12 3.43457C12.5091 2.67839 13.1717 2.07194 13.9878 1.61523C14.8114 1.15853 15.7435 0.930176 16.7842 0.930176C17.6976 0.930176 18.5399 1.09489 19.311 1.42432C20.0897 1.75374 20.7635 2.22168 21.3325 2.82812C21.909 3.43457 22.3545 4.15332 22.6689 4.98438C22.9909 5.80794 23.1519 6.71761 23.1519 7.71338C23.1519 9.30811 22.7288 10.8879 21.8828 12.4526C21.0443 14.0099 19.8501 15.5298 18.3003 17.0122C16.758 18.4871 14.9312 19.8984 12.8198 21.2461C12.7 21.321 12.5615 21.3883 12.4043 21.4482C12.2546 21.5156 12.1198 21.5493 12 21.5493C11.8877 21.5493 11.7529 21.5156 11.5957 21.4482C11.446 21.3883 11.3112 21.321 11.1914 21.2461C9.08008 19.8984 7.24951 18.4871 5.69971 17.0122C4.1499 15.5298 2.95199 14.0099 2.10596 12.4526C1.26742 10.8879 0.848145 9.30811 0.848145 7.71338ZM2.65625 7.71338C2.65625 8.75407 2.90706 9.80973 3.40869 10.8804C3.91032 11.9435 4.59163 12.988 5.45264 14.0137C6.31364 15.0394 7.28695 16.0202 8.37256 16.9561C9.46566 17.8844 10.5999 18.738 11.7754 19.5166C11.8952 19.6064 11.9701 19.6514 12 19.6514C12.0299 19.6514 12.1086 19.6064 12.2358 19.5166C13.4113 18.738 14.5418 17.8844 15.6274 16.9561C16.7205 16.0202 17.6938 15.0394 18.5474 14.0137C19.4084 12.988 20.0897 11.9435 20.5913 10.8804C21.0929 9.80973 21.3438 8.75407 21.3438 7.71338C21.3438 6.71761 21.1453 5.84912 20.7485 5.10791C20.3592 4.35921 19.8201 3.77897 19.1313 3.36719C18.45 2.94792 17.6751 2.73828 16.8066 2.73828C16.1029 2.73828 15.4964 2.86556 14.9873 3.12012C14.4857 3.36719 14.0514 3.68164 13.6846 4.06348C13.3252 4.43783 13.0182 4.80843 12.7637 5.17529C12.599 5.39242 12.4642 5.54215 12.3594 5.62451C12.2546 5.70687 12.1348 5.74805 12 5.74805C11.8652 5.74805 11.7417 5.71061 11.6294 5.63574C11.5246 5.55339 11.3936 5.3999 11.2363 5.17529C10.9967 4.80094 10.6973 4.4266 10.3379 4.05225C9.97852 3.6779 9.54053 3.36719 9.02393 3.12012C8.50732 2.86556 7.89714 2.73828 7.19336 2.73828C6.32487 2.73828 5.54622 2.94792 4.85742 3.36719C4.17611 3.77897 3.63704 4.35921 3.24023 5.10791C2.85091 5.84912 2.65625 6.71761 2.65625 7.71338Z" fill="#F5F5F5"/>
</svg>
