<svg width="12" height="12" viewBox="0 0 12 12" fill="none" xmlns="http://www.w3.org/2000/svg">
<path fill-rule="evenodd" clip-rule="evenodd" d="M1.59289 4.57884C1.53167 4.7108 1.49997 4.85452 1.5 4.99998V9.49998C1.5 9.7652 1.60536 10.0196 1.79289 10.2071C1.98043 10.3946 2.23478 10.5 2.5 10.5H4.00012V6.50003C4.00012 5.94775 4.44784 5.50003 5.00012 5.50003H7.00012C7.55241 5.50003 8.00012 5.94775 8.00012 6.50003V10.5H9.5C9.76522 10.5 10.0196 10.3946 10.2071 10.2071C10.3946 10.0196 10.5 9.7652 10.5 9.49998V4.99998C10.5 4.85452 10.4683 4.7108 10.4071 4.57884C10.3459 4.44689 10.2566 4.32988 10.1455 4.23598L6.6455 1.23648C6.46501 1.08394 6.23632 1.00024 6 1.00024C5.76368 1.00024 5.53499 1.08394 5.3545 1.23648L1.8545 4.23598C1.7434 4.32988 1.65412 4.44689 1.59289 4.57884Z" fill="white"/>
<path d="M1.5 4.99998L2 4.99998L2 4.99986L1.5 4.99998ZM1.79289 10.2071L2.14645 9.85354L2.14645 9.85354L1.79289 10.2071ZM4.00012 10.5V11C4.27626 11 4.50012 10.7761 4.50012 10.5H4.00012ZM8.00012 10.5H7.50012C7.50012 10.7761 7.72398 11 8.00012 11V10.5ZM10.5 4.99998L10 4.99986V4.99998H10.5ZM10.1455 4.23598L9.82013 4.61565L9.82275 4.61786L10.1455 4.23598ZM6.6455 1.23648L6.97087 0.85682L6.96825 0.854604L6.6455 1.23648ZM5.3545 1.23648L5.03174 0.854595L5.02914 0.856829L5.3545 1.23648ZM1.8545 4.23598L2.17726 4.61787L2.17986 4.61564L1.8545 4.23598ZM2 4.99986C1.99998 4.92713 2.01583 4.85527 2.04645 4.78929L1.13934 4.36839C1.0475 4.56632 0.999948 4.7819 1 5.0001L2 4.99986ZM2 9.49998V4.99998H1V9.49998H2ZM2.14645 9.85354C2.05268 9.75977 2 9.63259 2 9.49998H1C1 9.89781 1.15804 10.2793 1.43934 10.5606L2.14645 9.85354ZM2.5 9.99998C2.36739 9.99998 2.24022 9.94731 2.14645 9.85354L1.43934 10.5606C1.72064 10.8419 2.10217 11 2.5 11V9.99998ZM4.00012 9.99998H2.5V11H4.00012V9.99998ZM4.50012 10.5V6.50003H3.50012V10.5H4.50012ZM4.50012 6.50003C4.50012 6.22389 4.72398 6.00003 5.00012 6.00003V5.00003C4.1717 5.00003 3.50012 5.6716 3.50012 6.50003H4.50012ZM5.00012 6.00003H7.00012V5.00003H5.00012V6.00003ZM7.00012 6.00003C7.27626 6.00003 7.50012 6.22389 7.50012 6.50003H8.50012C8.50012 5.6716 7.82855 5.00003 7.00012 5.00003V6.00003ZM7.50012 6.50003V10.5H8.50012V6.50003H7.50012ZM9.5 9.99998H8.00012V11H9.5V9.99998ZM9.85355 9.85354C9.75978 9.94731 9.63261 9.99998 9.5 9.99998V11C9.89783 11 10.2794 10.8419 10.5607 10.5606L9.85355 9.85354ZM10 9.49998C10 9.63259 9.94732 9.75977 9.85355 9.85354L10.5607 10.5606C10.842 10.2793 11 9.89781 11 9.49998H10ZM10 4.99998V9.49998H11V4.99998H10ZM9.95355 4.78929C9.98417 4.85527 10 4.92713 10 4.99986L11 5.00011C11.0001 4.7819 10.9525 4.56632 10.8607 4.36839L9.95355 4.78929ZM9.82275 4.61786C9.8783 4.66481 9.92294 4.72332 9.95355 4.78929L10.8607 4.36839C10.7688 4.17046 10.6349 3.99495 10.4683 3.8541L9.82275 4.61786ZM6.32014 1.61614L9.82014 4.61564L10.4709 3.85633L6.97086 0.856829L6.32014 1.61614ZM6 1.50024C6.11816 1.50024 6.2325 1.54209 6.32275 1.61836L6.96825 0.854604C6.69751 0.625785 6.35448 0.500244 6 0.500244V1.50024ZM5.67725 1.61836C5.7675 1.54209 5.88184 1.50024 6 1.50024V0.500244C5.64552 0.500244 5.30249 0.625785 5.03175 0.854604L5.67725 1.61836ZM2.17986 4.61564L5.67986 1.61614L5.02914 0.856829L1.52914 3.85633L2.17986 4.61564ZM2.04645 4.78929C2.07706 4.72332 2.1217 4.66481 2.17725 4.61786L1.53175 3.8541C1.3651 3.99495 1.23118 4.17046 1.13934 4.36839L2.04645 4.78929Z" fill="white"/>
</svg>
