<svg width="24" height="24" viewBox="0 0 24 24" fill="none" xmlns="http://www.w3.org/2000/svg">
<path d="M7.6342 5.48619L6.74531 6.18868C5.39716 7.25413 4.72309 7.78686 4.36155 8.538C4 9.28913 4 10.1568 4 11.8923V13.7744C4 17.1806 4 18.8837 5.0414 19.9419C6.0828 21 7.7589 21 11.1111 21H12.8889C16.2411 21 17.9172 21 18.9586 19.9419C20 18.8837 20 17.1806 20 13.7744V11.8923C20 10.1568 20 9.28913 19.6385 8.538C19.2769 7.78686 18.6028 7.25413 17.2547 6.18868L16.3658 5.48619C14.2685 3.82873 13.2199 3 12 3C10.7801 3 9.73144 3.82873 7.6342 5.48619Z" stroke="white" stroke-width="2" stroke-linejoin="round"/>
</svg>
