<svg width="24" height="24" viewBox="0 0 24 24" fill="none" xmlns="http://www.w3.org/2000/svg">
<path d="M8.18236 18.1111C7.89032 17.9939 7.72903 17.9371 7.6388 17.9481C7.52792 17.9615 7.36703 18.0788 7.04526 18.3133C6.47792 18.7269 5.76319 19.024 4.70325 18.9985C4.16729 18.9856 3.8993 18.9791 3.77933 18.7769C3.65936 18.5747 3.80878 18.2948 4.10761 17.735C4.52208 16.9586 4.78468 16.0698 4.38677 15.3576C3.70146 14.3403 3.11935 13.1355 3.03428 11.8344C2.98857 11.1353 2.98857 10.4113 3.03428 9.71218C3.26784 6.13969 6.10625 3.29401 9.66963 3.05985C10.8828 2.98013 12.1521 2.97997 13.3678 3.05985C16.916 3.29301 19.7454 6.11554 20 9.66666" stroke="white" stroke-width="2" stroke-linecap="round" stroke-linejoin="round"/>
<path d="M14.3061 20.6791C12.0055 20.5329 10.1729 18.7543 10.0221 16.5215C9.99263 16.0845 9.99263 15.6321 10.0221 15.1951C10.1729 12.9623 12.0055 11.1838 14.3061 11.0374C15.0911 10.9875 15.9106 10.9876 16.6939 11.0374C18.9945 11.1838 20.8271 12.9623 20.9779 15.1951C21.0074 15.6321 21.0074 16.0845 20.9779 16.5215C20.9229 17.3347 20.5471 18.0877 20.1047 18.7234C19.8478 19.1685 20.0174 19.7241 20.2849 20.2093C20.4779 20.5592 20.5743 20.7341 20.4969 20.8605C20.4194 20.987 20.2463 20.991 19.9003 20.9991C19.216 21.015 18.7546 20.8293 18.3883 20.5708C18.1805 20.4242 18.0766 20.351 18.005 20.3425C17.9334 20.3341 17.7925 20.3896 17.5108 20.5006C17.2576 20.6004 16.9636 20.6621 16.6939 20.6791C15.9106 20.7291 15.0911 20.7291 14.3061 20.6791Z" stroke="white" stroke-width="2" stroke-linejoin="round"/>
</svg>
