<svg width="24" height="24" viewBox="0 0 24 24" fill="none" xmlns="http://www.w3.org/2000/svg">
<path fill-rule="evenodd" clip-rule="evenodd" d="M12.8806 21.7992C14.689 20.1932 20.0741 14.9931 20.0741 10.0001C20.0741 7.87833 19.2546 5.84348 17.796 4.34317C16.3374 2.84286 14.3591 2 12.2963 2C10.2335 2 8.25522 2.84286 6.79661 4.34317C5.338 5.84348 4.51855 7.87833 4.51855 10.0001C4.51855 14.9931 9.90368 20.1932 11.712 21.7992C11.8805 21.9295 12.0855 22 12.2963 22C12.5071 22 12.7122 21.9295 12.8806 21.7992ZM12.2963 13.4814C13.9327 13.4814 15.2592 12.1548 15.2592 10.5184C15.2592 8.88203 13.9327 7.55547 12.2963 7.55547C10.6599 7.55547 9.3333 8.88203 9.3333 10.5184C9.3333 12.1548 10.6599 13.4814 12.2963 13.4814Z" fill="white"/>
</svg>
