<svg width="10" height="25" viewBox="0 0 10 25" fill="none" xmlns="http://www.w3.org/2000/svg">
<path d="M0.777344 4.79443C0.777344 4.01579 0.964518 3.30827 1.33887 2.67188C1.7207 2.02799 2.22982 1.51514 2.86621 1.1333C3.5026 0.751465 4.21012 0.560547 4.98877 0.560547C5.7749 0.560547 6.48617 0.751465 7.12256 1.1333C7.75895 1.51514 8.26432 2.02799 8.63867 2.67188C9.02051 3.30827 9.21143 4.01579 9.21143 4.79443C9.21143 5.45329 9.07292 6.06348 8.7959 6.625C8.51888 7.18652 8.14079 7.66569 7.66162 8.0625C7.18245 8.45931 6.63965 8.73258 6.0332 8.88232V19.3042C6.0332 20.1353 5.99951 20.869 5.93213 21.5054C5.86475 22.1418 5.77865 22.6771 5.67383 23.1113C5.5765 23.5456 5.46419 23.8713 5.33691 24.0884C5.21712 24.313 5.10107 24.4253 4.98877 24.4253C4.87646 24.4253 4.76042 24.313 4.64062 24.0884C4.52083 23.8638 4.40853 23.5343 4.30371 23.1001C4.19889 22.6659 4.11279 22.1305 4.04541 21.4941C3.97803 20.8652 3.94434 20.1353 3.94434 19.3042V8.88232C3.33789 8.73258 2.79508 8.45931 2.31592 8.0625C1.83675 7.66569 1.45866 7.18652 1.18164 6.625C0.912109 6.06348 0.777344 5.45329 0.777344 4.79443ZM3.77588 5.01904C4.17269 5.01904 4.51335 4.87679 4.79785 4.59229C5.08236 4.30029 5.22461 3.95964 5.22461 3.57031C5.22461 3.18099 5.08236 2.84408 4.79785 2.55957C4.51335 2.27507 4.17269 2.13281 3.77588 2.13281C3.39404 2.13281 3.05713 2.27507 2.76514 2.55957C2.48063 2.84408 2.33838 3.18099 2.33838 3.57031C2.33838 3.95964 2.48063 4.30029 2.76514 4.59229C3.05713 4.87679 3.39404 5.01904 3.77588 5.01904Z" fill="#F5F5F5"/>
</svg>
