<svg width="22" height="23" viewBox="0 0 22 23" fill="none" xmlns="http://www.w3.org/2000/svg">
<path d="M0.027832 9.78027C0.027832 8.54492 0.259928 7.38818 0.724121 6.31006C1.18831 5.22445 1.83219 4.26986 2.65576 3.44629C3.47933 2.62272 4.43018 1.97884 5.5083 1.51465C6.59391 1.05046 7.75439 0.818359 8.98975 0.818359C10.2251 0.818359 11.3818 1.05046 12.46 1.51465C13.5456 1.97884 14.5002 2.62272 15.3237 3.44629C16.1473 4.26986 16.7912 5.22445 17.2554 6.31006C17.7196 7.38818 17.9517 8.54492 17.9517 9.78027C17.9517 10.806 17.7869 11.7793 17.4575 12.7002C17.1356 13.6211 16.6864 14.4559 16.1099 15.2046L21.6016 20.73C21.7214 20.8498 21.8112 20.9883 21.8711 21.1455C21.9385 21.3027 21.9722 21.4712 21.9722 21.6509C21.9722 21.8979 21.916 22.1226 21.8037 22.3247C21.6989 22.5269 21.5492 22.6841 21.3545 22.7964C21.1598 22.9162 20.9352 22.9761 20.6807 22.9761C20.501 22.9761 20.3288 22.9424 20.1641 22.875C20.0068 22.8151 19.8608 22.7215 19.7261 22.5942L14.2007 17.0576C13.467 17.5817 12.6584 17.9935 11.7749 18.293C10.8914 18.5924 9.96305 18.7422 8.98975 18.7422C7.75439 18.7422 6.59391 18.5101 5.5083 18.0459C4.43018 17.5817 3.47933 16.9378 2.65576 16.1143C1.83219 15.2907 1.18831 14.3398 0.724121 13.2617C0.259928 12.1761 0.027832 11.0156 0.027832 9.78027ZM1.94824 9.78027C1.94824 10.7536 2.12793 11.667 2.4873 12.5205C2.85417 13.3665 3.35954 14.1115 4.00342 14.7554C4.65479 15.3993 5.40348 15.9046 6.24951 16.2715C7.10303 16.6383 8.01644 16.8218 8.98975 16.8218C9.96305 16.8218 10.8727 16.6383 11.7188 16.2715C12.5723 15.9046 13.321 15.3993 13.9648 14.7554C14.6087 14.1115 15.1141 13.3665 15.481 12.5205C15.8478 11.667 16.0312 10.7536 16.0312 9.78027C16.0312 8.80697 15.8478 7.8973 15.481 7.05127C15.1141 6.19775 14.6087 5.44906 13.9648 4.80518C13.321 4.15381 12.5723 3.64844 11.7188 3.28906C10.8727 2.9222 9.96305 2.73877 8.98975 2.73877C8.01644 2.73877 7.10303 2.9222 6.24951 3.28906C5.40348 3.64844 4.65479 4.15381 4.00342 4.80518C3.35954 5.44906 2.85417 6.19775 2.4873 7.05127C2.12793 7.8973 1.94824 8.80697 1.94824 9.78027Z" fill="#F5F5F5"/>
</svg>
