<svg width="24" height="24" viewBox="0 0 24 24" fill="none" xmlns="http://www.w3.org/2000/svg">
<path d="M14.5621 20.4226C18.5359 20.1592 21.7013 16.9578 21.9618 12.9387C22.0127 12.1522 22.0127 11.3377 21.9618 10.5512C21.7013 6.53215 18.5359 3.33075 14.5621 3.06733C13.2063 2.97746 11.7909 2.97765 10.4379 3.06733C6.46407 3.33075 3.29869 6.53215 3.03823 10.5512C2.98726 11.3377 2.98726 12.1522 3.03823 12.9387C3.13309 14.4025 3.78226 15.7578 4.54651 16.9022C4.99026 17.7034 4.6974 18.7034 4.2352 19.5769C3.90194 20.2067 3.73531 20.5216 3.8691 20.749C4.00289 20.9765 4.30174 20.9838 4.89946 20.9983C6.08148 21.027 6.87854 20.6928 7.51124 20.2275C7.87008 19.9637 8.0495 19.8317 8.17317 19.8165C8.29682 19.8014 8.54018 19.9013 9.02681 20.1012C9.46418 20.2808 9.97201 20.3917 10.4379 20.4226C11.7909 20.5123 13.2063 20.5125 14.5621 20.4226Z" stroke="white" stroke-width="2" stroke-linejoin="round"/>
</svg>
