<svg width="24" height="22" viewBox="0 0 24 22" fill="none" xmlns="http://www.w3.org/2000/svg">
<path d="M5.16406 21.1836C4.82552 21.1836 4.56836 21.1022 4.39258 20.9395C4.2168 20.7832 4.12565 20.5846 4.11914 20.3438C4.11263 20.1094 4.19401 19.8783 4.36328 19.6504C4.51302 19.4616 4.69206 19.2174 4.90039 18.918C5.10872 18.625 5.31706 18.3158 5.52539 17.9902C5.73372 17.6647 5.91276 17.3587 6.0625 17.0723C5.03385 16.597 4.13216 15.9785 3.35742 15.2168C2.58919 14.4551 1.99023 13.5957 1.56055 12.6387C1.13737 11.6816 0.925781 10.6693 0.925781 9.60156C0.925781 8.37109 1.20898 7.21875 1.77539 6.14453C2.34831 5.07031 3.13932 4.12956 4.14844 3.32227C5.16406 2.50846 6.34245 1.8737 7.68359 1.41797C9.02474 0.955729 10.4635 0.724609 12 0.724609C13.5365 0.724609 14.9753 0.955729 16.3164 1.41797C17.6576 1.8737 18.8327 2.50846 19.8418 3.32227C20.8574 4.12956 21.6484 5.07031 22.2148 6.14453C22.7878 7.21875 23.0742 8.37109 23.0742 9.60156C23.0742 10.6237 22.8789 11.5905 22.4883 12.502C22.1042 13.4069 21.554 14.2305 20.8379 14.9727C20.1283 15.7148 19.2786 16.3529 18.2891 16.8867C17.306 17.4141 16.2122 17.8145 15.0078 18.0879C13.8034 18.3613 12.5208 18.4785 11.1602 18.4395C10.5026 18.9147 9.79297 19.3607 9.03125 19.7773C8.26953 20.194 7.54362 20.5326 6.85352 20.793C6.16341 21.0534 5.60026 21.1836 5.16406 21.1836ZM6.18945 19.5625C6.48242 19.4388 6.85352 19.25 7.30273 18.9961C7.75195 18.7422 8.21745 18.459 8.69922 18.1465C9.18099 17.8405 9.62044 17.5443 10.0176 17.2578C10.1999 17.1146 10.3757 17.0104 10.5449 16.9453C10.7207 16.8737 10.9095 16.8379 11.1113 16.8379C11.3066 16.8444 11.4792 16.8509 11.6289 16.8574C11.7786 16.8574 11.9023 16.8574 12 16.8574C13.3151 16.8574 14.5456 16.6686 15.6914 16.291C16.8372 15.9134 17.8398 15.3926 18.6992 14.7285C19.5651 14.0645 20.2422 13.293 20.7305 12.4141C21.2188 11.5352 21.4629 10.5977 21.4629 9.60156C21.4629 8.59896 21.2188 7.66146 20.7305 6.78906C20.2422 5.91016 19.5651 5.13867 18.6992 4.47461C17.8398 3.80404 16.8372 3.27995 15.6914 2.90234C14.5456 2.52474 13.3151 2.33594 12 2.33594C10.6849 2.33594 9.45443 2.52474 8.30859 2.90234C7.16276 3.27995 6.1569 3.80404 5.29102 4.47461C4.43164 5.13867 3.75781 5.91016 3.26953 6.78906C2.78776 7.66146 2.54688 8.59896 2.54688 9.60156C2.54688 10.4674 2.73568 11.291 3.11328 12.0723C3.49089 12.8535 4.03776 13.5697 4.75391 14.2207C5.47656 14.8652 6.34896 15.4251 7.37109 15.9004C7.68359 16.0501 7.86589 16.2324 7.91797 16.4473C7.97005 16.6621 7.92773 16.8965 7.79102 17.1504C7.62174 17.4629 7.37109 17.8405 7.03906 18.2832C6.70703 18.7324 6.4043 19.1263 6.13086 19.4648C6.10482 19.4974 6.09831 19.5234 6.11133 19.543C6.12435 19.569 6.15039 19.5755 6.18945 19.5625Z" fill="#FBFBFB"/>
</svg>
