<svg width="20" height="21" viewBox="0 0 20 21" fill="none" xmlns="http://www.w3.org/2000/svg">
<path fill-rule="evenodd" clip-rule="evenodd" d="M2.16015 15.5731L9.38192 5.64199C9.38192 5.64199 9.38478 3.98045 10.622 2.81516C12.1301 1.39479 14.5005 1.63229 15.7432 3.15199C16.9858 4.67179 17.3228 7.15275 15.6239 8.93215C14.5663 10.0398 13.3754 10.0291 13.3754 10.0291L4.33351 17.9892L3.44145 17.0274L1.79308 18.7203C1.79308 18.7203 1.65665 18.8453 1.52156 18.6595C1.38647 18.4738 1.45378 18.3141 1.45378 18.3141L3.08048 16.6091L2.16015 15.5731ZM3.85273 15.4527L4.39566 16.0298L11.5713 9.80554C11.5713 9.80554 10.8066 9.34085 10.3481 8.80914C9.88943 8.27742 9.62441 7.5484 9.62441 7.5484L3.85273 15.4527ZM11.0919 4.33349C11.0919 4.33349 9.82222 6.26336 11.3208 7.84062C12.8195 9.41798 14.5251 8.09317 14.5251 8.09317C14.5251 8.09317 12.9908 7.70098 12.1584 6.7894C11.326 5.87791 11.0919 4.33338 11.0919 4.33338V4.33349ZM11.6067 3.85859C11.6067 3.85859 11.9602 5.34325 12.8097 6.28651C13.6593 7.22988 14.9935 7.61891 14.9935 7.61891C14.9935 7.61891 16.2236 5.56486 14.6812 4.0077C13.1387 2.45054 11.6067 3.85859 11.6067 3.85859Z" fill="#FAFAFA"/>
</svg>
