<svg width="20" height="21" viewBox="0 0 20 21" fill="none" xmlns="http://www.w3.org/2000/svg">
<path d="M16.9978 13.1549C17.1729 12.7378 16.6725 12.3824 16.2528 12.5678C15.4138 12.9361 14.5074 13.1255 13.5911 13.124C9.99903 13.124 7.08758 10.2709 7.08758 6.75092C7.08627 5.56243 7.42392 4.39822 8.06093 3.39486C8.30469 3.01033 8.012 2.47816 7.56567 2.59146C4.12463 3.46953 1.58398 6.53548 1.58398 10.1825C1.58398 14.5145 5.1675 18.0259 9.58875 18.0259C12.9362 18.0259 15.803 16.0131 16.9978 13.1549Z" stroke="#FAFAFA" stroke-width="1.43765"/>
<path d="M12.4072 2.6646C11.9523 2.36075 11.4098 2.90322 11.7128 3.35813L12.2536 4.16925C12.4729 4.49813 12.59 4.8846 12.59 5.27993C12.59 5.67525 12.4729 6.06172 12.2536 6.3906L11.7128 7.20172C11.4098 7.65664 11.9531 8.1991 12.4081 7.89525L13.2183 7.3545C13.5472 7.13514 13.9337 7.01808 14.329 7.01808C14.7243 7.01808 15.1108 7.13514 15.4397 7.3545L16.2508 7.89525C16.7057 8.1991 17.2482 7.65664 16.9443 7.20172L16.4036 6.3906C16.1842 6.06172 16.0671 5.67525 16.0671 5.27993C16.0671 4.8846 16.1842 4.49813 16.4036 4.16925L16.9443 3.35813C17.2482 2.90322 16.7057 2.36075 16.2499 2.6646L15.4397 3.20535C15.1108 3.42471 14.7243 3.54177 14.329 3.54177C13.9337 3.54177 13.5472 3.42471 13.2183 3.20535L12.4072 2.6646Z" stroke="#FAFAFA" stroke-width="1.15012"/>
</svg>
