<svg width="24" height="23" viewBox="0 0 24 23" fill="none" xmlns="http://www.w3.org/2000/svg">
<path d="M18.3228 15.2661C18.772 15.2661 19.2137 15.2399 19.6479 15.1875C20.0897 15.1351 20.5052 15.064 20.8945 14.9741C21.2913 14.8843 21.6432 14.7757 21.9502 14.6484C22.085 14.6035 22.1935 14.5736 22.2759 14.5586C22.3582 14.5436 22.4443 14.5361 22.5342 14.5361C22.7064 14.5361 22.8711 14.6073 23.0283 14.7495C23.193 14.8918 23.2754 15.0789 23.2754 15.311C23.2754 15.3709 23.2679 15.4608 23.2529 15.5806C23.238 15.6929 23.193 15.8239 23.1182 15.9736C22.4593 17.3737 21.5871 18.5754 20.5015 19.5786C19.4159 20.5894 18.188 21.3643 16.8179 21.9033C15.4478 22.4499 14.0065 22.7231 12.4941 22.7231C10.8695 22.7231 9.34587 22.4162 7.92334 21.8022C6.50081 21.1958 5.25049 20.3535 4.17236 19.2754C3.09424 18.1973 2.24821 16.9469 1.63428 15.5244C1.02783 14.1019 0.724609 12.5783 0.724609 10.9536C0.724609 9.3514 1.02783 7.83529 1.63428 6.40527C2.24821 4.97526 3.09049 3.72119 4.16113 2.64307C5.23926 1.55745 6.47087 0.733887 7.85596 0.172363C8.01318 0.10498 8.14421 0.0638021 8.24902 0.0488281C8.35384 0.0263672 8.42871 0.0151367 8.47363 0.0151367C8.71322 0.0151367 8.90788 0.10498 9.05762 0.284668C9.21484 0.456868 9.29346 0.636556 9.29346 0.82373C9.29346 0.936035 9.27848 1.04085 9.24854 1.13818C9.22607 1.23551 9.17367 1.36654 9.09131 1.53125C8.88167 1.93555 8.70199 2.49333 8.55225 3.20459C8.40999 3.91585 8.33887 4.69824 8.33887 5.55176C8.33887 7.55078 8.73942 9.27653 9.54053 10.729C10.3491 12.1815 11.4984 13.3008 12.9883 14.0869C14.4857 14.873 16.2638 15.2661 18.3228 15.2661ZM2.48779 10.875C2.48779 12.3275 2.73861 13.6676 3.24023 14.8955C3.74935 16.1234 4.45687 17.194 5.36279 18.1074C6.2762 19.0133 7.3431 19.7171 8.56348 20.2188C9.79134 20.7279 11.1278 20.9824 12.5728 20.9824C13.7707 20.9824 14.9124 20.799 15.998 20.4321C17.0911 20.0728 18.0757 19.5524 18.9517 18.8711C19.8351 18.1898 20.5614 17.3812 21.1304 16.4453C20.6662 16.61 20.1833 16.7298 19.6816 16.8047C19.18 16.8721 18.641 16.9058 18.0645 16.9058C15.6761 16.9058 13.6284 16.4603 11.9214 15.5693C10.2218 14.6784 8.91911 13.3981 8.01318 11.7285C7.11475 10.0514 6.66553 8.04492 6.66553 5.70898C6.66553 5.0651 6.71045 4.45492 6.80029 3.87842C6.89762 3.30192 7.03613 2.75163 7.21582 2.22754C6.25 2.84896 5.41146 3.61263 4.7002 4.51855C3.99642 5.41699 3.44987 6.41276 3.06055 7.50586C2.67871 8.59147 2.48779 9.71452 2.48779 10.875Z" fill="#F5F5F5"/>
</svg>
