<svg width="26" height="36" viewBox="0 0 26 36" fill="none" xmlns="http://www.w3.org/2000/svg">
<path d="M0.498436 34.2492V4.09453C0.498436 3.08828 0.810155 2.2789 1.43359 1.6664C2.06797 1.0539 2.89922 0.747654 3.92734 0.747654H22.0727C23.1008 0.747654 23.9266 1.0539 24.55 1.6664C25.1844 2.2789 25.5016 3.08828 25.5016 4.09453V34.2492C25.5016 34.6102 25.3703 34.9164 25.1078 35.168C24.8563 35.4305 24.55 35.5617 24.1891 35.5617C23.8172 35.5617 23.5 35.4305 23.2375 35.168C22.9859 34.9164 22.8602 34.6102 22.8602 34.2492V4.25859C22.8602 3.6789 22.5813 3.38906 22.0234 3.38906H3.97656C3.41875 3.38906 3.13984 3.6789 3.13984 4.25859V34.2492C3.13984 34.6102 3.00859 34.9164 2.74609 35.168C2.49453 35.4305 2.18281 35.5617 1.81094 35.5617C1.45 35.5617 1.13828 35.4305 0.87578 35.168C0.624218 34.9164 0.498436 34.6102 0.498436 34.2492ZM5.05937 34.6266V5.65312C5.05937 5.48906 5.11406 5.37422 5.22344 5.30859C5.34375 5.23203 5.48047 5.22656 5.63359 5.29219L10.8016 7.58906C10.9984 7.67656 11.1406 7.76953 11.2281 7.86797C11.3156 7.95547 11.3594 8.10312 11.3594 8.31094V31.9523C11.3594 32.1602 11.3156 32.3133 11.2281 32.4117C11.1406 32.5102 10.993 32.6031 10.7852 32.6906L5.63359 34.9711C5.48047 35.0367 5.34375 35.0313 5.22344 34.9547C5.11406 34.8891 5.05937 34.7797 5.05937 34.6266Z" fill="#F5F5F5"/>
</svg>
