<svg width="12" height="12" viewBox="0 0 12 12" fill="none" xmlns="http://www.w3.org/2000/svg">
<path d="M7.5 1L7.76935 2.19579C7.99785 3.21008 8.7899 4.00216 9.8042 4.23064L11 4.5L9.8042 4.76936C8.7899 4.99784 7.99785 5.7899 7.76935 6.8042L7.5 8L7.23065 6.8042C7.00215 5.7899 6.2101 4.99784 5.1958 4.76936L4 4.5L5.1958 4.23064C6.21005 4.00216 7.00215 3.21008 7.23065 2.19579L7.5 1Z" fill="white" stroke="white" stroke-width="0.5" stroke-linejoin="round"/>
<path d="M3.5 6L3.6924 6.85415C3.8556 7.5786 4.42138 8.1444 5.14585 8.3076L6 8.5L5.14585 8.6924C4.42138 8.8556 3.8556 9.42135 3.6924 10.1459L3.5 11L3.3076 10.1459C3.1444 9.42135 2.57863 8.8556 1.85414 8.6924L1 8.5L1.85414 8.3076C2.57863 8.1444 3.1444 7.57865 3.3076 6.85415L3.5 6Z" stroke="white" stroke-width="0.5" stroke-linejoin="round"/>
</svg>
