<svg width="18" height="18" viewBox="0 0 18 18" fill="none" xmlns="http://www.w3.org/2000/svg">
<path d="M11.2283 13.3385L1.82082 17.2658C1.56086 17.3726 1.31482 17.4004 1.08271 17.3494C0.850599 17.2983 0.655627 17.1892 0.497791 17.0221C0.339956 16.8596 0.237828 16.66 0.191406 16.4232C0.144983 16.1911 0.1798 15.9474 0.295855 15.6921L4.4251 6.54229C4.60615 6.14306 4.85683 5.8831 5.17714 5.7624C5.49745 5.6417 5.8549 5.62545 6.24949 5.71365C6.64872 5.80186 7.05956 5.96201 7.482 6.19412C7.90908 6.42623 8.32224 6.6978 8.72147 7.00883C9.12534 7.31986 9.48743 7.63553 9.80774 7.95584C10.1141 8.26223 10.4182 8.61968 10.7199 9.02819C11.0217 9.43207 11.2863 9.85219 11.5138 10.2886C11.7412 10.7249 11.8991 11.145 11.9873 11.5489C12.0801 11.9528 12.0708 12.3126 11.9594 12.6282C11.8526 12.9439 11.6089 13.1806 11.2283 13.3385ZM1.17323 16.0681C1.11753 16.1934 1.11985 16.2863 1.1802 16.3466C1.24519 16.4116 1.33571 16.4186 1.45177 16.3675L9.3412 13.0878C8.90948 12.9114 8.45686 12.6561 7.98336 12.3218C7.50985 11.9876 7.05027 11.6 6.60462 11.159C6.14968 10.704 5.75277 10.2352 5.41389 9.75238C5.07965 9.26959 4.82433 8.80537 4.64793 8.35971L1.17323 16.0681ZM5.40693 6.75119C5.24909 6.90438 5.2166 7.16899 5.30944 7.54501C5.40693 7.92103 5.62047 8.36436 5.95007 8.875C6.28431 9.38564 6.72996 9.91718 7.28702 10.4696C7.84409 11.0313 8.37562 11.4793 8.88162 11.8135C9.39227 12.1431 9.8356 12.3567 10.2116 12.4541C10.5876 12.547 10.8546 12.5145 11.0124 12.3567C11.1656 12.2081 11.1934 11.9458 11.096 11.5698C11.0031 11.1938 10.7896 10.7505 10.4553 10.2398C10.1257 9.72917 9.68008 9.19763 9.11838 8.64521C8.56131 8.08815 8.02746 7.64249 7.51681 7.30825C7.01081 6.97401 6.5698 6.75815 6.19378 6.66067C5.82241 6.56318 5.56012 6.59335 5.40693 6.75119ZM6.43054 1.77242C6.21235 1.77242 6.02899 1.69814 5.88043 1.54959C5.73653 1.40104 5.66457 1.22 5.66457 1.00645C5.66457 0.797554 5.73653 0.618829 5.88043 0.470278C6.02899 0.321727 6.21235 0.247452 6.43054 0.247452C6.63944 0.247452 6.81816 0.321727 6.96671 0.470278C7.1199 0.618829 7.1965 0.797554 7.1965 1.00645C7.1965 1.22 7.1199 1.40104 6.96671 1.54959C6.81816 1.69814 6.63944 1.77242 6.43054 1.77242ZM7.34969 3.07456C7.50753 3.9148 7.58645 4.75272 7.58645 5.58831C7.58645 6.41927 7.50521 7.25951 7.34273 8.10904C7.31952 8.23437 7.26381 8.34347 7.17561 8.43631C7.09205 8.52916 6.98528 8.57558 6.8553 8.57558C6.72996 8.57094 6.6139 8.52219 6.50713 8.42935C6.40036 8.3365 6.36322 8.22277 6.39572 8.08815C6.55355 7.25255 6.63247 6.41695 6.63247 5.58135C6.63247 4.74575 6.55355 3.91944 6.39572 3.10241C6.36787 2.96315 6.405 2.84709 6.50713 2.75425C6.6139 2.65676 6.73228 2.60569 6.86226 2.60105C6.99689 2.60105 7.10598 2.6498 7.18954 2.74728C7.2731 2.84013 7.32648 2.94922 7.34969 3.07456ZM10.7339 2.97707C10.4925 2.97707 10.272 2.91904 10.0724 2.80299C9.87738 2.68229 9.71954 2.52446 9.59884 2.32948C9.48279 2.12987 9.42476 1.90936 9.42476 1.66797C9.42476 1.30123 9.55242 0.992527 9.80774 0.741847C10.0631 0.486526 10.3718 0.358865 10.7339 0.358865C11.1006 0.358865 11.4093 0.486526 11.66 0.741847C11.9153 0.992527 12.043 1.30123 12.043 1.66797C12.043 1.90936 11.9849 2.12987 11.8689 2.32948C11.7528 2.52446 11.595 2.68229 11.3954 2.80299C11.2004 2.91904 10.9799 2.97707 10.7339 2.97707ZM9.41084 5.17052C9.24372 5.17052 9.09749 5.11017 8.97215 4.98947C8.85145 4.86877 8.7911 4.72254 8.7911 4.55078C8.7911 4.38366 8.85145 4.23975 8.97215 4.11906C9.09749 3.99836 9.24372 3.93801 9.41084 3.93801C9.5826 3.93801 9.72651 3.99836 9.84256 4.11906C9.96326 4.23975 10.0236 4.38366 10.0236 4.55078C10.0236 4.72254 9.96326 4.86877 9.84256 4.98947C9.72651 5.11017 9.5826 5.17052 9.41084 5.17052ZM16.4159 2.16933C16.2442 2.16933 16.0979 2.1113 15.9772 1.99524C15.8612 1.87455 15.8032 1.72832 15.8032 1.55656C15.8032 1.38479 15.8612 1.23856 15.9772 1.11787C16.0979 0.997169 16.2442 0.93682 16.4159 0.93682C16.5831 0.93682 16.7246 0.997169 16.8407 1.11787C16.9614 1.23856 17.0217 1.38479 17.0217 1.55656C17.0217 1.72832 16.9614 1.87455 16.8407 1.99524C16.7246 2.1113 16.5831 2.16933 16.4159 2.16933ZM14.4035 2.62194C14.501 2.5291 14.6171 2.48268 14.7517 2.48268C14.8863 2.48268 15.0001 2.5291 15.0929 2.62194C15.1857 2.71479 15.2322 2.82852 15.2322 2.96315C15.2322 3.09777 15.1857 3.21382 15.0929 3.31131L13.7908 4.60649C13.6979 4.69933 13.5842 4.74575 13.4496 4.74575C13.3149 4.74575 13.1989 4.69933 13.1014 4.60649C13.0132 4.51364 12.9691 4.39991 12.9691 4.26529C12.9691 4.13066 13.0132 4.01693 13.1014 3.92408L14.4035 2.62194ZM11.8201 5.2123C11.913 5.12874 12.0244 5.08696 12.1544 5.08696C12.289 5.08696 12.4051 5.12874 12.5025 5.2123C12.5861 5.30978 12.6279 5.42584 12.6279 5.56046C12.6325 5.69044 12.5907 5.80186 12.5025 5.8947L8.95822 9.44599C8.86073 9.53884 8.74468 9.58526 8.61005 9.58526C8.48007 9.58526 8.36634 9.53884 8.26885 9.44599C8.17601 9.35315 8.12959 9.23941 8.12959 9.10479C8.12959 8.96552 8.17601 8.84947 8.26885 8.75662L11.8201 5.2123ZM17.0496 8.41542C16.8314 8.41542 16.648 8.34115 16.4995 8.19259C16.3556 8.04404 16.2836 7.86068 16.2836 7.64249C16.2836 7.43359 16.3556 7.25487 16.4995 7.10632C16.648 6.95777 16.8314 6.88349 17.0496 6.88349C17.2631 6.88349 17.4442 6.95777 17.5927 7.10632C17.7413 7.25487 17.8156 7.43359 17.8156 7.64249C17.8156 7.86068 17.7413 8.04404 17.5927 8.19259C17.4442 8.34115 17.2631 8.41542 17.0496 8.41542ZM14.0554 8.70092C13.749 8.70092 13.489 8.59647 13.2755 8.38757C13.0666 8.17403 12.9621 7.91174 12.9621 7.60071C12.9621 7.29433 13.0666 7.03436 13.2755 6.82082C13.489 6.60264 13.749 6.49355 14.0554 6.49355C14.3664 6.49355 14.6287 6.60264 14.8422 6.82082C15.0604 7.03436 15.1695 7.29433 15.1695 7.60071C15.1695 7.91174 15.0604 8.17403 14.8422 8.38757C14.6287 8.59647 14.3664 8.70092 14.0554 8.70092ZM16.785 11.9806C16.5714 11.9806 16.3904 11.9064 16.2418 11.7578C16.0933 11.6093 16.019 11.4282 16.019 11.2147C16.019 11.0058 16.0933 10.827 16.2418 10.6785C16.3904 10.5253 16.5714 10.4487 16.785 10.4487C16.9985 10.4487 17.1796 10.5253 17.3281 10.6785C17.4767 10.827 17.551 11.0058 17.551 11.2147C17.551 11.4282 17.4767 11.6093 17.3281 11.7578C17.1796 11.9064 16.9985 11.9806 16.785 11.9806ZM14.6612 10.3651C14.7865 10.3884 14.8956 10.4417 14.9885 10.5253C15.0813 10.6089 15.1277 10.718 15.1277 10.8526C15.1277 10.9826 15.079 11.1009 14.9815 11.2077C14.884 11.3098 14.7679 11.347 14.6333 11.3191C13.8117 11.1613 12.983 11.0847 12.1474 11.0893C11.3118 11.0893 10.4785 11.1683 9.64759 11.3261C9.50832 11.3539 9.39227 11.3145 9.29942 11.2077C9.20658 11.1009 9.16016 10.9826 9.16016 10.8526C9.15551 10.7226 9.19961 10.6158 9.29246 10.5323C9.3853 10.4487 9.49439 10.393 9.61973 10.3651C10.4739 10.2073 11.3165 10.1284 12.1474 10.1284C12.983 10.1284 13.8209 10.2073 14.6612 10.3651Z" fill="#FBFBFB"/>
</svg>
