<svg width="13" height="13" viewBox="0 0 13 13" fill="none" xmlns="http://www.w3.org/2000/svg">
<path d="M2.40625 11.8594L0.601562 12.5547C0.507812 12.5911 0.421875 12.5677 0.34375 12.4844C0.270833 12.4062 0.252604 12.3203 0.289062 12.2266L1.03125 10.4844L9.5625 1.96875L10.9297 3.34375L2.40625 11.8594ZM11.6172 2.67188L10.2344 1.29688L11.0234 0.515625C11.2214 0.322917 11.4219 0.21875 11.625 0.203125C11.8333 0.1875 12.026 0.268229 12.2031 0.445312L12.4688 0.710938C12.651 0.893229 12.737 1.08594 12.7266 1.28906C12.7161 1.49219 12.6094 1.69531 12.4062 1.89844L11.6172 2.67188Z" fill="#FBFBFB"/>
</svg>
