<svg width="18" height="19" viewBox="0 0 18 19" fill="none" xmlns="http://www.w3.org/2000/svg">
<path d="M9 18.6191C7.76367 18.6191 6.60352 18.3848 5.51953 17.916C4.43555 17.4531 3.4834 16.8115 2.66309 15.9912C1.84277 15.1709 1.19824 14.2188 0.729492 13.1348C0.266602 12.0508 0.0351562 10.8906 0.0351562 9.6543C0.0351562 8.41797 0.266602 7.25781 0.729492 6.17383C1.19824 5.08984 1.84277 4.1377 2.66309 3.31738C3.4834 2.49121 4.43555 1.84668 5.51953 1.38379C6.60352 0.920898 7.76367 0.689453 9 0.689453C10.2363 0.689453 11.3965 0.920898 12.4805 1.38379C13.5645 1.84668 14.5166 2.49121 15.3369 3.31738C16.1572 4.1377 16.7988 5.08984 17.2617 6.17383C17.7305 7.25781 17.9648 8.41797 17.9648 9.6543C17.9648 10.8906 17.7305 12.0508 17.2617 13.1348C16.7988 14.2188 16.1572 15.1709 15.3369 15.9912C14.5166 16.8115 13.5645 17.4531 12.4805 17.916C11.3965 18.3848 10.2363 18.6191 9 18.6191ZM9 17.125C10.0312 17.125 10.998 16.9316 11.9004 16.5449C12.8027 16.1582 13.5967 15.6221 14.2822 14.9365C14.9678 14.251 15.5039 13.457 15.8906 12.5547C16.2773 11.6523 16.4707 10.6855 16.4707 9.6543C16.4707 8.62305 16.2773 7.65625 15.8906 6.75391C15.5039 5.8457 14.9678 5.05176 14.2822 4.37207C13.5967 3.68652 12.8027 3.15039 11.9004 2.76367C10.998 2.37695 10.0312 2.18359 9 2.18359C7.96875 2.18359 7.00195 2.37695 6.09961 2.76367C5.19727 3.15039 4.40332 3.68652 3.71777 4.37207C3.03223 5.05176 2.49609 5.8457 2.10938 6.75391C1.72266 7.65625 1.5293 8.62305 1.5293 9.6543C1.5293 10.6855 1.72266 11.6523 2.10938 12.5547C2.49609 13.457 3.03223 14.251 3.71777 14.9365C4.40332 15.6221 5.19727 16.1582 6.09961 16.5449C7.00195 16.9316 7.96875 17.125 9 17.125ZM4.97461 14.1016C4.79883 14.1016 4.66699 14.0518 4.5791 13.9521C4.49707 13.8467 4.45605 13.7119 4.45605 13.5479C4.45605 13.3076 4.54688 12.9971 4.72852 12.6162C4.91602 12.2295 5.19434 11.8457 5.56348 11.4648C5.93848 11.0781 6.41016 10.7529 6.97852 10.4893C7.54688 10.2256 8.21777 10.0938 8.99121 10.0938C9.76465 10.0938 10.4355 10.2256 11.0039 10.4893C11.5723 10.7529 12.041 11.0781 12.4102 11.4648C12.7852 11.8457 13.0635 12.2295 13.2451 12.6162C13.4326 12.9971 13.5264 13.3076 13.5264 13.5479C13.5264 13.7119 13.4824 13.8467 13.3945 13.9521C13.3125 14.0518 13.1836 14.1016 13.0078 14.1016H4.97461ZM8.99121 9.37305C8.5752 9.37305 8.19434 9.26465 7.84863 9.04785C7.50879 8.83105 7.23633 8.53809 7.03125 8.16895C6.83203 7.7998 6.73242 7.38086 6.73242 6.91211C6.73242 6.47266 6.83203 6.07129 7.03125 5.70801C7.23633 5.33887 7.50879 5.0459 7.84863 4.8291C8.19434 4.60645 8.5752 4.49512 8.99121 4.49512C9.40723 4.49512 9.78516 4.60645 10.125 4.8291C10.4707 5.0459 10.7432 5.33887 10.9424 5.70801C11.1475 6.07129 11.25 6.47266 11.25 6.91211C11.25 7.38086 11.1475 7.80273 10.9424 8.17773C10.7432 8.54688 10.4707 8.83984 10.125 9.05664C9.78516 9.27344 9.40723 9.37891 8.99121 9.37305Z" fill="#FBFBFB"/>
</svg>
