<svg width="20" height="22" viewBox="0 0 20 22" fill="none" xmlns="http://www.w3.org/2000/svg">
<path d="M2.93604 21.291C1.10173 21.291 0.18457 20.6921 0.18457 19.4941C0.18457 18.7604 0.40918 17.978 0.858398 17.147C1.30762 16.3159 1.95524 15.5335 2.80127 14.7998C3.65479 14.0586 4.68424 13.4559 5.88965 12.9917C7.10254 12.5275 8.47266 12.2954 10 12.2954C11.5199 12.2954 12.8825 12.5275 14.0879 12.9917C15.3008 13.4559 16.3302 14.0586 17.1763 14.7998C18.0298 15.5335 18.6812 16.3159 19.1304 17.147C19.5796 17.978 19.8042 18.7604 19.8042 19.4941C19.8042 20.6921 18.887 21.291 17.0527 21.291H2.93604ZM2.4082 19.5952H17.5918C17.734 19.5952 17.8351 19.5728 17.895 19.5278C17.9624 19.4829 17.9961 19.4006 17.9961 19.2808C17.9961 18.8166 17.8201 18.285 17.4683 17.686C17.1239 17.0871 16.611 16.5068 15.9297 15.9453C15.2484 15.3838 14.4098 14.9196 13.4141 14.5527C12.4258 14.1784 11.2878 13.9912 10 13.9912C8.71224 13.9912 7.57048 14.1784 6.57471 14.5527C5.57894 14.9196 4.7404 15.3838 4.05908 15.9453C3.37777 16.5068 2.86117 17.0871 2.50928 17.686C2.16488 18.285 1.99268 18.8166 1.99268 19.2808C1.99268 19.4006 2.02262 19.4829 2.08252 19.5278C2.1499 19.5728 2.25846 19.5952 2.4082 19.5952ZM10 10.8916C9.10905 10.8916 8.29671 10.6558 7.56299 10.1841C6.82926 9.7124 6.24154 9.07975 5.7998 8.28613C5.36556 7.48503 5.14844 6.60531 5.14844 5.64697C5.14844 4.69613 5.36556 3.83138 5.7998 3.05273C6.24154 2.27409 6.82926 1.65267 7.56299 1.18848C8.29671 0.724284 9.10905 0.492188 10 0.492188C10.8984 0.492188 11.7145 0.72054 12.4482 1.17725C13.182 1.63395 13.766 2.25163 14.2002 3.03027C14.6344 3.80143 14.8516 4.66618 14.8516 5.62451C14.8516 6.59033 14.6307 7.4738 14.189 8.2749C13.7547 9.06852 13.1707 9.70492 12.437 10.1841C11.7033 10.6558 10.891 10.8916 10 10.8916ZM10 9.1958C10.554 9.1958 11.0594 9.03857 11.5161 8.72412C11.9803 8.40218 12.3509 7.97168 12.6279 7.43262C12.9049 6.88607 13.0435 6.28337 13.0435 5.62451C13.0435 4.97314 12.9049 4.38916 12.6279 3.87256C12.3584 3.34847 11.9915 2.93669 11.5273 2.63721C11.0706 2.33773 10.5615 2.18799 10 2.18799C9.44596 2.18799 8.93685 2.34147 8.47266 2.64844C8.01595 2.94792 7.64909 3.3597 7.37207 3.88379C7.09505 4.40788 6.95654 4.99561 6.95654 5.64697C6.95654 6.30583 7.09505 6.90479 7.37207 7.44385C7.65658 7.98291 8.02718 8.40967 8.48389 8.72412C8.94808 9.03857 9.45345 9.1958 10 9.1958Z" fill="#F5F5F5"/>
</svg>
