<svg width="28" height="23" viewBox="0 0 28 23" fill="none" xmlns="http://www.w3.org/2000/svg">
<path d="M26.6094 18.0781C26.6094 19.2031 26.3438 20.0547 25.8125 20.6328C25.2812 21.2188 24.4844 21.5117 23.4219 21.5117H3.78125C2.90625 21.5117 2.25 21.2422 1.8125 20.7031C1.375 20.1719 1.13672 19.375 1.09766 18.3125L5.5625 14.2812C5.80469 14.0547 6.05078 13.8906 6.30078 13.7891C6.55078 13.6797 6.80859 13.625 7.07422 13.625C7.34766 13.625 7.61719 13.6836 7.88281 13.8008C8.15625 13.9102 8.41406 14.0742 8.65625 14.293L10.8242 16.25L16.1211 11.5156C16.3945 11.2812 16.6758 11.1055 16.9648 10.9883C17.2539 10.8711 17.5586 10.8125 17.8789 10.8125C18.1992 10.8125 18.5078 10.875 18.8047 11C19.1094 11.1172 19.3906 11.2969 19.6484 11.5391L26.6094 18.0781ZM8.91406 11.6562C8.40625 11.6562 7.94141 11.5352 7.51953 11.293C7.10547 11.043 6.77344 10.707 6.52344 10.2852C6.27344 9.86328 6.14844 9.39844 6.14844 8.89062C6.14844 8.39062 6.27344 7.92969 6.52344 7.50781C6.77344 7.08594 7.10547 6.75 7.51953 6.5C7.94141 6.25 8.40625 6.125 8.91406 6.125C9.42188 6.125 9.88281 6.25 10.2969 6.5C10.7109 6.75 11.043 7.08594 11.293 7.50781C11.543 7.92969 11.668 8.39062 11.668 8.89062C11.668 9.39844 11.543 9.86328 11.293 10.2852C11.043 10.707 10.7109 11.043 10.2969 11.293C9.88281 11.5352 9.42188 11.6562 8.91406 11.6562ZM3.86328 22.332C2.63672 22.332 1.71484 22.0273 1.09766 21.418C0.488281 20.8164 0.183594 19.9141 0.183594 18.7109V4.39062C0.183594 3.17969 0.488281 2.27344 1.09766 1.67188C1.71484 1.0625 2.63672 0.757812 3.86328 0.757812H24.1367C25.3711 0.757812 26.293 1.0625 26.9023 1.67188C27.5117 2.28125 27.8164 3.1875 27.8164 4.39062V18.7109C27.8164 19.9141 27.5117 20.8164 26.9023 21.418C26.293 22.0273 25.3711 22.332 24.1367 22.332H3.86328ZM3.88672 20.4453H24.1133C24.6914 20.4453 25.1367 20.293 25.4492 19.9883C25.7695 19.6758 25.9297 19.2148 25.9297 18.6055V4.49609C25.9297 3.88672 25.7695 3.42578 25.4492 3.11328C25.1367 2.80078 24.6914 2.64453 24.1133 2.64453H3.88672C3.30078 2.64453 2.85156 2.80078 2.53906 3.11328C2.22656 3.42578 2.07031 3.88672 2.07031 4.49609V18.6055C2.07031 19.2148 2.22656 19.6758 2.53906 19.9883C2.85156 20.293 3.30078 20.4453 3.88672 20.4453Z" fill="#F5F5F5"/>
</svg>
