<svg width="21" height="21" viewBox="0 0 21 21" fill="none" xmlns="http://www.w3.org/2000/svg">
<path d="M0.849076 10.5391C0.849076 10.25 0.950639 10.0039 1.15376 9.80078C1.3647 9.58984 1.6108 9.48438 1.89205 9.48438H9.47408V1.91406C9.47408 1.63281 9.57564 1.39062 9.77876 1.1875C9.98189 0.976562 10.228 0.871094 10.517 0.871094C10.8061 0.871094 11.0522 0.976562 11.2553 1.1875C11.4663 1.39062 11.5717 1.63281 11.5717 1.91406V9.48438H19.142C19.4233 9.48438 19.6655 9.58984 19.8686 9.80078C20.0795 10.0039 20.185 10.25 20.185 10.5391C20.185 10.8281 20.0795 11.0742 19.8686 11.2773C19.6655 11.4805 19.4233 11.582 19.142 11.582H11.5717V19.1641C11.5717 19.4453 11.4663 19.6875 11.2553 19.8906C11.0522 20.1016 10.8061 20.207 10.517 20.207C10.228 20.207 9.98189 20.1016 9.77876 19.8906C9.57564 19.6875 9.47408 19.4453 9.47408 19.1641V11.582H1.89205C1.6108 11.582 1.3647 11.4805 1.15376 11.2773C0.950639 11.0742 0.849076 10.8281 0.849076 10.5391Z" fill="white"/>
</svg>
