<svg width="30" height="31" viewBox="0 0 30 31" fill="none" xmlns="http://www.w3.org/2000/svg">
<path d="M15 30.3652C12.9395 30.3652 11.0059 29.9746 9.19922 29.1934C7.39258 28.4219 5.80566 27.3525 4.43848 25.9854C3.07129 24.6182 1.99707 23.0312 1.21582 21.2246C0.444336 19.418 0.0585938 17.4844 0.0585938 15.4238C0.0585938 13.3633 0.444336 11.4297 1.21582 9.62305C1.99707 7.81641 3.07129 6.22949 4.43848 4.8623C5.80566 3.48535 7.39258 2.41113 9.19922 1.63965C11.0059 0.868164 12.9395 0.482422 15 0.482422C17.0605 0.482422 18.9941 0.868164 20.8008 1.63965C22.6074 2.41113 24.1943 3.48535 25.5615 4.8623C26.9287 6.22949 27.998 7.81641 28.7695 9.62305C29.5508 11.4297 29.9414 13.3633 29.9414 15.4238C29.9414 17.4844 29.5508 19.418 28.7695 21.2246C27.998 23.0312 26.9287 24.6182 25.5615 25.9854C24.1943 27.3525 22.6074 28.4219 20.8008 29.1934C18.9941 29.9746 17.0605 30.3652 15 30.3652ZM15 27.875C16.7188 27.875 18.3301 27.5527 19.834 26.9082C21.3379 26.2637 22.6611 25.3701 23.8037 24.2275C24.9463 23.085 25.8398 21.7617 26.4844 20.2578C27.1289 18.7539 27.4512 17.1426 27.4512 15.4238C27.4512 13.7051 27.1289 12.0938 26.4844 10.5898C25.8398 9.07617 24.9463 7.75293 23.8037 6.62012C22.6611 5.47754 21.3379 4.58398 19.834 3.93945C18.3301 3.29492 16.7188 2.97266 15 2.97266C13.2812 2.97266 11.6699 3.29492 10.166 3.93945C8.66211 4.58398 7.33887 5.47754 6.19629 6.62012C5.05371 7.75293 4.16016 9.07617 3.51562 10.5898C2.87109 12.0938 2.54883 13.7051 2.54883 15.4238C2.54883 17.1426 2.87109 18.7539 3.51562 20.2578C4.16016 21.7617 5.05371 23.085 6.19629 24.2275C7.33887 25.3701 8.66211 26.2637 10.166 26.9082C11.6699 27.5527 13.2812 27.875 15 27.875ZM8.20312 15.4238C8.20312 15.0527 8.31543 14.7549 8.54004 14.5303C8.77441 14.2959 9.08203 14.1787 9.46289 14.1787H13.7695V9.87207C13.7695 9.50098 13.8818 9.19824 14.1064 8.96387C14.3311 8.72949 14.6191 8.6123 14.9707 8.6123C15.3418 8.6123 15.6396 8.72949 15.8643 8.96387C16.0986 9.18848 16.2158 9.49121 16.2158 9.87207V14.1787H20.5371C20.9082 14.1787 21.2061 14.2959 21.4307 14.5303C21.665 14.7549 21.7822 15.0527 21.7822 15.4238C21.7822 15.7754 21.665 16.0635 21.4307 16.2881C21.2061 16.5127 20.9082 16.625 20.5371 16.625H16.2158V20.9463C16.2158 21.3174 16.0986 21.6201 15.8643 21.8545C15.6396 22.0791 15.3418 22.1914 14.9707 22.1914C14.6191 22.1914 14.3311 22.0791 14.1064 21.8545C13.8818 21.6201 13.7695 21.3174 13.7695 20.9463V16.625H9.46289C9.0918 16.625 8.78906 16.5127 8.55469 16.2881C8.32031 16.0635 8.20312 15.7754 8.20312 15.4238Z" fill="#FBFBFB"/>
</svg>
