<svg width="24" height="21" viewBox="0 0 24 21" fill="none" xmlns="http://www.w3.org/2000/svg">
<path d="M5.97949 19.1973C5.79785 19.0625 5.68652 18.8809 5.64551 18.6523C5.61035 18.4238 5.64844 18.1514 5.75977 17.835L7.59668 12.3682L2.90332 8.99316C2.62793 8.7998 2.4375 8.60059 2.33203 8.39551C2.22656 8.19043 2.20898 7.97949 2.2793 7.7627C2.34961 7.55176 2.4873 7.39355 2.69238 7.28809C2.89746 7.18262 3.16992 7.13281 3.50977 7.13867L9.2666 7.17383L11.0156 1.68066C11.1211 1.3584 11.2529 1.11523 11.4111 0.951172C11.5752 0.787109 11.7686 0.705078 11.9912 0.705078C12.2197 0.705078 12.4131 0.787109 12.5713 0.951172C12.7354 1.11523 12.8701 1.3584 12.9756 1.68066L14.7246 7.17383L20.4814 7.13867C20.8213 7.13281 21.0938 7.18262 21.2988 7.28809C21.5039 7.39355 21.6416 7.55176 21.7119 7.7627C21.7822 7.97949 21.7646 8.19043 21.6592 8.39551C21.5537 8.60059 21.3633 8.7998 21.0879 8.99316L16.3945 12.3682L18.2314 17.835C18.3428 18.1514 18.3779 18.4238 18.3369 18.6523C18.3018 18.8809 18.1934 19.0625 18.0117 19.1973C17.8301 19.3379 17.625 19.3848 17.3965 19.3379C17.168 19.2969 16.9189 19.1797 16.6494 18.9863L11.9912 15.5674L7.3418 18.9863C7.07227 19.1797 6.82324 19.2969 6.59473 19.3379C6.36621 19.3848 6.16113 19.3379 5.97949 19.1973ZM7.24512 17.457C7.25684 17.4746 7.2832 17.4688 7.32422 17.4395L11.5518 14.2139C11.6924 14.1025 11.8389 14.0469 11.9912 14.0469C12.1494 14.0469 12.2988 14.1025 12.4395 14.2139L16.667 17.4395C16.708 17.4688 16.7344 17.4746 16.7461 17.457C16.752 17.4453 16.752 17.4189 16.7461 17.3779L14.9971 12.3506C14.9561 12.2393 14.9355 12.1338 14.9355 12.0342C14.9414 11.9346 14.9707 11.8438 15.0234 11.7617C15.0762 11.6738 15.1523 11.5947 15.252 11.5244L19.6289 8.50098C19.6699 8.47754 19.6846 8.4541 19.6729 8.43066C19.667 8.41309 19.6406 8.4043 19.5938 8.4043L14.2764 8.50098C14.0947 8.50684 13.9453 8.47168 13.8281 8.39551C13.7109 8.31348 13.626 8.18164 13.5732 8L12.0439 2.91113C12.0322 2.86426 12.0146 2.84082 11.9912 2.84082C11.9736 2.84082 11.959 2.86426 11.9473 2.91113L10.418 8C10.3652 8.18164 10.2803 8.31348 10.1631 8.39551C10.0459 8.47168 9.89648 8.50684 9.71484 8.50098L4.39746 8.4043C4.35059 8.4043 4.32422 8.41309 4.31836 8.43066C4.30664 8.4541 4.32129 8.47754 4.3623 8.50098L8.73926 11.5244C8.83887 11.5947 8.91504 11.6738 8.96777 11.7617C9.02051 11.8438 9.04688 11.9346 9.04688 12.0342C9.05273 12.1338 9.03516 12.2393 8.99414 12.3506L7.24512 17.3779C7.2334 17.4189 7.2334 17.4453 7.24512 17.457Z" fill="white"/>
</svg>
