<svg width="12" height="12" viewBox="0 0 12 12" fill="none" xmlns="http://www.w3.org/2000/svg">
<path d="M3.42878 3.89379V3.49379H3.22175L3.1022 3.66283L3.42878 3.89379ZM5.62212 3.89379H6.02212V3.49379H5.62212V3.89379ZM5.62212 5.63308V6.03308H6.02212V5.63308H5.62212ZM3.54695 5.63308L3.18671 5.80695L3.29585 6.03308H3.54695V5.63308ZM3.00007 4.49999L2.67349 4.26903L2.53736 4.46152L2.63984 4.67385L3.00007 4.49999ZM9.09805 1.59969L9.40969 1.34893L9.40968 1.34892L9.09805 1.59969ZM8.57985 1.07868L8.40528 1.43857L8.40533 1.43859L8.57985 1.07868ZM8.57985 3.42132L8.40533 3.06141L8.40528 3.06143L8.57985 3.42132ZM9.09805 2.90031L9.40968 3.15107L9.40969 3.15107L9.09805 2.90031ZM9.19205 2.78348L8.88044 2.53269L8.88041 2.53272L9.19205 2.78348ZM9.19205 1.71651L8.88041 1.96727L8.88044 1.96731L9.19205 1.71651ZM9.09805 6.0997L8.78642 6.35047L8.78643 6.35049L9.09805 6.0997ZM8.57985 5.5787L8.40524 5.93858L8.40537 5.93864L8.57985 5.5787ZM6 5.5V5.1C5.77909 5.1 5.6 5.27909 5.6 5.5H6ZM6 8H5.6C5.6 8.22091 5.77909 8.4 6 8.4V8ZM8.57985 7.9213L8.40537 7.56136L8.40524 7.56142L8.57985 7.9213ZM9.09805 7.4003L8.78643 7.14951L8.78642 7.14953L9.09805 7.4003ZM9.19205 7.2835L9.50367 7.53429L9.50367 7.53429L9.19205 7.2835ZM9.19205 6.2165L9.50367 5.96571L9.50367 5.96571L9.19205 6.2165ZM2.90194 4.09969L2.59032 3.84891L2.59032 3.84891L2.90194 4.09969ZM6 6V6.4C6.22091 6.4 6.4 6.22091 6.4 6H6ZM3.42013 5.9213L3.59473 5.56142L3.59464 5.56137L3.42013 5.9213ZM2.90194 5.4003L3.21357 5.14952L3.21354 5.14949L2.90194 5.4003ZM2.80792 5.2835L2.4963 5.53427L2.49633 5.53431L2.80792 5.2835ZM2.80792 4.21652L3.11955 4.4673L3.11955 4.46729L2.80792 4.21652ZM5.6 11C5.6 11.2209 5.77909 11.4 6 11.4C6.22091 11.4 6.4 11.2209 6.4 11H5.6ZM6.4 1.5C6.4 1.27909 6.22091 1.1 6 1.1C5.77909 1.1 5.6 1.27909 5.6 1.5H6.4ZM4.5 10.6C4.27909 10.6 4.1 10.7791 4.1 11C4.1 11.2209 4.27909 11.4 4.5 11.4V10.6ZM7.5 11.4C7.72091 11.4 7.9 11.2209 7.9 11C7.9 10.7791 7.72091 10.6 7.5 10.6V11.4ZM3.42878 4.29379H5.62212V3.49379H3.42878V4.29379ZM5.22212 3.89379V5.63308H6.02212V3.89379H5.22212ZM5.62212 5.23308H3.54695V6.03308H5.62212V5.23308ZM3.90719 5.45922L3.36031 4.32612L2.63984 4.67385L3.18671 5.80695L3.90719 5.45922ZM3.32666 4.73095L3.75537 4.12475L3.1022 3.66283L2.67349 4.26903L3.32666 4.73095ZM9.40968 1.34892C9.19656 1.08408 9.01653 0.845875 8.75437 0.718757L8.40533 1.43859C8.46767 1.46883 8.52494 1.52552 8.78642 1.85046L9.40968 1.34892ZM8.75442 0.718778C8.49027 0.590653 8.19401 0.6 7.8616 0.6V1.4C8.27059 1.4 8.34503 1.40935 8.40528 1.43857L8.75442 0.718778ZM7.8616 0.6H6.80475V1.4H7.8616V0.6ZM6.80475 0.6C6.62677 0.6 6.45164 0.59909 6.30808 0.619076C6.15155 0.640868 5.97512 0.694016 5.83011 0.84418L6.40559 1.3999C6.37843 1.42802 6.35577 1.42015 6.41839 1.41143C6.49399 1.40091 6.60338 1.4 6.80475 1.4V0.6ZM5.83011 0.84418C5.687 0.99238 5.63823 1.1693 5.61806 1.32464C5.59921 1.46985 5.6 1.64784 5.6 1.83334H6.4C6.4 1.62599 6.40079 1.50935 6.4114 1.42764C6.4207 1.35604 6.43085 1.37374 6.40559 1.3999L5.83011 0.84418ZM5.6 1.83334V3.5H6.4V1.83334H5.6ZM6 3.9H7.8616V3.1H6V3.9ZM7.8616 3.9C8.19401 3.9 8.49027 3.90935 8.75442 3.78122L8.40528 3.06143C8.34503 3.09065 8.27059 3.1 7.8616 3.1V3.9ZM8.75437 3.78124C9.01653 3.65412 9.19656 3.41592 9.40968 3.15107L8.78642 2.64954C8.52494 2.97448 8.46767 3.03118 8.40533 3.06141L8.75437 3.78124ZM9.40969 3.15107L9.50369 3.03425L8.88041 2.53272L8.78641 2.64954L9.40969 3.15107ZM9.50366 3.03428C9.60005 2.91452 9.69557 2.79694 9.7628 2.68871C9.83599 2.57089 9.9 2.42738 9.9 2.25H9.1C9.1 2.22347 9.11269 2.21917 9.08323 2.2666C9.0478 2.32363 8.98935 2.39737 8.88044 2.53269L9.50366 3.03428ZM9.9 2.25C9.9 2.07262 9.83599 1.92911 9.7628 1.81129C9.69557 1.70306 9.60005 1.58548 9.50366 1.46572L8.88044 1.96731C8.98935 2.10263 9.0478 2.17637 9.08323 2.2334C9.11269 2.28083 9.1 2.27653 9.1 2.25H9.9ZM9.50369 1.46576L9.40969 1.34893L8.78641 1.85045L8.88041 1.96727L9.50369 1.46576ZM9.40969 5.84893C9.19657 5.58409 9.01652 5.34586 8.75433 5.21876L8.40537 5.93864C8.46768 5.96884 8.52493 6.02551 8.78642 6.35047L9.40969 5.84893ZM8.75446 5.21882C8.49029 5.09065 8.19401 5.1 7.8616 5.1V5.9C8.27059 5.9 8.34501 5.90935 8.40524 5.93858L8.75446 5.21882ZM7.8616 5.1H6V5.9H7.8616V5.1ZM5.6 5.5V8H6.4V5.5H5.6ZM6 8.4H7.8616V7.6H6V8.4ZM7.8616 8.4C8.19401 8.4 8.49029 8.40935 8.75446 8.28118L8.40524 7.56142C8.34501 7.59065 8.27059 7.6 7.8616 7.6V8.4ZM8.75433 8.28124C9.01652 8.15414 9.19657 7.91591 9.40969 7.65107L8.78642 7.14953C8.52493 7.47449 8.46768 7.53116 8.40537 7.56136L8.75433 8.28124ZM9.40967 7.65109L9.50367 7.53429L8.88043 7.03271L8.78643 7.14951L9.40967 7.65109ZM9.50367 7.53429C9.60006 7.41452 9.69558 7.29694 9.7628 7.18871C9.83598 7.07089 9.9 6.92738 9.9 6.75H9.1C9.1 6.72347 9.11269 6.71916 9.08322 6.7666C9.0478 6.82364 8.98934 6.89738 8.88043 7.03271L9.50367 7.53429ZM9.9 6.75C9.9 6.57262 9.83598 6.42911 9.7628 6.31129C9.69558 6.20306 9.60006 6.08548 9.50367 5.96571L8.88043 6.46729C8.98934 6.60262 9.0478 6.67636 9.08322 6.7334C9.11269 6.78084 9.1 6.77653 9.1 6.75H9.9ZM9.50367 5.96571L9.40967 5.84891L8.78643 6.35049L8.88043 6.46729L9.50367 5.96571ZM3.21356 4.35047C3.47506 4.02554 3.53234 3.96881 3.59468 3.93858L3.24558 3.21877C2.98349 3.34589 2.80345 3.58406 2.59032 3.84891L3.21356 4.35047ZM3.59468 3.93858C3.65496 3.90935 3.72942 3.9 4.1384 3.9V3.1C3.80597 3.1 3.50973 3.09065 3.24558 3.21877L3.59468 3.93858ZM4.1384 3.9H6V3.1H4.1384V3.9ZM5.6 3.5V6H6.4V3.5H5.6ZM6 5.6H4.1384V6.4H6V5.6ZM4.1384 5.6C3.72941 5.6 3.65498 5.59065 3.59473 5.56142L3.24553 6.28118C3.50971 6.40935 3.80598 6.4 4.1384 6.4V5.6ZM3.59464 5.56137C3.53234 5.53117 3.47507 5.47448 3.21357 5.14952L2.59031 5.65108C2.80344 5.91592 2.98349 6.15413 3.24562 6.28123L3.59464 5.56137ZM3.21354 5.14949L3.11952 5.03269L2.49633 5.53431L2.59034 5.65111L3.21354 5.14949ZM3.11955 5.03273C3.01065 4.89739 2.9522 4.82365 2.91678 4.76662C2.88732 4.71918 2.9 4.72348 2.9 4.75H2.1C2.1 4.92737 2.164 5.07087 2.23718 5.1887C2.3044 5.29693 2.39992 5.41451 2.4963 5.53427L3.11955 5.03273ZM2.9 4.75C2.9 4.77652 2.88732 4.78082 2.91677 4.73339C2.95219 4.67636 3.01064 4.60262 3.11955 4.4673L2.4963 3.96573C2.39992 4.0855 2.30441 4.20307 2.23719 4.3113C2.164 4.42912 2.1 4.57263 2.1 4.75H2.9ZM3.11955 4.46729L3.21356 4.35047L2.59032 3.84891L2.4963 3.96574L3.11955 4.46729ZM6.4 11V1.5H5.6V11H6.4ZM4.5 11.4H7.5V10.6H4.5V11.4Z" fill="white"/>
</svg>
