<svg width="13" height="18" viewBox="0 0 13 18" fill="none" xmlns="http://www.w3.org/2000/svg">
<path d="M10.9346 12.0501C10.6235 12.3054 10.2777 12.498 9.89699 12.628C9.51632 12.758 9.11939 12.823 8.70622 12.823C8.17698 12.823 7.68025 12.7255 7.21601 12.5305C6.75177 12.3309 6.34324 12.0547 5.99041 11.7019C5.63759 11.3491 5.36137 10.9428 5.16175 10.4832C4.96212 10.019 4.86231 9.52459 4.86231 9C4.86231 8.47541 4.96212 7.98331 5.16175 7.52372C5.36137 7.05948 5.63759 6.65095 5.99041 6.29812C6.34324 5.9453 6.75177 5.6714 7.21601 5.47642C7.68025 5.2768 8.17698 5.17698 8.70622 5.17698C9.11939 5.17698 9.51632 5.24198 9.89699 5.37196C10.2777 5.50195 10.6235 5.69693 10.9346 5.95691V8.12259C10.7628 7.72334 10.475 7.38677 10.0711 7.11286C9.66719 6.83432 9.21456 6.69505 8.71318 6.69505C8.28144 6.69505 7.89148 6.7995 7.5433 7.00841C7.19047 7.21732 6.90961 7.49818 6.7007 7.85101C6.49179 8.19919 6.38734 8.58218 6.38734 9C6.38734 9.42246 6.49179 9.8101 6.7007 10.1629C6.90961 10.5111 7.19047 10.7896 7.5433 10.9986C7.89148 11.2075 8.28144 11.3119 8.71318 11.3119C9.21456 11.3119 9.66719 11.1726 10.0711 10.8941C10.475 10.6156 10.7628 10.279 10.9346 9.88438V12.0501ZM8.99173 16.2839C8.99173 16.4928 8.92441 16.6716 8.78978 16.8201C8.65051 16.964 8.48338 17.036 8.2884 17.036C8.08878 17.036 7.92165 16.964 7.78702 16.8201C7.64775 16.6762 7.57811 16.4975 7.57811 16.2839V14.8494C7.57811 14.6359 7.64775 14.4571 7.78702 14.3132C7.92165 14.1693 8.08878 14.0974 8.2884 14.0974C8.48338 14.0974 8.65051 14.1693 8.78978 14.3132C8.92441 14.4571 8.99173 14.6359 8.99173 14.8494V16.2839ZM5.10604 12.6071C5.24531 12.7418 5.31262 12.9112 5.30798 13.1155C5.2987 13.3151 5.21978 13.4892 5.07122 13.6378L4.0615 14.6544C3.91294 14.8076 3.73885 14.8866 3.53923 14.8912C3.33496 14.8912 3.16551 14.8216 3.03088 14.6823C2.89161 14.543 2.8243 14.3736 2.82894 14.174C2.82894 13.9743 2.90554 13.8002 3.05874 13.6517L4.06846 12.628C4.21702 12.4795 4.39343 12.4052 4.59769 12.4052C4.79732 12.4006 4.96676 12.4679 5.10604 12.6071ZM5.10604 5.39982C4.96676 5.53909 4.79732 5.60641 4.59769 5.60176C4.39343 5.59712 4.21702 5.52052 4.06846 5.37196L3.05874 4.35528C2.90554 4.20208 2.82894 4.02567 2.82894 3.82605C2.8243 3.62642 2.89161 3.4593 3.03088 3.32467C3.16551 3.18539 3.33496 3.11808 3.53923 3.12272C3.73885 3.12272 3.91294 3.197 4.0615 3.34556L5.07122 4.36224C5.21978 4.5108 5.29637 4.68721 5.30102 4.89148C5.30566 5.0911 5.24067 5.26055 5.10604 5.39982ZM8.99173 3.15754C8.99173 3.36181 8.92441 3.53822 8.78978 3.68677C8.65051 3.83069 8.48338 3.90497 8.2884 3.90961C8.08878 3.90961 7.92165 3.83533 7.78702 3.68677C7.64775 3.53822 7.57811 3.36181 7.57811 3.15754V1.71608C7.57811 1.50252 7.64775 1.32611 7.78702 1.18684C7.92165 1.04293 8.08878 0.97097 8.2884 0.97097C8.48338 0.97097 8.65051 1.04293 8.78978 1.18684C8.92441 1.32611 8.99173 1.50252 8.99173 1.71608V3.15754ZM3.61583 9C3.61583 9.19498 3.54155 9.36211 3.39299 9.50138C3.24443 9.64065 3.06802 9.71029 2.86376 9.71029H1.42229C1.20874 9.71029 1.03001 9.64065 0.886095 9.50138C0.742181 9.36211 0.670224 9.19498 0.670224 9C0.670224 8.80502 0.742181 8.63789 0.886095 8.49862C1.03001 8.35935 1.20874 8.28971 1.42229 8.28971H2.86376C3.06802 8.28971 3.24443 8.35935 3.39299 8.49862C3.53691 8.63789 3.61118 8.80502 3.61583 9ZM12.3621 17.0847C12.3621 17.3122 12.2762 17.5095 12.1045 17.6766C11.9373 17.8438 11.7447 17.9273 11.5265 17.9273C11.299 17.9273 11.104 17.8461 10.9415 17.6836C10.7744 17.5165 10.6908 17.3169 10.6908 17.0847L10.6908 0.922225C10.6908 0.685462 10.7721 0.485839 10.9346 0.323355C11.0971 0.160871 11.2944 0.0796292 11.5265 0.0796292C11.7493 0.0796292 11.9443 0.163192 12.1114 0.330319C12.2785 0.492803 12.3621 0.690105 12.3621 0.922225L12.3621 17.0847Z" fill="white"/>
</svg>
