<svg width="31" height="17" viewBox="0 0 31 17" fill="none" xmlns="http://www.w3.org/2000/svg">
<path d="M9.40544 16.8802C7.91672 16.8802 7.17236 16.3941 7.17236 15.4219C7.17236 14.8264 7.35465 14.1914 7.71924 13.5169C8.08382 12.8424 8.60943 12.2075 9.29606 11.612C9.98877 11.0104 10.8243 10.5213 11.8026 10.1445C12.7869 9.7678 13.8989 9.57943 15.1385 9.57943C16.372 9.57943 17.4779 9.7678 18.4562 10.1445C19.4406 10.5213 20.2761 11.0104 20.9627 11.612C21.6554 12.2075 22.1841 12.8424 22.5487 13.5169C22.9132 14.1914 23.0955 14.8264 23.0955 15.4219C23.0955 16.3941 22.3512 16.8802 20.8625 16.8802H9.40544ZM8.97705 15.5039H21.3C21.4154 15.5039 21.4975 15.4857 21.5461 15.4492C21.6007 15.4128 21.6281 15.3459 21.6281 15.2487C21.6281 14.872 21.4853 14.4405 21.1997 13.9544C20.9202 13.4683 20.504 12.9974 19.951 12.5417C19.3981 12.0859 18.7175 11.7092 17.9093 11.4115C17.1073 11.1076 16.1836 10.9557 15.1385 10.9557C14.0934 10.9557 13.1667 11.1076 12.3586 11.4115C11.5504 11.7092 10.8698 12.0859 10.3169 12.5417C9.76394 12.9974 9.34467 13.4683 9.05908 13.9544C8.77957 14.4405 8.63981 14.872 8.63981 15.2487C8.63981 15.3459 8.66412 15.4128 8.71273 15.4492C8.76742 15.4857 8.85552 15.5039 8.97705 15.5039ZM15.1385 8.4401C14.4154 8.4401 13.7561 8.2487 13.1606 7.86589C12.5652 7.48307 12.0882 6.96962 11.7297 6.32552C11.3772 5.67535 11.201 4.96137 11.201 4.18359C11.201 3.41189 11.3772 2.71007 11.7297 2.07813C12.0882 1.44618 12.5652 0.94184 13.1606 0.565104C13.7561 0.188368 14.4154 0 15.1385 0C15.8677 0 16.53 0.18533 17.1255 0.55599C17.721 0.926649 18.1949 1.42795 18.5474 2.0599C18.8998 2.68576 19.076 3.38759 19.076 4.16536C19.076 4.94922 18.8968 5.66623 18.5382 6.31641C18.1858 6.9605 17.7119 7.477 17.1164 7.86589C16.5209 8.2487 15.8616 8.4401 15.1385 8.4401ZM15.1385 7.0638C15.5882 7.0638 15.9983 6.9362 16.369 6.68099C16.7457 6.41971 17.0465 6.07031 17.2713 5.63281C17.4961 5.18924 17.6086 4.70009 17.6086 4.16536C17.6086 3.63672 17.4961 3.16276 17.2713 2.74349C17.0526 2.31814 16.7548 1.98394 16.3781 1.74089C16.0074 1.49783 15.5942 1.3763 15.1385 1.3763C14.6889 1.3763 14.2757 1.50087 13.8989 1.75C13.5283 1.99306 13.2305 2.32726 13.0057 2.7526C12.7809 3.17795 12.6685 3.65495 12.6685 4.18359C12.6685 4.71832 12.7809 5.20443 13.0057 5.64193C13.2366 6.07943 13.5374 6.42578 13.908 6.68099C14.2848 6.9362 14.6949 7.0638 15.1385 7.0638Z" fill="#F5F5F5"/>
<mask id="mask0_97_4128" style="mask-type:alpha" maskUnits="userSpaceOnUse" x="0" y="1" width="14" height="15">
<path d="M1.86089 15.9035C0.620298 15.9035 0 15.4984 0 14.6882C0 14.192 0.15191 13.6628 0.455729 13.1008C0.759549 12.5387 1.19755 12.0096 1.76975 11.5133C2.34701 11.012 3.04326 10.6044 3.85851 10.2904C4.67882 9.9765 5.60547 9.81953 6.63845 9.81953C7.66638 9.81953 8.58796 9.9765 9.40321 10.2904C10.2235 10.6044 10.9198 11.012 11.492 11.5133C12.0692 12.0096 12.5098 12.5387 12.8136 13.1008C13.1174 13.6628 13.2693 14.192 13.2693 14.6882C13.2693 15.4984 12.649 15.9035 11.4084 15.9035H1.86089ZM1.50391 14.7566H11.773C11.8692 14.7566 11.9376 14.7414 11.9781 14.711C12.0237 14.6806 12.0464 14.6249 12.0464 14.5439C12.0464 14.23 11.9274 13.8705 11.6895 13.4654C11.4565 13.0603 11.1097 12.6678 10.6489 12.2881C10.1881 11.9083 9.62095 11.5943 8.94748 11.3462C8.27908 11.093 7.5094 10.9664 6.63845 10.9664C5.76751 10.9664 4.9953 11.093 4.32183 11.3462C3.64837 11.5943 3.08124 11.9083 2.62044 12.2881C2.15965 12.6678 1.81026 13.0603 1.57227 13.4654C1.33934 13.8705 1.22287 14.23 1.22287 14.5439C1.22287 14.6249 1.24313 14.6806 1.28364 14.711C1.32921 14.7414 1.40263 14.7566 1.50391 14.7566ZM6.63845 8.87009C6.03588 8.87009 5.48647 8.71058 4.99023 8.39157C4.494 8.07256 4.0965 7.64469 3.79774 7.10794C3.50405 6.56613 3.3572 5.97115 3.3572 5.323C3.3572 4.67991 3.50405 4.09506 3.79774 3.56844C4.0965 3.04182 4.494 2.62154 4.99023 2.30759C5.48647 1.99364 6.03588 1.83667 6.63845 1.83667C7.24609 1.83667 7.79803 1.99111 8.29427 2.29999C8.79051 2.60888 9.18547 3.02663 9.47917 3.55325C9.77286 4.07481 9.9197 4.65966 9.9197 5.30781C9.9197 5.96102 9.77033 6.55853 9.47157 7.10034C9.17788 7.63709 8.78291 8.0675 8.28668 8.39157C7.79044 8.71058 7.24103 8.87009 6.63845 8.87009ZM6.63845 7.72317C7.01317 7.72317 7.35496 7.61683 7.66385 7.40416C7.97779 7.18642 8.22844 6.89526 8.4158 6.53068C8.60315 6.16103 8.69683 5.75341 8.69683 5.30781C8.69683 4.86727 8.60315 4.4723 8.4158 4.12291C8.23351 3.76846 7.98539 3.48995 7.67144 3.28741C7.36256 3.08486 7.01823 2.98359 6.63845 2.98359C6.26374 2.98359 5.91942 3.08739 5.60547 3.295C5.29659 3.49755 5.04847 3.77605 4.86111 4.13051C4.67376 4.48496 4.58008 4.88246 4.58008 5.323C4.58008 5.7686 4.67376 6.17369 4.86111 6.53828C5.05353 6.90286 5.30418 7.19149 5.61306 7.40416C5.92701 7.61683 6.26881 7.72317 6.63845 7.72317Z" fill="#F5F5F5"/>
</mask>
<g mask="url(#mask0_97_4128)">
<path d="M-0.861748 14.0208C-2.46175 18.0208 3.97152 17.3541 7.13818 16.5208C6.13818 13.5208 9.13826 11.3541 10.6383 10.5208C10.4716 8.85409 10.2383 4.62075 10.6383 3.02075C11.1383 1.02075 8.63827 1.02075 5.13827 1.02075C1.63827 1.02075 2.13827 5.02075 3.13827 7.52075C4.13827 10.0208 1.13825 9.02075 -0.861748 14.0208Z" fill="#FBFBFB"/>
</g>
<mask id="mask1_97_4128" style="mask-type:alpha" maskUnits="userSpaceOnUse" x="17" y="1" width="14" height="15">
<path d="M18.9722 15.9035C17.7316 15.9035 17.1113 15.4984 17.1113 14.6882C17.1113 14.192 17.2632 13.6628 17.5671 13.1008C17.8709 12.5387 18.3089 12.0096 18.8811 11.5133C19.4583 11.012 20.1546 10.6044 20.9698 10.2904C21.7901 9.9765 22.7168 9.81953 23.7498 9.81953C24.7777 9.81953 25.6993 9.9765 26.5145 10.2904C27.3349 10.6044 28.0311 11.012 28.6033 11.5133C29.1806 12.0096 29.6211 12.5387 29.9249 13.1008C30.2287 13.6628 30.3806 14.192 30.3806 14.6882C30.3806 15.4984 29.7603 15.9035 28.5197 15.9035H18.9722ZM18.6152 14.7566H28.8843C28.9805 14.7566 29.0489 14.7414 29.0894 14.711C29.135 14.6806 29.1578 14.6249 29.1578 14.5439C29.1578 14.23 29.0388 13.8705 28.8008 13.4654C28.5679 13.0603 28.221 12.6678 27.7602 12.2881C27.2994 11.9083 26.7323 11.5943 26.0588 11.3462C25.3904 11.093 24.6207 10.9664 23.7498 10.9664C22.8788 10.9664 22.1066 11.093 21.4332 11.3462C20.7597 11.5943 20.1926 11.9083 19.7318 12.2881C19.271 12.6678 18.9216 13.0603 18.6836 13.4654C18.4507 13.8705 18.3342 14.23 18.3342 14.5439C18.3342 14.6249 18.3545 14.6806 18.395 14.711C18.4405 14.7414 18.514 14.7566 18.6152 14.7566ZM23.7498 8.87009C23.1472 8.87009 22.5978 8.71058 22.1016 8.39157C21.6053 8.07256 21.2078 7.64469 20.9091 7.10794C20.6154 6.56613 20.4685 5.97115 20.4685 5.323C20.4685 4.67991 20.6154 4.09506 20.9091 3.56844C21.2078 3.04182 21.6053 2.62154 22.1016 2.30759C22.5978 1.99364 23.1472 1.83667 23.7498 1.83667C24.3574 1.83667 24.9094 1.99111 25.4056 2.29999C25.9018 2.60888 26.2968 3.02663 26.5905 3.55325C26.8842 4.07481 27.031 4.65966 27.031 5.30781C27.031 5.96102 26.8817 6.55853 26.5829 7.10034C26.2892 7.63709 25.8942 8.0675 25.398 8.39157C24.9018 8.71058 24.3524 8.87009 23.7498 8.87009ZM23.7498 7.72317C24.1245 7.72317 24.4663 7.61683 24.7752 7.40416C25.0891 7.18642 25.3398 6.89526 25.5271 6.53068C25.7145 6.16103 25.8082 5.75341 25.8082 5.30781C25.8082 4.86727 25.7145 4.4723 25.5271 4.12291C25.3448 3.76846 25.0967 3.48995 24.7828 3.28741C24.4739 3.08486 24.1296 2.98359 23.7498 2.98359C23.3751 2.98359 23.0307 3.08739 22.7168 3.295C22.4079 3.49755 22.1598 3.77605 21.9724 4.13051C21.7851 4.48496 21.6914 4.88246 21.6914 5.323C21.6914 5.7686 21.7851 6.17369 21.9724 6.53828C22.1649 6.90286 22.4155 7.19149 22.7244 7.40416C23.0383 7.61683 23.3801 7.72317 23.7498 7.72317Z" fill="#F5F5F5"/>
</mask>
<g mask="url(#mask1_97_4128)">
<path d="M31.2026 14.0208C32.8026 18.0208 26.3693 17.3541 23.2026 16.5208C24.2026 13.5208 21.2026 11.3541 19.7026 10.5208C19.8692 8.85409 20.1026 4.62075 19.7026 3.02075C19.2026 1.02075 21.7026 1.02075 25.2026 1.02075C28.7026 1.02075 28.2026 5.02075 27.2026 7.52075C26.2026 10.0208 29.2026 9.02075 31.2026 14.0208Z" fill="#FBFBFB"/>
</g>
</svg>
