<svg width="24" height="24" viewBox="0 0 24 24" fill="none" xmlns="http://www.w3.org/2000/svg">
<path d="M15 8C15 9.65685 13.6569 11 12 11C10.3431 11 9 9.65685 9 8C9 6.34315 10.3431 5 12 5C13.6569 5 15 6.34315 15 8Z" stroke="white" stroke-width="2" stroke-linecap="round" stroke-linejoin="round"/>
<path d="M16 4C17.6568 4 19 5.34315 19 7C19 8.22309 18.268 9.27523 17.2183 9.7423" stroke="white" stroke-width="2" stroke-linecap="round" stroke-linejoin="round"/>
<path d="M13.7143 15H10.2857C7.91878 15 6 16.9188 6 19.2857C6 20.2325 6.76751 21 7.71428 21H16.2857C17.2325 21 18 20.2325 18 19.2857C18 16.9188 16.0812 15 13.7143 15Z" stroke="white" stroke-width="2" stroke-linecap="round" stroke-linejoin="round"/>
<path d="M17.7144 13C20.0813 13 22.0001 14.9188 22.0001 17.2857C22.0001 18.2325 21.2326 19 20.2858 19" stroke="white" stroke-width="2" stroke-linecap="round" stroke-linejoin="round"/>
<path d="M8 4C6.34315 4 5 5.34315 5 7C5 8.22309 5.73193 9.27523 6.78168 9.7423" stroke="white" stroke-width="2" stroke-linecap="round" stroke-linejoin="round"/>
<path d="M3.71429 19C2.76751 19 2 18.2325 2 17.2857C2 14.9188 3.91878 13 6.28571 13" stroke="white" stroke-width="2" stroke-linecap="round" stroke-linejoin="round"/>
</svg>
