<svg width="23" height="19" viewBox="0 0 23 19" fill="none" xmlns="http://www.w3.org/2000/svg">
<path d="M8.40247 0.70433C8.41617 0.944239 8.4193 1.38823 8.421 1.62822C8.42269 1.86822 8.42583 2.31221 8.41552 2.55228C8.40564 2.85236 8.23857 2.98554 7.93858 2.98766C7.56659 2.99029 6.71444 2.9723 6.22245 2.97578L6.23279 4.43974C6.24287 5.8677 6.25219 7.18767 6.22305 8.1599C6.21317 8.45998 6.09393 8.56882 5.84211 8.5946C5.60228 8.62029 4.99047 8.64861 4.39048 8.65285C3.7905 8.65708 3.17834 8.63741 2.93818 8.6151C2.68602 8.59288 2.56526 8.48573 2.55114 8.18582C2.50828 7.2141 2.49896 5.89413 2.48888 4.46617L2.47855 3.0022C1.98656 3.00568 1.13475 3.03569 0.76276 3.03832C0.462767 3.04044 0.293839 2.90962 0.279722 2.60972C0.266028 2.36981 0.262894 1.92582 0.2612 1.68582C0.259505 1.44583 0.256371 1.00184 0.266677 0.761763C0.276559 0.461685 0.443792 0.352502 0.683617 0.326808C1.01935 0.288437 2.99922 0.262461 4.33119 0.253058C5.65115 0.24374 7.64327 0.253678 7.97944 0.275305C8.2196 0.297611 8.38836 0.404422 8.40247 0.70433ZM12.629 0.602492C12.6557 0.998313 12.6596 1.5503 12.667 2.59427C12.6697 2.97826 12.6705 3.08626 12.4457 3.54386L11.2384 5.91644C11.1555 6.07303 11.0718 6.10962 10.8915 6.07489C10.7714 6.05174 10.5668 5.96918 10.4465 5.92203C10.3261 5.87488 10.1696 5.80398 10.0491 5.73283C9.90452 5.64985 9.86759 5.51811 9.92648 5.36169L10.705 3.44814C10.249 3.45136 9.85293 3.44216 9.70868 3.40718C9.54043 3.37236 9.44375 3.27704 9.43006 3.03713C9.40327 2.64131 9.39988 2.16133 9.39759 1.83733C9.3953 1.51334 9.39183 1.02135 9.41303 0.625194C9.42334 0.385115 9.51866 0.28844 9.6864 0.251255C9.84214 0.214155 10.514 0.197411 11.018 0.193854C11.522 0.190296 12.1941 0.197552 12.3503 0.23245C12.5186 0.267263 12.6153 0.362583 12.629 0.602492ZM21.9096 0.476976C21.9108 0.644972 21.8283 0.849559 21.6038 1.34316L19.4995 5.84612C19.5046 6.56611 19.4984 7.39417 19.4792 8.06632C19.4693 8.3664 19.35 8.47524 19.0982 8.50102C18.8704 8.52663 18.1986 8.55537 17.6226 8.55944C17.0466 8.56351 16.3745 8.54425 16.1463 8.52186C15.8941 8.49964 15.7734 8.39249 15.7592 8.09258C15.7305 7.42077 15.7127 6.59287 15.7076 5.87289L13.54 1.40008C13.3085 0.909703 13.223 0.706301 13.2219 0.538305C13.2207 0.370309 13.3039 0.261719 13.5917 0.235686C13.8316 0.209993 14.4794 0.181419 15.0794 0.177184C15.6793 0.172948 16.2074 0.18122 16.4476 0.203526C16.8679 0.24856 16.9041 0.272305 17.0036 0.775615L17.5632 3.54373L17.6112 3.5434L18.1316 0.767652C18.224 0.262987 18.2599 0.238734 18.6795 0.18777C18.9193 0.162076 19.4472 0.146349 20.0472 0.142114C20.6472 0.137878 21.2954 0.157304 21.5355 0.179609C21.8237 0.201576 21.9085 0.308979 21.9096 0.476976ZM5.90162 11.6423C6.40161 11.6387 6.96174 11.6548 7.16187 11.6734C7.37201 11.6919 7.45279 11.8013 7.45399 11.9713C7.45512 12.1313 7.3873 12.4418 7.34872 12.6421L6.19842 18.2703C6.15011 18.5107 6.0009 18.6217 5.77097 18.6334C5.20113 18.6574 4.47115 18.6625 3.87116 18.6668C3.27117 18.671 2.54119 18.6762 1.97107 18.6602C1.741 18.6518 1.59023 18.5429 1.53854 18.3032L0.308893 12.6918C0.267482 12.492 0.195295 12.1826 0.194166 12.0226C0.192966 11.8526 0.272187 11.742 0.482041 11.7205C0.681895 11.6991 1.24174 11.6752 1.74173 11.6716C2.24171 11.6681 2.69177 11.6749 2.89191 11.6935C3.24211 11.721 3.29261 11.7907 3.33522 12.1604L3.83507 16.387L3.87506 16.3867L4.31519 12.1535C4.35258 11.7832 4.40208 11.7128 4.75186 11.6804C4.95172 11.659 5.40164 11.6458 5.90162 11.6423ZM13.1644 11.931L14.5244 17.5915C14.5861 17.8411 14.6379 18.0907 14.639 18.2507C14.6403 18.4307 14.551 18.5314 14.3512 18.5528C14.1513 18.5742 13.5915 18.5981 13.1315 18.6014C12.6715 18.6046 12.2214 18.5978 12.0213 18.5792C11.6911 18.5516 11.6407 18.5019 11.578 18.1123L11.4839 17.533L10.4239 17.5405L10.338 18.1211C10.2808 18.5115 10.2311 18.5619 9.90134 18.5942C9.70149 18.6156 9.25157 18.6288 8.79158 18.632C8.3316 18.6353 7.77147 18.6192 7.57133 18.6006C7.3712 18.5821 7.28049 18.4827 7.27922 18.3027C7.27809 18.1427 7.32633 17.8924 7.38456 17.6419L8.6645 11.9628C8.71288 11.7324 8.84231 11.6515 9.08223 11.6398C9.32216 11.6281 10.312 11.6011 10.912 11.5969C11.512 11.5927 12.5021 11.6057 12.7421 11.614C12.9822 11.6223 13.1128 11.7014 13.1644 11.931ZM10.906 13.587L10.5823 15.8893L11.2923 15.8843L10.946 13.5867L10.906 13.587ZM18.3544 11.4843C18.8644 11.4807 19.9047 11.5134 20.3149 11.5505C21.4357 11.6526 21.7583 12.0203 21.7696 13.6303C21.7714 13.8803 21.7317 13.9206 21.5218 13.942C21.312 13.9635 20.642 13.9683 20.302 13.9707C19.962 13.9731 19.222 13.9783 18.9919 13.9599C18.8018 13.9412 18.7917 13.9313 18.7805 13.7614L18.7583 13.4515C18.7468 13.2316 18.6665 13.1922 18.3665 13.1943C18.0165 13.1968 17.997 13.2669 17.9884 13.467C17.9799 13.677 17.9827 14.077 17.984 14.267C17.985 14.407 18.0152 14.4268 18.1052 14.4262C18.3852 14.4242 21.3252 14.4134 21.4852 14.4223C21.6653 14.431 21.7459 14.5205 21.7573 14.7204C21.78 15.0903 21.7861 15.9602 21.7894 16.4302C21.8011 18.0902 21.5534 18.4119 20.4342 18.5298C20.0245 18.5727 18.9148 18.6206 18.4048 18.6242C17.9048 18.6277 16.8546 18.5951 16.4443 18.558C15.3236 18.4559 15.0013 18.1382 14.9889 16.3782C14.9871 16.1282 15.0268 16.088 15.2367 16.0665C15.4465 16.045 16.1165 16.0403 16.4565 16.0379C16.7965 16.0355 17.5365 16.0302 17.7666 16.0486C17.9568 16.0673 17.9668 16.0772 17.978 16.2471L18.0009 16.657C18.0125 16.8769 18.0928 16.9163 18.3927 16.9142C18.7327 16.9118 18.7622 16.8416 18.7708 16.6415C18.7793 16.4315 18.7765 16.0315 18.7745 15.7415C18.7735 15.6015 18.7433 15.5817 18.6533 15.5823C18.3734 15.5843 15.4334 15.5951 15.2733 15.5862C15.0932 15.5775 15.0126 15.488 15.0012 15.2881C14.9786 14.9183 14.9731 14.1483 14.9698 13.6783C14.9581 12.0183 15.2258 11.6964 16.345 11.5785C16.7547 11.5356 17.8444 11.4879 18.3544 11.4843Z" fill="white"/>
</svg>
