<svg width="58" height="58" viewBox="0 0 58 58" fill="none" xmlns="http://www.w3.org/2000/svg">
<g filter="url(#filter0_d_543_1467)">
<circle cx="29" cy="29" r="21" fill="#1D1D20"/>
<path d="M20.2622 20.4934C20.2695 20.6935 20.2645 21.0634 20.2619 21.2634C20.2592 21.4634 20.2542 21.8334 20.2415 22.0332C20.2282 22.2831 20.0867 22.3912 19.8367 22.3878C19.5268 22.3837 18.8171 22.3542 18.4071 22.3487L18.3908 23.5686C18.3748 24.7585 18.3601 25.8584 18.3193 26.6679C18.3059 26.9177 18.2047 27.0064 17.9945 27.0236C17.7942 27.0409 17.284 27.054 16.784 27.0473C16.2841 27.0406 15.7744 27.0138 15.5747 26.9911C15.365 26.9683 15.2662 26.877 15.2595 26.6269C15.2404 25.8165 15.2551 24.7166 15.2711 23.5268L15.2874 22.3069C14.8775 22.3014 14.1673 22.3119 13.8573 22.3077C13.6073 22.3043 13.4688 22.1925 13.4621 21.9424C13.4548 21.7423 13.4598 21.3723 13.4625 21.1723C13.4651 20.9723 13.4701 20.6024 13.4828 20.4025C13.4961 20.1527 13.6373 20.0645 13.8376 20.0472C14.1179 20.021 15.7679 20.0331 16.8778 20.048C17.9777 20.0627 19.6373 20.105 19.917 20.1287C20.1167 20.1514 20.2555 20.2433 20.2622 20.4934ZM23.7852 20.4806C23.8008 20.8108 23.7946 21.2708 23.783 22.1407C23.7787 22.4607 23.7775 22.5507 23.5824 22.9281L22.5361 24.8842C22.4644 25.0133 22.394 25.0423 22.2444 25.0103C22.1447 24.989 21.9756 24.9167 21.8762 24.8754C21.7767 24.834 21.6475 24.7723 21.5483 24.711C21.4293 24.6394 21.4008 24.529 21.4525 24.3997L22.1338 22.8187C21.7538 22.8136 21.424 22.7991 21.3044 22.7675C21.1648 22.7357 21.0859 22.6546 21.0785 22.4545C21.063 22.1242 21.0683 21.7243 21.0719 21.4543C21.0756 21.1843 21.0811 20.7744 21.1055 20.4447C21.1182 20.2448 21.1992 20.1659 21.3396 20.1378C21.47 20.1095 22.0301 20.107 22.45 20.1126C22.87 20.1183 23.4298 20.1358 23.5594 20.1675C23.699 20.1994 23.7779 20.2805 23.7852 20.4806ZM30.3136 21.7282C30.5633 21.7515 30.6218 21.8623 30.5688 22.0816L29.4626 27.0172C29.1007 28.6525 28.8684 28.8194 27.0686 28.7953C25.4787 28.774 25.2701 28.6712 25.2356 28.2607C25.2176 28.1105 25.2121 27.7703 25.2148 27.5704C25.219 27.2604 25.2696 27.2111 25.6096 27.2156L26.8695 27.2325C27.0895 27.2355 27.1905 27.1568 27.2555 26.7876C26.8155 26.7817 26.0356 26.7713 25.6059 26.7455C25.3661 26.7323 25.2673 26.641 25.2204 26.4103L24.3294 21.998C24.2824 21.7774 24.3438 21.6682 24.5941 21.6515C24.8443 21.6349 25.4243 21.6426 25.6742 21.646C25.9242 21.6493 26.4542 21.6564 26.7037 21.6898C26.8535 21.7118 26.9427 21.773 26.9606 21.9233L27.3833 25.4592L27.4233 25.4598L27.9406 21.9364C27.9626 21.7867 28.0534 21.7279 28.2036 21.7099C28.454 21.6832 28.9639 21.6901 29.2139 21.6934C29.4639 21.6968 30.0638 21.7048 30.3136 21.7282ZM18.1439 31.546C18.3938 31.5493 18.9738 31.5571 19.2235 31.5804C19.4732 31.6038 19.5317 31.7146 19.4788 31.9339L18.3646 36.7194C18.3115 36.9487 18.2103 37.0374 17.9702 37.0441C17.45 37.0572 16.84 37.049 16.2901 37.0416C15.7401 37.0343 15.1302 37.0261 14.6105 36.9991C14.3706 36.9859 14.2619 36.8944 14.2149 36.6638L13.2394 31.8503C13.1923 31.6296 13.2538 31.5204 13.504 31.5038C13.7543 31.4871 14.3342 31.4949 14.5842 31.4983C14.8342 31.5016 15.3641 31.5087 15.6137 31.5421C15.7634 31.5641 15.8526 31.6253 15.8706 31.7755L16.2932 35.3115L16.3332 35.312L16.8505 31.7887C16.8725 31.6389 16.9633 31.5802 17.1136 31.5622C17.3639 31.5355 17.8939 31.5426 18.1439 31.546ZM24.6193 31.6328C25.8081 31.7287 26.1641 32.0335 26.1461 33.3734C26.1304 34.5433 26.1081 36.2131 26.0795 36.8528C26.0665 37.0726 25.9359 37.1209 25.7756 37.1387C25.6054 37.1565 25.1653 37.1606 24.7253 37.1547C24.2654 37.1485 23.8855 37.1334 23.6858 37.1107C23.526 37.0986 23.4068 37.037 23.4097 36.817L23.4214 35.9471L23.3714 35.9464C23.1989 36.8742 22.7148 37.1777 21.4449 37.1607C20.1251 37.143 19.83 36.769 19.8492 35.3392C19.853 35.0592 19.8672 34.7394 19.8903 34.5096C19.9254 34.1301 20.0878 33.9522 20.4978 33.9577L23.4275 33.997C23.431 33.737 23.436 33.3671 23.429 33.1369C23.4212 32.9768 23.322 32.9155 23.052 32.9119C22.6921 32.907 22.6414 32.9564 22.6274 33.2562C22.6144 33.4761 22.594 33.5058 22.4239 33.5135C22.2338 33.521 21.6837 33.5236 21.3837 33.5196C21.0838 33.5155 20.5638 33.5086 20.1941 33.4836C20.0143 33.4712 19.9849 33.4208 19.9875 33.2308C19.991 32.9708 20.0163 32.5712 20.0803 32.272C20.1869 31.7834 20.4383 31.6767 20.9992 31.6142C21.53 31.5613 22.3002 31.5517 23.0401 31.5616C23.7801 31.5715 24.1597 31.5966 24.6193 31.6328ZM23.0365 35.5619C23.3265 35.5658 23.4077 35.4769 23.4098 35.3169L23.4183 34.6869L22.8083 34.6788C22.6783 34.677 22.6181 34.6962 22.5963 34.8259C22.5853 34.9058 22.5841 34.9958 22.5826 35.1058C22.5804 35.2658 22.589 35.3759 22.6282 35.4364C22.6771 35.5171 22.7765 35.5584 23.0365 35.5619ZM30.1201 31.6365C30.53 31.642 31.1398 31.6601 31.6094 31.6964C32.9681 31.8046 33.2439 32.1184 33.2271 33.3683C33.2249 33.5382 33.2139 33.6081 33.0437 33.6258C32.6436 33.6305 32.1236 33.6235 31.8236 33.6195C31.5237 33.6155 30.8837 33.6069 30.6839 33.5942C30.5242 33.5721 30.5143 33.5619 30.4962 33.4217C30.4872 33.3415 30.4886 33.2415 30.4795 33.1714C30.4618 33.0012 30.3625 32.9498 30.1025 32.9463C29.8225 32.9426 29.7317 33.0014 29.7296 33.1614L29.7197 33.9013C29.7181 34.0213 29.7478 34.0417 29.8178 34.0426C30.4877 34.0516 32.7775 34.0823 32.9674 34.0948C33.1372 34.1071 33.2163 34.1782 33.214 34.3482L33.1966 35.6481C33.1798 36.8979 32.8957 37.2042 31.5346 37.2759C31.0643 37.2996 30.4542 37.3015 30.0442 37.296C29.6243 37.2903 29.0244 37.2723 28.5549 37.236C27.1962 37.1278 26.9204 36.8141 26.9371 35.5642C26.9394 35.3942 26.9504 35.3243 27.1206 35.3066C27.5207 35.302 28.0407 35.3089 28.3406 35.3129C28.6406 35.317 29.2806 35.3255 29.4804 35.3382C29.6401 35.3604 29.65 35.3705 29.6681 35.5108C29.677 35.5909 29.6757 35.6909 29.6848 35.761C29.7025 35.9313 29.7918 35.9825 30.0618 35.9861C30.3317 35.9897 30.4325 35.931 30.4347 35.7711L30.4446 35.0311C30.4462 34.9111 30.4165 34.8907 30.3465 34.8898C29.6665 34.8807 27.3868 34.8501 27.1969 34.8376C27.0269 34.8353 26.948 34.7542 26.9503 34.5843L26.9677 33.2844C26.9844 32.0345 27.2686 31.7283 28.6297 31.6565C29.1 31.6328 29.7001 31.6308 30.1201 31.6365Z" fill="white"/>
<path d="M39.4832 23.0774C40.7032 23.0816 42.9829 23.1695 44.0425 23.2931C45.7218 23.4789 46.1205 23.8602 46.2765 25.0208C46.3348 25.521 46.3912 26.5612 46.3877 27.6012C46.3841 28.6412 46.3205 29.681 46.2588 30.1808C46.0949 31.3202 45.6933 31.7788 44.0131 31.8331C43.413 31.851 41.893 31.8658 40.853 31.8622C39.793 31.8585 38.2931 31.8334 37.6931 31.8113C36.8332 31.7884 36.6338 31.6077 36.6378 30.4477C36.6417 29.3077 36.8425 29.0884 37.7025 29.0913L39.9825 29.0992C40.1625 29.0998 40.2226 29.06 40.2236 28.78L40.2296 27.04C40.2309 26.64 40.1514 26.4997 39.4714 26.4974C38.8714 26.4953 38.7111 26.5748 38.6896 27.0147L38.6472 27.7346C38.6261 28.0545 38.606 28.0744 38.2259 28.1131C37.8257 28.1518 36.3256 28.1866 35.7256 28.1845C35.1256 28.1825 33.4657 28.1368 33.0459 28.0953C32.706 28.0542 32.6462 27.994 32.648 27.494C32.6497 26.974 32.8342 25.6746 32.9765 24.9951C33.2812 23.6361 33.762 23.4178 35.2225 23.2628C36.2629 23.1464 38.2832 23.0733 39.4832 23.0774ZM39.4493 32.9374C40.3693 32.9405 41.3291 32.9838 41.6491 33.0049C41.969 33.026 42.2286 33.1469 42.2471 33.587C42.2651 34.1471 42.2636 34.5871 42.2619 35.0871C42.2602 35.587 42.2587 36.027 42.2368 36.587C42.2152 37.0269 41.9548 37.146 41.6348 37.1649C41.3147 37.1838 40.3546 37.2205 39.4346 37.2173C38.5146 37.2142 37.5547 37.1709 37.2348 37.1498C36.9149 37.1287 36.6553 37.0078 36.6368 36.5677C36.6187 36.0077 36.6202 35.5677 36.6219 35.0677C36.6237 34.5677 36.6252 34.1277 36.6471 33.5677C36.6686 33.1278 36.929 33.0087 37.2491 32.9898C37.5692 32.9709 38.5293 32.9342 39.4493 32.9374Z" fill="white"/>
</g>
<defs>
<filter id="filter0_d_543_1467" x="0" y="0" width="58" height="58" filterUnits="userSpaceOnUse" color-interpolation-filters="sRGB">
<feFlood flood-opacity="0" result="BackgroundImageFix"/>
<feColorMatrix in="SourceAlpha" type="matrix" values="0 0 0 0 0 0 0 0 0 0 0 0 0 0 0 0 0 0 127 0" result="hardAlpha"/>
<feOffset/>
<feGaussianBlur stdDeviation="4"/>
<feComposite in2="hardAlpha" operator="out"/>
<feColorMatrix type="matrix" values="0 0 0 0 1 0 0 0 0 1 0 0 0 0 1 0 0 0 0.72 0"/>
<feBlend mode="normal" in2="BackgroundImageFix" result="effect1_dropShadow_543_1467"/>
<feBlend mode="normal" in="SourceGraphic" in2="effect1_dropShadow_543_1467" result="shape"/>
</filter>
</defs>
</svg>
