<svg width="33" height="20" viewBox="0 0 33 20" fill="none" xmlns="http://www.w3.org/2000/svg">
<path d="M8.40266 1.20428C8.41635 1.44419 8.41949 1.88818 8.42118 2.12817C8.42287 2.36817 8.42601 2.81216 8.4157 3.05223C8.40582 3.35231 8.23876 3.48549 7.93876 3.48761C7.56677 3.49024 6.71463 3.47225 6.22264 3.47573L6.23297 4.93969C6.24305 6.36765 6.25237 7.68762 6.22323 8.65985C6.21335 8.95993 6.09412 9.06877 5.84229 9.09455C5.60247 9.12024 4.99065 9.14856 4.39067 9.1528C3.79068 9.15704 3.17853 9.13736 2.93836 9.11505C2.6862 9.09283 2.56544 8.98568 2.55132 8.68577C2.50846 7.71405 2.49915 6.39408 2.48907 4.96612L2.47873 3.50215C1.98674 3.50563 1.13493 3.53564 0.762943 3.53827C0.46295 3.54039 0.294023 3.40957 0.279905 3.10967C0.266211 2.86976 0.263077 2.42577 0.261383 2.18577C0.259689 1.94578 0.256555 1.50179 0.26686 1.26171C0.276742 0.961635 0.443975 0.852453 0.6838 0.826759C1.01954 0.788387 2.9994 0.762411 4.33137 0.753008C5.65134 0.74369 7.64346 0.753628 7.97962 0.775255C8.21978 0.797561 8.38854 0.904372 8.40266 1.20428Z" fill="white"/>
<path d="M12.6291 1.10244C12.6559 1.49826 12.6598 2.05025 12.6672 3.09422C12.6699 3.47821 12.6707 3.58621 12.4459 4.04381L11.2386 6.41639C11.1557 6.57298 11.072 6.60957 10.8917 6.57484C10.7716 6.55169 10.567 6.46913 10.4466 6.42198C10.3263 6.37483 10.1698 6.30393 10.0493 6.23278C9.9047 6.1498 9.86777 6.01806 9.92667 5.86164L10.7052 3.94809C10.2492 3.95131 9.85311 3.94211 9.70886 3.90713C9.54061 3.87231 9.44394 3.77699 9.43024 3.53708C9.40345 3.14126 9.40006 2.66128 9.39777 2.33728C9.39549 2.01329 9.39201 1.5213 9.41322 1.12514C9.42352 0.885065 9.51884 0.78839 9.68658 0.751205C9.84233 0.714105 10.5142 0.697361 11.0182 0.693804C11.5222 0.690246 12.1943 0.697502 12.3505 0.7324C12.5188 0.767213 12.6154 0.862533 12.6291 1.10244Z" fill="white"/>
<path d="M21.9098 0.976926C21.911 1.14492 21.8285 1.34951 21.6039 1.84311L19.4997 6.34607C19.5048 7.06606 19.4986 7.89412 19.4793 8.56627C19.4695 8.86635 19.3502 8.97519 19.0984 9.00097C18.8706 9.02658 18.1988 9.05532 17.6228 9.05939C17.0468 9.06346 16.3746 9.0442 16.1465 9.02181C15.8943 8.99959 15.7736 8.89244 15.7594 8.59253C15.7307 7.92072 15.7128 7.09282 15.7078 6.37284L13.5401 1.90003C13.3087 1.40965 13.2232 1.20625 13.222 1.03826C13.2209 0.870259 13.3041 0.761669 13.5919 0.735636C13.8317 0.709943 14.4796 0.681369 15.0795 0.677134C15.6795 0.672898 16.2076 0.68117 16.4478 0.703476C16.8681 0.74851 16.9043 0.772255 17.0038 1.27556L17.5634 4.04368L17.6114 4.04335L18.1318 1.2676C18.2242 0.762937 18.2601 0.738684 18.6797 0.68772C18.9195 0.662026 19.4474 0.646299 20.0474 0.642064C20.6474 0.637829 21.2956 0.657254 21.5357 0.679559C21.8239 0.701526 21.9086 0.808929 21.9098 0.976926Z" fill="white"/>
<path d="M5.90181 12.1422C6.40179 12.1387 6.96192 12.1547 7.16206 12.1733C7.37219 12.1918 7.45297 12.3013 7.45417 12.4713C7.4553 12.6313 7.38749 12.9417 7.3489 13.142L6.1986 18.7703C6.1503 19.0106 6.00108 19.1217 5.77115 19.1333C5.20131 19.1573 4.47133 19.1625 3.87134 19.1667C3.27136 19.171 2.54138 19.1761 1.97125 19.1601C1.74118 19.1518 1.59041 19.0428 1.53872 18.8032L0.309076 13.1917C0.267665 12.992 0.195479 12.6825 0.194349 12.5225C0.193149 12.3525 0.272371 12.2419 0.482224 12.2205C0.682078 12.1991 1.24192 12.1751 1.74191 12.1716C2.2419 12.168 2.69196 12.1749 2.89209 12.1935C3.2423 12.221 3.29279 12.2906 3.3354 12.6603L3.83525 16.8869L3.87525 16.8866L4.31538 12.6534C4.35276 12.2831 4.40227 12.2128 4.75205 12.1803C4.9519 12.1589 5.40182 12.1457 5.90181 12.1422Z" fill="white"/>
<path d="M13.1646 12.4309L14.5246 18.0915C14.5863 18.3411 14.6381 18.5907 14.6392 18.7507C14.6405 18.9307 14.5512 19.0313 14.3513 19.0527C14.1515 19.0741 13.5916 19.0981 13.1317 19.1013C12.6717 19.1046 12.2216 19.0978 12.0215 19.0792C11.6913 19.0515 11.6409 19.0019 11.5782 18.6123L11.4841 18.0329L10.4241 18.0404L10.3382 18.6211C10.281 19.0115 10.2313 19.0618 9.90153 19.0941C9.70167 19.1156 9.25176 19.1287 8.79177 19.132C8.33178 19.1352 7.77165 19.1192 7.57152 19.1006C7.37138 19.082 7.28068 18.9826 7.27941 18.8026C7.27828 18.6427 7.32651 18.3923 7.38474 18.1419L8.66469 12.4627C8.71306 12.2324 8.84249 12.1514 9.08242 12.1398C9.32234 12.1281 10.3122 12.1011 10.9122 12.0968C11.5121 12.0926 12.5023 12.1056 12.7423 12.1139C12.9824 12.1222 13.113 12.2013 13.1646 12.4309ZM10.9062 14.0869L10.5825 16.3893L11.2924 16.3843L10.9462 14.0866L10.9062 14.0869Z" fill="white"/>
<path d="M18.3546 11.9843C18.8646 11.9807 19.9048 12.0134 20.3151 12.0505C21.4359 12.1526 21.7585 12.5203 21.7698 14.1302C21.7716 14.3802 21.7319 14.4205 21.522 14.442C21.3122 14.4635 20.6422 14.4682 20.3022 14.4706C19.9622 14.473 19.2222 14.4782 18.9921 14.4599C18.802 14.4412 18.7919 14.4313 18.7807 14.2613L18.7585 13.9515C18.7469 13.7316 18.6667 13.6921 18.3667 13.6943C18.0167 13.6967 17.9972 13.7669 17.9886 13.9669C17.9801 14.177 17.9829 14.577 17.9842 14.767C17.9852 14.907 18.0154 14.9268 18.1054 14.9261C18.3853 14.9242 21.3253 14.9134 21.4854 14.9223C21.6655 14.931 21.7461 15.0204 21.7575 15.2204C21.7801 15.5902 21.7863 16.4602 21.7896 16.9302C21.8013 18.5901 21.5536 18.9119 20.4344 19.0298C20.0247 19.0727 18.915 19.1205 18.405 19.1241C17.905 19.1276 16.8548 19.0951 16.4445 19.058C15.3237 18.9559 15.0015 18.6381 14.9891 16.8782C14.9873 16.6282 15.027 16.5879 15.2369 16.5664C15.4467 16.5449 16.1167 16.5402 16.4567 16.5378C16.7967 16.5354 17.5367 16.5302 17.7668 16.5486C17.9569 16.5672 17.967 16.5771 17.9782 16.7471L18.0011 17.1569C18.0127 17.3768 18.0929 17.4163 18.3929 17.4142C18.7329 17.4118 18.7624 17.3416 18.771 17.1415C18.7795 16.9314 18.7767 16.5314 18.7747 16.2414C18.7737 16.1014 18.7435 16.0817 18.6535 16.0823C18.3735 16.0843 15.4335 16.095 15.2735 16.0861C15.0934 16.0774 15.0128 15.988 15.0014 15.7881C14.9788 15.4182 14.9733 14.6482 14.97 14.1782C14.9583 12.5183 15.226 12.1964 16.3452 12.0785C16.7549 12.0356 17.8446 11.9879 18.3546 11.9843Z" fill="white"/>
<path d="M28.3188 10.5491C29.0508 10.5439 30.4191 10.5823 31.0556 10.6498C32.0643 10.7507 32.3059 10.977 32.4068 11.6723C32.4449 11.972 32.4853 12.5957 32.4897 13.2197C32.4941 13.8437 32.4625 14.4679 32.4287 14.7682C32.3375 15.4528 32.0994 15.7305 31.0917 15.7736C30.7318 15.7882 29.8199 15.8066 29.1959 15.811C28.56 15.8155 27.6599 15.8099 27.2998 15.8004C26.7837 15.7921 26.663 15.6849 26.6581 14.9889C26.6532 14.3049 26.7723 14.1721 27.2883 14.1685L28.6563 14.1588C28.7643 14.158 28.8001 14.1338 28.7989 13.9658L28.7915 12.9218C28.7898 12.6818 28.7413 12.5982 28.3333 12.601C27.9733 12.6036 27.8776 12.6523 27.8675 12.9163L27.8465 13.3485C27.8359 13.5406 27.824 13.5527 27.5961 13.5783C27.3563 13.604 26.4565 13.6343 26.0965 13.6369C25.7365 13.6394 24.7404 13.6224 24.4882 13.6002C24.2841 13.5776 24.2478 13.5419 24.2457 13.2419C24.2435 12.9299 24.346 12.1492 24.4271 11.7406C24.6013 10.9233 24.8884 10.7893 25.7637 10.6871C26.3872 10.6107 27.5988 10.5542 28.3188 10.5491ZM28.3605 16.4649C28.9125 16.461 29.4887 16.481 29.6808 16.4916C29.8728 16.5023 30.0293 16.5732 30.0432 16.8371C30.0576 17.173 30.0594 17.437 30.0616 17.737C30.0637 18.037 30.0655 18.301 30.0559 18.637C30.0458 18.9011 29.8903 18.9742 29.6984 18.9876C29.5065 19.0009 28.9307 19.029 28.3787 19.0329C27.8267 19.0368 27.2505 19.0168 27.0584 19.0062C26.8664 18.9956 26.7099 18.9247 26.696 18.6607C26.6816 18.3248 26.6798 18.0608 26.6776 17.7609C26.6755 17.4609 26.6737 17.1969 26.6833 16.8608C26.6934 16.5967 26.8489 16.5236 27.0408 16.5103C27.2327 16.4969 27.8086 16.4688 28.3605 16.4649Z" fill="white"/>
</svg>
