<svg width="34" height="18" viewBox="0 0 34 18" fill="none" xmlns="http://www.w3.org/2000/svg">
<path d="M7.26199 0.493404C7.26931 0.693519 7.26435 1.06349 7.26167 1.26347C7.25899 1.46345 7.25404 1.83342 7.24136 2.03327C7.22801 2.28311 7.08655 2.39122 6.83657 2.38787C6.5266 2.38372 5.81693 2.35421 5.40696 2.34871L5.39062 3.5686C5.37467 4.7585 5.35993 5.8584 5.31908 6.66792C5.30573 6.91777 5.20453 7.00642 4.99428 7.0236C4.79403 7.04092 4.28381 7.05408 3.78385 7.04738C3.2839 7.04068 2.77421 7.01385 2.5745 6.99117C2.36479 6.96836 2.266 6.87703 2.25935 6.62692C2.24021 5.81659 2.25495 4.71669 2.2709 3.52679L2.28724 2.3069C1.87728 2.30141 1.16708 2.31189 0.857105 2.30774C0.607127 2.30439 0.468614 2.19252 0.461965 1.94241C0.454646 1.74229 0.459604 1.37233 0.462284 1.17235C0.464964 0.972363 0.469923 0.602397 0.482602 0.402549C0.495951 0.152705 0.637144 0.0645895 0.837394 0.0472711C1.11777 0.0210257 2.76776 0.0331374 3.87766 0.0480119C4.97756 0.0627523 6.63714 0.104996 6.91685 0.128746C7.11656 0.151424 7.25534 0.243292 7.26199 0.493404Z" fill="white"/>
<path d="M10.7851 0.480613C10.8006 0.810852 10.7945 1.27081 10.7828 2.14073C10.7785 2.4607 10.7773 2.5507 10.5822 2.92811L9.53594 4.88427C9.4642 5.01332 9.3938 5.04238 9.24422 5.01037C9.1445 4.98903 8.97545 4.91676 8.876 4.87543C8.77654 4.83409 8.64736 4.77235 8.54817 4.71102C8.42912 4.63942 8.40059 4.52902 8.45233 4.39971L9.13358 2.81869C8.75361 2.8136 8.42378 2.79918 8.30419 2.76757C8.1646 2.7357 8.08568 2.65464 8.07836 2.45452C8.06279 2.12428 8.06815 1.72432 8.07177 1.45434C8.07538 1.18437 8.08088 0.774402 8.1053 0.4447C8.11798 0.244852 8.19904 0.165931 8.33943 0.13781C8.46982 0.109554 9.02991 0.10706 9.44987 0.112688C9.86983 0.118316 10.4296 0.135819 10.5592 0.167559C10.6988 0.199432 10.7777 0.280497 10.7851 0.480613Z" fill="white"/>
<path d="M17.3134 1.72821C17.5631 1.75156 17.6216 1.86235 17.5687 2.08166L16.4624 7.01728C16.1005 8.65258 15.8682 8.81948 14.0684 8.79536C12.4785 8.77405 12.2699 8.67125 12.2354 8.26075C12.2174 8.11049 12.212 7.77039 12.2146 7.57041C12.2188 7.26043 12.2695 7.21111 12.6094 7.21567L13.8693 7.23255C14.0893 7.2355 14.1904 7.15685 14.2553 6.78768C13.8153 6.78179 13.0354 6.77133 12.6057 6.74557C12.3659 6.73236 12.2671 6.64103 12.2202 6.41038L11.3292 1.99804C11.2822 1.77739 11.3436 1.6682 11.5939 1.65156C11.8441 1.63491 12.4241 1.64268 12.6741 1.64603C12.924 1.64938 13.454 1.65648 13.7036 1.68983C13.8533 1.71184 13.9425 1.77304 13.9605 1.92329L14.3831 5.45928L14.4231 5.45981L14.9404 1.93643C14.9624 1.78671 15.0532 1.72792 15.2034 1.70993C15.4538 1.68328 15.9638 1.69012 16.2137 1.69347C16.4637 1.69682 17.0637 1.70486 17.3134 1.72821Z" fill="white"/>
<path d="M5.14369 11.546C5.39367 11.5494 5.97362 11.5571 6.22333 11.5805C6.47304 11.6038 6.53156 11.7146 6.47862 11.9339L5.36439 16.7194C5.31131 16.9487 5.21011 17.0374 4.97 17.0442C4.44978 17.0572 3.83983 17.049 3.28988 17.0417C2.73993 17.0343 2.12999 17.0261 1.6103 16.9992C1.37046 16.9859 1.26167 16.8945 1.21476 16.6638L0.239175 11.8503C0.192128 11.6297 0.253596 11.5205 0.503842 11.5038C0.754087 11.4872 1.33404 11.495 1.58401 11.4983C1.83399 11.5017 2.36394 11.5088 2.61352 11.5421C2.76324 11.5641 2.85242 11.6253 2.87041 11.7756L3.29307 15.3115L3.33306 15.3121L3.85033 11.7887C3.87233 11.639 3.96313 11.5802 4.11338 11.5622C4.36376 11.5356 4.89372 11.5427 5.14369 11.546Z" fill="white"/>
<path d="M11.6191 11.6328C12.8079 11.7287 13.1639 12.0335 13.1459 13.3734C13.1303 14.5433 13.1079 16.2132 13.0793 16.8528C13.0664 17.0727 12.9357 17.1209 12.7754 17.1388C12.6052 17.1565 12.1651 17.1606 11.7251 17.1547C11.2652 17.1485 10.8854 17.1335 10.6856 17.1108C10.5258 17.0986 10.4066 17.037 10.4095 16.817L10.4212 15.9471L10.3712 15.9465C10.1988 16.8742 9.71465 17.1778 8.44477 17.1608C7.12488 17.1431 6.82987 16.7691 6.84903 15.3392C6.85278 15.0592 6.86707 14.7394 6.89015 14.5097C6.92524 14.1301 7.08764 13.9523 7.4976 13.9578L10.4273 13.997C10.4308 13.7371 10.4358 13.3671 10.4289 13.137C10.421 12.9769 10.3218 12.9155 10.0518 12.9119C9.69188 12.9071 9.64121 12.9564 9.62719 13.2562C9.61425 13.4761 9.59385 13.5058 9.42373 13.5135C9.23361 13.521 8.68353 13.5236 8.38355 13.5196C8.08358 13.5156 7.56363 13.5086 7.19393 13.4837C7.01408 13.4712 6.98475 13.4208 6.9873 13.2309C6.99078 12.9709 7.01614 12.5712 7.08015 12.272C7.18671 11.7834 7.43816 11.6768 7.99905 11.6143C8.52981 11.5614 9.30001 11.5517 10.0399 11.5616C10.7799 11.5715 11.1596 11.5966 11.6191 11.6328ZM10.0363 15.5619C10.3263 15.5658 10.4075 15.4769 10.4096 15.3169L10.4181 14.687L9.80815 14.6788C9.67816 14.6771 9.6179 14.6962 9.59616 14.826C9.58509 14.9058 9.58388 14.9958 9.58241 15.1058C9.58026 15.2658 9.58879 15.3759 9.62798 15.4365C9.6769 15.5171 9.77636 15.5585 10.0363 15.5619Z" fill="white"/>
<path d="M17.1199 11.6365C17.5298 11.642 18.1397 11.6602 18.6092 11.6965C19.9679 11.8047 20.2437 12.1184 20.227 13.3683C20.2247 13.5383 20.2137 13.6081 20.0435 13.6259C19.6434 13.6305 19.1234 13.6235 18.8235 13.6195C18.5235 13.6155 17.8835 13.6069 17.6837 13.5942C17.524 13.5721 17.5141 13.562 17.496 13.4217C17.4871 13.3416 17.4884 13.2416 17.4793 13.1715C17.4616 13.0012 17.3623 12.9499 17.1023 12.9464C16.8224 12.9426 16.7316 13.0014 16.7294 13.1614L16.7195 13.9013C16.7179 14.0213 16.7476 14.0417 16.8176 14.0427C17.4876 14.0516 19.7773 14.0823 19.9672 14.0949C20.137 14.1072 20.2161 14.1782 20.2138 14.3482L20.1964 15.6481C20.1797 16.898 19.8955 17.2042 18.5344 17.276C18.0641 17.2997 17.454 17.3015 17.044 17.296C16.6241 17.2904 16.0243 17.2723 15.5547 17.236C14.196 17.1278 13.9202 16.8141 13.937 15.5642C13.9392 15.3942 13.9502 15.3244 14.1204 15.3066C14.5205 15.302 15.0405 15.309 15.3405 15.313C15.6404 15.317 16.2804 15.3256 16.4802 15.3383C16.6399 15.3604 16.6498 15.3705 16.6679 15.5108C16.6769 15.5909 16.6755 15.6909 16.6846 15.761C16.7023 15.9313 16.7916 15.9825 17.0616 15.9861C17.3316 15.9897 17.4324 15.9311 17.4345 15.7711L17.4444 15.0312C17.446 14.9112 17.4163 14.8908 17.3463 14.8898C16.6664 14.8807 14.3866 14.8502 14.1967 14.8376C14.0267 14.8353 13.9478 14.7543 13.9501 14.5843L13.9675 13.2844C13.9843 12.0345 14.2684 11.7283 15.6295 11.6565C16.0998 11.6328 16.6999 11.6309 17.1199 11.6365Z" fill="white"/>
<path d="M26.483 3.07747C27.703 3.08166 29.9827 3.1695 31.0423 3.29314C32.7217 3.47891 33.1203 3.86029 33.2764 5.02083C33.3346 5.52103 33.3911 6.56123 33.3875 7.60123C33.3839 8.64122 33.3203 9.68101 33.2586 10.1808C33.0947 11.3202 32.6931 11.7789 31.0129 11.8331C30.4129 11.851 28.8928 11.8658 27.8528 11.8622C26.7928 11.8586 25.2929 11.8334 24.693 11.8114C23.833 11.7884 23.6337 11.6077 23.6376 10.4477C23.6416 9.30774 23.8423 9.08843 24.7023 9.09138L26.9823 9.09922C27.1623 9.09984 27.2224 9.06004 27.2234 8.78005L27.2294 7.04006C27.2308 6.64006 27.1512 6.49979 26.4712 6.49745C25.8712 6.49539 25.711 6.57484 25.6895 7.01476L25.647 7.73462C25.6259 8.05455 25.6058 8.07448 25.2257 8.11318C24.8255 8.1518 23.3254 8.18664 22.7254 8.18458C22.1254 8.18252 20.4656 8.13682 20.0457 8.09537C19.7058 8.0542 19.6461 7.994 19.6478 7.494C19.6496 6.974 19.834 5.67463 19.9764 4.99512C20.281 3.63615 20.7618 3.41781 22.2223 3.26282C23.2627 3.1464 25.283 3.07334 26.483 3.07747ZM26.4491 12.9374C27.3691 12.9406 28.329 12.9839 28.6489 13.005C28.9688 13.0261 29.2284 13.147 29.2469 13.587C29.265 14.1471 29.2635 14.5871 29.2617 15.0871C29.26 15.5871 29.2585 16.0271 29.2366 16.587C29.2151 17.0269 28.9547 17.146 28.6346 17.1649C28.3145 17.1838 27.3544 17.2205 26.4344 17.2174C25.5144 17.2142 24.5545 17.1709 24.2346 17.1498C23.9147 17.1287 23.6551 17.0078 23.6366 16.5678C23.6185 16.0077 23.62 15.5677 23.6218 15.0677C23.6235 14.5677 23.625 14.1277 23.6469 13.5678C23.6684 13.1279 23.9288 13.0087 24.2489 12.9898C24.569 12.9709 25.5291 12.9342 26.4491 12.9374Z" fill="white"/>
</svg>
