<svg width="58" height="58" viewBox="0 0 58 58" fill="none" xmlns="http://www.w3.org/2000/svg">
<g filter="url(#filter0_d_543_405)">
<circle cx="29" cy="29" r="21" fill="#1D1D20"/>
<path d="M22.4025 20.2043C22.4162 20.4442 22.4193 20.8882 22.421 21.1282C22.4227 21.3682 22.4258 21.8122 22.4155 22.0523C22.4056 22.3524 22.2386 22.4855 21.9386 22.4877C21.5666 22.4903 20.7144 22.4723 20.2225 22.4758L20.2328 23.9397C20.2429 25.3677 20.2522 26.6877 20.223 27.6599C20.2132 27.96 20.0939 28.0688 19.8421 28.0946C19.6023 28.1203 18.9905 28.1486 18.3905 28.1528C17.7905 28.1571 17.1783 28.1374 16.9382 28.1151C16.686 28.0929 16.5653 27.9857 16.5511 27.6858C16.5083 26.7141 16.499 25.3941 16.4889 23.9662L16.4785 22.5022C15.9866 22.5057 15.1348 22.5357 14.7628 22.5383C14.4628 22.5404 14.2938 22.4096 14.2797 22.1097C14.266 21.8698 14.2629 21.4258 14.2612 21.1858C14.2595 20.9458 14.2564 20.5018 14.2667 20.2618C14.2766 19.9617 14.4438 19.8525 14.6836 19.8268C15.0194 19.7884 16.9992 19.7625 18.3312 19.7531C19.6512 19.7437 21.6433 19.7537 21.9794 19.7753C22.2196 19.7976 22.3884 19.9044 22.4025 20.2043ZM26.629 20.1025C26.6557 20.4983 26.6596 21.0503 26.667 22.0943C26.6697 22.4783 26.6705 22.5863 26.4457 23.0439L25.2384 25.4164C25.1555 25.573 25.0718 25.6096 24.8915 25.5749C24.7714 25.5517 24.5668 25.4692 24.4465 25.422C24.3261 25.3749 24.1696 25.304 24.0491 25.2328C23.9045 25.1499 23.8676 25.0181 23.9265 24.8617L24.705 22.9481C24.249 22.9514 23.8529 22.9422 23.7087 22.9072C23.5404 22.8724 23.4438 22.777 23.4301 22.5371C23.4033 22.1413 23.3999 21.6613 23.3976 21.3373C23.3953 21.0133 23.3918 20.5214 23.413 20.1252C23.4233 19.8851 23.5187 19.7884 23.6864 19.7513C23.8421 19.7142 24.514 19.6974 25.018 19.6939C25.522 19.6903 26.1941 19.6976 26.3503 19.7324C26.5186 19.7673 26.6153 19.8626 26.629 20.1025ZM35.9096 19.977C35.9108 20.145 35.8283 20.3496 35.6038 20.8432L33.4995 25.3461C33.5046 26.0661 33.4984 26.8942 33.4792 27.5663C33.4693 27.8664 33.35 27.9752 33.0982 28.001C32.8704 28.0266 32.1986 28.0554 31.6226 28.0594C31.0466 28.0635 30.3745 28.0443 30.1463 28.0219C29.8941 27.9996 29.7734 27.8925 29.7592 27.5926C29.7305 26.9208 29.7127 26.0929 29.7076 25.3729L27.54 20.9001C27.3085 20.4097 27.223 20.2063 27.2219 20.0383C27.2207 19.8703 27.3039 19.7617 27.5917 19.7357C27.8316 19.71 28.4794 19.6814 29.0794 19.6772C29.6793 19.6729 30.2074 19.6812 30.4476 19.7035C30.8679 19.7486 30.9041 19.7723 31.0036 20.2756L31.5632 23.0437L31.6112 23.0434L32.1316 20.2677C32.224 19.763 32.2599 19.7387 32.6795 19.6878C32.9193 19.6621 33.4472 19.6463 34.0472 19.6421C34.6472 19.6379 35.2954 19.6573 35.5355 19.6796C35.8237 19.7016 35.9085 19.809 35.9096 19.977ZM19.9016 31.1423C20.4016 31.1387 20.9617 31.1548 21.1619 31.1734C21.372 31.1919 21.4528 31.3013 21.454 31.4713C21.4551 31.6313 21.3873 31.9418 21.3487 32.1421L20.1984 37.7703C20.1501 38.0107 20.0009 38.1217 19.771 38.1334C19.2011 38.1574 18.4711 38.1625 17.8712 38.1668C17.2712 38.171 16.5412 38.1762 15.9711 38.1602C15.741 38.1518 15.5902 38.0429 15.5385 37.8032L14.3089 32.1918C14.2675 31.992 14.1953 31.6826 14.1942 31.5226C14.193 31.3526 14.2722 31.242 14.482 31.2205C14.6819 31.1991 15.2417 31.1752 15.7417 31.1716C16.2417 31.1681 16.6918 31.1749 16.8919 31.1935C17.2421 31.221 17.2926 31.2907 17.3352 31.6604L17.8351 35.887L17.8751 35.8867L18.3152 31.6535C18.3526 31.2832 18.4021 31.2128 18.7519 31.1804C18.9517 31.159 19.4016 31.1458 19.9016 31.1423ZM27.1644 31.431L28.5244 37.0915C28.5861 37.3411 28.6379 37.5907 28.639 37.7507C28.6403 37.9307 28.551 38.0314 28.3512 38.0528C28.1513 38.0742 27.5915 38.0981 27.1315 38.1014C26.6715 38.1046 26.2214 38.0978 26.0213 38.0792C25.6911 38.0516 25.6407 38.0019 25.578 37.6123L25.4839 37.033L24.4239 37.0405L24.338 37.6211C24.2808 38.0115 24.2311 38.0619 23.9013 38.0942C23.7015 38.1156 23.2516 38.1288 22.7916 38.132C22.3316 38.1353 21.7715 38.1192 21.5713 38.1006C21.3712 38.0821 21.2805 37.9827 21.2792 37.8027C21.2781 37.6427 21.3263 37.3924 21.3846 37.1419L22.6645 31.4628C22.7129 31.2324 22.8423 31.1515 23.0822 31.1398C23.3222 31.1281 24.312 31.1011 24.912 31.0969C25.512 31.0927 26.5021 31.1057 26.7421 31.114C26.9822 31.1223 27.1128 31.2014 27.1644 31.431ZM24.906 33.087L24.5823 35.3893L25.2923 35.3843L24.946 33.0867L24.906 33.087ZM32.3544 30.9843C32.8644 30.9807 33.9047 31.0134 34.3149 31.0505C35.4357 31.1526 35.7583 31.5203 35.7696 33.1303C35.7714 33.3803 35.7317 33.4206 35.5218 33.442C35.312 33.4635 34.642 33.4683 34.302 33.4707C33.962 33.4731 33.222 33.4783 32.9919 33.4599C32.8018 33.4412 32.7917 33.4313 32.7805 33.2614L32.7583 32.9515C32.7468 32.7316 32.6665 32.6922 32.3665 32.6943C32.0165 32.6968 31.997 32.7669 31.9884 32.967C31.9799 33.177 31.9827 33.577 31.984 33.767C31.985 33.907 32.0152 33.9268 32.1052 33.9262C32.3852 33.9242 35.3252 33.9134 35.4852 33.9223C35.6653 33.931 35.7459 34.0205 35.7573 34.2204C35.78 34.5903 35.7861 35.4602 35.7894 35.9302C35.8011 37.5902 35.5534 37.9119 34.4342 38.0298C34.0245 38.0727 32.9148 38.1206 32.4048 38.1242C31.9048 38.1277 30.8546 38.0951 30.4443 38.058C29.3236 37.9559 29.0013 37.6382 28.9889 35.8782C28.9871 35.6282 29.0268 35.588 29.2367 35.5665C29.4465 35.545 30.1165 35.5403 30.4565 35.5379C30.7965 35.5355 31.5365 35.5302 31.7666 35.5486C31.9568 35.5673 31.9668 35.5772 31.978 35.7471L32.0009 36.157C32.0125 36.3769 32.0928 36.4163 32.3927 36.4142C32.7327 36.4118 32.7622 36.3416 32.7708 36.1415C32.7793 35.9315 32.7765 35.5315 32.7745 35.2415C32.7735 35.1015 32.7433 35.0817 32.6533 35.0823C32.3734 35.0843 29.4334 35.0951 29.2733 35.0862C29.0932 35.0775 29.0126 34.988 29.0012 34.7881C28.9786 34.4183 28.9731 33.6483 28.9698 33.1783C28.9581 31.5183 29.2258 31.1964 30.345 31.0785C30.7547 31.0356 31.8444 30.9879 32.3544 30.9843Z" fill="white"/>
<path d="M42.3186 25.549C43.0506 25.5439 44.4189 25.5822 45.0554 25.6497C46.0641 25.7506 46.3057 25.9769 46.4066 26.6722C46.4447 26.9719 46.4851 27.5957 46.4896 28.2197C46.494 28.8436 46.4624 29.4679 46.4285 29.7681C46.3373 30.4528 46.0993 30.7305 45.0915 30.7736C44.7316 30.7881 43.8197 30.8066 43.1958 30.811C42.5598 30.8155 41.6597 30.8098 41.2996 30.8004C40.7836 30.792 40.6628 30.6848 40.6579 29.9889C40.6531 29.3049 40.7721 29.172 41.2881 29.1684L42.6561 29.1587C42.7641 29.158 42.7999 29.1337 42.7987 28.9657L42.7914 27.9217C42.7897 27.6818 42.7411 27.5981 42.3331 27.601C41.9731 27.6035 41.8774 27.6522 41.8673 27.9163L41.8463 28.3484C41.8357 28.5405 41.8238 28.5526 41.596 28.5782C41.3561 28.6039 40.4563 28.6343 40.0963 28.6368C39.7363 28.6393 38.7402 28.6224 38.488 28.6001C38.2839 28.5776 38.2476 28.5418 38.2455 28.2418C38.2433 27.9299 38.3458 27.1491 38.4269 26.7405C38.6011 25.9233 38.8882 25.7892 39.7635 25.6871C40.387 25.6107 41.5986 25.5541 42.3186 25.549ZM42.3604 31.4649C42.9123 31.461 43.4885 31.4809 43.6806 31.4916C43.8727 31.5022 44.0292 31.5731 44.043 31.837C44.0574 32.1729 44.0593 32.4369 44.0614 32.7369C44.0635 33.0369 44.0654 33.3009 44.0557 33.637C44.0456 33.901 43.8901 33.9741 43.6982 33.9875C43.5063 34.0009 42.9305 34.0289 42.3785 34.0328C41.8265 34.0367 41.2503 34.0168 41.0583 34.0061C40.8662 33.9955 40.7097 33.9246 40.6958 33.6607C40.6814 33.3248 40.6796 33.0608 40.6775 32.7608C40.6753 32.4608 40.6735 32.1968 40.6831 31.8607C40.6932 31.5967 40.8487 31.5236 41.0406 31.5102C41.2326 31.4968 41.8084 31.4688 42.3604 31.4649Z" fill="white"/>
</g>
<defs>
<filter id="filter0_d_543_405" x="0" y="0" width="58" height="58" filterUnits="userSpaceOnUse" color-interpolation-filters="sRGB">
<feFlood flood-opacity="0" result="BackgroundImageFix"/>
<feColorMatrix in="SourceAlpha" type="matrix" values="0 0 0 0 0 0 0 0 0 0 0 0 0 0 0 0 0 0 127 0" result="hardAlpha"/>
<feOffset/>
<feGaussianBlur stdDeviation="4"/>
<feComposite in2="hardAlpha" operator="out"/>
<feColorMatrix type="matrix" values="0 0 0 0 1 0 0 0 0 1 0 0 0 0 1 0 0 0 0.72 0"/>
<feBlend mode="normal" in2="BackgroundImageFix" result="effect1_dropShadow_543_405"/>
<feBlend mode="normal" in="SourceGraphic" in2="effect1_dropShadow_543_405" result="shape"/>
</filter>
</defs>
</svg>
