<svg width="19" height="19" viewBox="0 0 19 19" fill="none" xmlns="http://www.w3.org/2000/svg">
<path d="M0.511719 18.5391C0.371094 18.4062 0.277344 18.25 0.230469 18.0703C0.191406 17.8906 0.195312 17.7109 0.242188 17.5312C0.289062 17.3516 0.378906 17.1953 0.511719 17.0625L8.01172 9.55078L0.511719 2.05078C0.378906 1.91797 0.289062 1.76172 0.242188 1.58203C0.203125 1.40234 0.203125 1.22266 0.242188 1.04297C0.289062 0.863281 0.378906 0.707031 0.511719 0.574219C0.644531 0.433594 0.800781 0.34375 0.980469 0.304688C1.16016 0.257812 1.33984 0.257812 1.51953 0.304688C1.70703 0.34375 1.86719 0.433594 2 0.574219L9.5 8.07422L17 0.574219C17.1328 0.433594 17.2891 0.34375 17.4688 0.304688C17.6484 0.257812 17.8281 0.257812 18.0078 0.304688C18.1875 0.34375 18.3477 0.433594 18.4883 0.574219C18.6211 0.707031 18.7109 0.863281 18.7578 1.04297C18.8047 1.22266 18.8047 1.40234 18.7578 1.58203C18.7109 1.76172 18.6211 1.91797 18.4883 2.05078L10.9883 9.55078L18.4883 17.0625C18.6211 17.1953 18.707 17.3516 18.7461 17.5312C18.793 17.7109 18.793 17.8906 18.7461 18.0703C18.707 18.25 18.6211 18.4062 18.4883 18.5391C18.3555 18.6797 18.1953 18.7695 18.0078 18.8086C17.8281 18.8555 17.6484 18.8555 17.4688 18.8086C17.2891 18.7617 17.1328 18.6719 17 18.5391L9.5 11.0391L2 18.5391C1.86719 18.6719 1.71094 18.7617 1.53125 18.8086C1.35156 18.8555 1.17188 18.8555 0.992188 18.8086C0.8125 18.7617 0.652344 18.6719 0.511719 18.5391Z" fill="#F5F5F5"/>
</svg>
