<svg width="18" height="19" viewBox="0 0 18 19" fill="none" xmlns="http://www.w3.org/2000/svg">
<path d="M9 18.6191C7.76367 18.6191 6.60352 18.3848 5.51953 17.916C4.43555 17.4531 3.4834 16.8115 2.66309 15.9912C1.84277 15.1709 1.19824 14.2188 0.729492 13.1348C0.266602 12.0508 0.0351562 10.8906 0.0351562 9.6543C0.0351562 8.41797 0.266602 7.25781 0.729492 6.17383C1.19824 5.08984 1.84277 4.1377 2.66309 3.31738C3.4834 2.49121 4.43555 1.84668 5.51953 1.38379C6.60352 0.920898 7.76367 0.689453 9 0.689453C10.2363 0.689453 11.3965 0.920898 12.4805 1.38379C13.5645 1.84668 14.5166 2.49121 15.3369 3.31738C16.1572 4.1377 16.7988 5.08984 17.2617 6.17383C17.7305 7.25781 17.9648 8.41797 17.9648 9.6543C17.9648 10.8906 17.7305 12.0508 17.2617 13.1348C16.7988 14.2188 16.1572 15.1709 15.3369 15.9912C14.5166 16.8115 13.5645 17.4531 12.4805 17.916C11.3965 18.3848 10.2363 18.6191 9 18.6191ZM9 17.125C10.0312 17.125 10.998 16.9316 11.9004 16.5449C12.8027 16.1582 13.5967 15.6221 14.2822 14.9365C14.9678 14.251 15.5039 13.457 15.8906 12.5547C16.2773 11.6523 16.4707 10.6855 16.4707 9.6543C16.4707 8.62305 16.2773 7.65625 15.8906 6.75391C15.5039 5.8457 14.9678 5.05176 14.2822 4.37207C13.5967 3.68652 12.8027 3.15039 11.9004 2.76367C10.998 2.37695 10.0312 2.18359 9 2.18359C7.96875 2.18359 7.00195 2.37695 6.09961 2.76367C5.19727 3.15039 4.40332 3.68652 3.71777 4.37207C3.03223 5.05176 2.49609 5.8457 2.10938 6.75391C1.72266 7.65625 1.5293 8.62305 1.5293 9.6543C1.5293 10.6855 1.72266 11.6523 2.10938 12.5547C2.49609 13.457 3.03223 14.251 3.71777 14.9365C4.40332 15.6221 5.19727 16.1582 6.09961 16.5449C7.00195 16.9316 7.96875 17.125 9 17.125ZM5.99414 13.3721C5.80078 13.3721 5.63379 13.3018 5.49316 13.1611C5.3584 13.0205 5.29102 12.8535 5.29102 12.6602C5.29102 12.4668 5.36133 12.3027 5.50195 12.168L7.99805 9.66309L5.50195 7.1582C5.36133 7.02344 5.29102 6.85938 5.29102 6.66602C5.29102 6.47266 5.3584 6.30859 5.49316 6.17383C5.63379 6.03906 5.80078 5.97168 5.99414 5.97168C6.19336 5.97168 6.35742 6.04199 6.48633 6.18262L8.99121 8.67871L11.5225 6.17383C11.6631 6.02734 11.8242 5.9541 12.0059 5.9541C12.1992 5.9541 12.3633 6.02441 12.498 6.16504C12.6387 6.2998 12.709 6.46387 12.709 6.65723C12.709 6.84473 12.6387 7.00879 12.498 7.14941L9.99316 9.66309L12.4893 12.1592C12.6299 12.2998 12.7002 12.4668 12.7002 12.6602C12.7002 12.8535 12.6299 13.0205 12.4893 13.1611C12.3545 13.3018 12.1904 13.3721 11.9971 13.3721C11.8037 13.3721 11.6367 13.2988 11.4961 13.1523L8.99121 10.6562L6.50391 13.1523C6.36914 13.2988 6.19922 13.3721 5.99414 13.3721Z" fill="#FBFBFB"/>
</svg>
